  0
SECTION
  2
HEADER
  9
$ACADVER
  1
AC1015
  9
$ACADMAINTVER
 70
     6
  9
$DWGCODEPAGE
  3
ANSI_1252
  9
$INSBASE
 10
0.0
 20
0.0
 30
0.0
  9
$EXTMIN
 10
-35.0
 20
-299.0
 30
0.0
  9
$EXTMAX
 10
153.933762
 20
0.0
 30
2.0
  9
$LIMMIN
 10
0.0
 20
0.0
  9
$LIMMAX
 10
12.0
 20
9.0
  9
$ORTHOMODE
 70
     0
  9
$REGENMODE
 70
     1
  9
$FILLMODE
 70
     1
  9
$QTEXTMODE
 70
     0
  9
$MIRRTEXT
 70
     1
  9
$LTSCALE
 40
1.0
  9
$ATTMODE
 70
     1
  9
$TEXTSIZE
 40
0.2
  9
$TRACEWID
 40
0.05
  9
$TEXTSTYLE
  7
Standard
  9
$CLAYER
  8
0
  9
$CELTYPE
  6
ByLayer
  9
$CECOLOR
 62
   256
  9
$CELTSCALE
 40
1.0
  9
$DISPSILH
 70
     0
  9
$DIMSCALE
 40
1.0
  9
$DIMASZ
 40
0.18
  9
$DIMEXO
 40
0.0625
  9
$DIMDLI
 40
0.38
  9
$DIMRND
 40
0.0
  9
$DIMDLE
 40
0.0
  9
$DIMEXE
 40
0.18
  9
$DIMTP
 40
0.0
  9
$DIMTM
 40
0.0
  9
$DIMTXT
 40
0.18
  9
$DIMCEN
 40
0.09
  9
$DIMTSZ
 40
0.0
  9
$DIMTOL
 70
     0
  9
$DIMLIM
 70
     0
  9
$DIMTIH
 70
     1
  9
$DIMTOH
 70
     1
  9
$DIMSE1
 70
     0
  9
$DIMSE2
 70
     0
  9
$DIMTAD
 70
     0
  9
$DIMZIN
 70
     0
  9
$DIMBLK
  1

  9
$DIMASO
 70
     1
  9
$DIMSHO
 70
     1
  9
$DIMPOST
  1

  9
$DIMAPOST
  1

  9
$DIMALT
 70
     0
  9
$DIMALTD
 70
     2
  9
$DIMALTF
 40
25.4
  9
$DIMLFAC
 40
1.0
  9
$DIMTOFL
 70
     0
  9
$DIMTVP
 40
0.0
  9
$DIMTIX
 70
     0
  9
$DIMSOXD
 70
     0
  9
$DIMSAH
 70
     0
  9
$DIMBLK1
  1

  9
$DIMBLK2
  1

  9
$DIMSTYLE
  2
Standard
  9
$DIMCLRD
 70
     0
  9
$DIMCLRE
 70
     0
  9
$DIMCLRT
 70
     0
  9
$DIMTFAC
 40
1.0
  9
$DIMGAP
 40
0.09
  9
$DIMJUST
 70
     0
  9
$DIMSD1
 70
     0
  9
$DIMSD2
 70
     0
  9
$DIMTOLJ
 70
     1
  9
$DIMTZIN
 70
     0
  9
$DIMALTZ
 70
     0
  9
$DIMALTTZ
 70
     0
  9
$DIMUPT
 70
     0
  9
$DIMDEC
 70
     4
  9
$DIMTDEC
 70
     4
  9
$DIMALTU
 70
     2
  9
$DIMALTTD
 70
     2
  9
$DIMTXSTY
  7
Standard
  9
$DIMAUNIT
 70
     0
  9
$DIMADEC
 70
     0
  9
$DIMALTRND
 40
0.0
  9
$DIMAZIN
 70
     0
  9
$DIMDSEP
 70
    46
  9
$DIMATFIT
 70
     3
  9
$DIMFRAC
 70
     0
  9
$DIMLDRBLK
  1

  9
$DIMLUNIT
 70
     2
  9
$DIMLWD
 70
    -2
  9
$DIMLWE
 70
    -2
  9
$DIMTMOVE
 70
     0
  9
$LUNITS
 70
     2
  9
$LUPREC
 70
     4
  9
$SKETCHINC
 40
0.1
  9
$FILLETRAD
 40
0.5
  9
$AUNITS
 70
     0
  9
$AUPREC
 70
     0
  9
$MENU
  1
.
  9
$ELEVATION
 40
0.0
  9
$PELEVATION
 40
0.0
  9
$THICKNESS
 40
0.0
  9
$LIMCHECK
 70
     0
  9
$CHAMFERA
 40
0.0
  9
$CHAMFERB
 40
0.0
  9
$CHAMFERC
 40
0.0
  9
$CHAMFERD
 40
0.0
  9
$SKPOLY
 70
     0
  9
$TDCREATE
 40
2447893.041666667
  9
$TDUCREATE
 40
0.0
  9
$TDUPDATE
 40
2460160.00051941
  9
$TDUUPDATE
 40
2460159.958852743
  9
$TDINDWG
 40
0.0
  9
$TDUSRTIMER
 40
0.0
  9
$USRTIMER
 70
     1
  9
$ANGBASE
 50
0.0
  9
$ANGDIR
 70
     0
  9
$PDMODE
 70
     0
  9
$PDSIZE
 40
0.0
  9
$PLINEWID
 40
0.0
  9
$SPLFRAME
 70
     0
  9
$SPLINETYPE
 70
     6
  9
$SPLINESEGS
 70
     8
  9
$HANDSEED
  5
328
  9
$SURFTAB1
 70
     6
  9
$SURFTAB2
 70
     6
  9
$SURFTYPE
 70
     6
  9
$SURFU
 70
     6
  9
$SURFV
 70
     6
  9
$UCSBASE
  2

  9
$UCSNAME
  2

  9
$UCSORG
 10
0.0
 20
0.0
 30
0.0
  9
$UCSXDIR
 10
1.0
 20
0.0
 30
0.0
  9
$UCSYDIR
 10
0.0
 20
1.0
 30
0.0
  9
$UCSORTHOREF
  2

  9
$UCSORTHOVIEW
 70
     1
  9
$UCSORGTOP
 10
0.0
 20
0.0
 30
0.0
  9
$UCSORGBOTTOM
 10
0.0
 20
0.0
 30
0.0
  9
$UCSORGLEFT
 10
0.0
 20
0.0
 30
0.0
  9
$UCSORGRIGHT
 10
0.0
 20
0.0
 30
0.0
  9
$UCSORGFRONT
 10
0.0
 20
0.0
 30
0.0
  9
$UCSORGBACK
 10
0.0
 20
0.0
 30
0.0
  9
$PUCSBASE
  2

  9
$PUCSNAME
  2

  9
$PUCSORG
 10
0.0
 20
0.0
 30
0.0
  9
$PUCSXDIR
 10
1.0
 20
0.0
 30
0.0
  9
$PUCSYDIR
 10
0.0
 20
1.0
 30
0.0
  9
$PUCSORTHOREF
  2

  9
$PUCSORTHOVIEW
 70
     0
  9
$PUCSORGTOP
 10
0.0
 20
0.0
 30
0.0
  9
$PUCSORGBOTTOM
 10
0.0
 20
0.0
 30
0.0
  9
$PUCSORGLEFT
 10
0.0
 20
0.0
 30
0.0
  9
$PUCSORGRIGHT
 10
0.0
 20
0.0
 30
0.0
  9
$PUCSORGFRONT
 10
0.0
 20
0.0
 30
0.0
  9
$PUCSORGBACK
 10
0.0
 20
0.0
 30
0.0
  9
$USERI1
 70
     0
  9
$USERI2
 70
     0
  9
$USERI3
 70
     0
  9
$USERI4
 70
     0
  9
$USERI5
 70
     0
  9
$USERR1
 40
0.0
  9
$USERR2
 40
0.0
  9
$USERR3
 40
0.0
  9
$USERR4
 40
0.0
  9
$USERR5
 40
0.0
  9
$WORLDVIEW
 70
     1
  9
$SHADEDGE
 70
     3
  9
$SHADEDIF
 70
    70
  9
$TILEMODE
 70
     1
  9
$MAXACTVP
 70
    64
  9
$PINSBASE
 10
0.0
 20
0.0
 30
0.0
  9
$PLIMCHECK
 70
     0
  9
$PEXTMIN
 10
-35.0
 20
-299.0
 30
0.0
  9
$PEXTMAX
 10
153.933762
 20
0.0
 30
2.0
  9
$PLIMMIN
 10
0.0
 20
0.0
  9
$PLIMMAX
 10
12.0
 20
9.0
  9
$UNITMODE
 70
     0
  9
$VISRETAIN
 70
     0
  9
$PLINEGEN
 70
     0
  9
$PSLTSCALE
 70
     1
  9
$TREEDEPTH
 70
  3020
  9
$CMLSTYLE
  2
Standard
  9
$CMLJUST
 70
     0
  9
$CMLSCALE
 40
1.0
  9
$PROXYGRAPHICS
 70
     1
  9
$MEASUREMENT
 70
     1
  9
$CELWEIGHT
370
    -1
  9
$ENDCAPS
280
     0
  9
$JOINSTYLE
280
     0
  9
$LWDISPLAY
290
     0
  9
$INSUNITS
 70
     0
  9
$HYPERLINKBASE
  1

  9
$STYLESHEET
  1

  9
$XEDIT
290
     1
  9
$CEPSNTYPE
380
     0
  9
$PSTYLEMODE
290
     0
  9
$FINGERPRINTGUID
  2
{3BFEAE1A-7DDE-4F08-8C84-F7A3C98F8968}
  9
$VERSIONGUID
  2
{FAEB1C32-E019-11D5-929B-00C0DF256EC4}
  9
$EXTNAMES
290
     1
  9
$PSVPSCALE
 40
0.0
  9
$OLESTARTUP
290
     0
  0
ENDSEC
  0
SECTION
  2
CLASSES
  0
CLASS
  1
ACDBDICTIONARYWDFLT
  2
AcDbDictionaryWithDefault
  3
ObjectDBX Classes
 90
        0
280
     0
281
     0
  0
CLASS
  1
VISUALSTYLE
  2
AcDbVisualStyle
  3
ObjectDBX Classes
 90
     4095
280
     0
281
     0
  0
CLASS
  1
MATERIAL
  2
AcDbMaterial
  3
ObjectDBX Classes
 90
     1153
280
     0
281
     0
  0
CLASS
  1
SCALE
  2
AcDbScale
  3
ObjectDBX Classes
 90
     1153
280
     0
281
     0
  0
CLASS
  1
TABLESTYLE
  2
AcDbTableStyle
  3
ObjectDBX Classes
 90
     4095
280
     0
281
     0
  0
CLASS
  1
MLEADERSTYLE
  2
AcDbMLeaderStyle
  3
ACDB_MLEADERSTYLE_CLASS
 90
     4095
280
     0
281
     0
  0
CLASS
  1
SUN
  2
AcDbSun
  3
SCENEOE
 90
     1153
280
     0
281
     0
  0
CLASS
  1
ACDBPLACEHOLDER
  2
AcDbPlaceHolder
  3
ObjectDBX Classes
 90
        0
280
     0
281
     0
  0
CLASS
  1
LAYOUT
  2
AcDbLayout
  3
ObjectDBX Classes
 90
        0
280
     0
281
     0
  0
ENDSEC
  0
SECTION
  2
TABLES
  0
TABLE
  2
VPORT
  5
8
330
0
100
AcDbSymbolTable
 70
     1
  0
VPORT
  5
29
330
8
100
AcDbSymbolTableRecord
100
AcDbViewportTableRecord
  2
*Active
 70
     0
 10
0.0
 20
0.0
 11
1.0
 21
1.0
 12
10.429907
 22
4.5
 13
0.0
 23
0.0
 14
0.5
 24
0.5
 15
0.5
 25
0.5
 16
0.0
 26
0.0
 36
1.0
 17
0.0
 27
0.0
 37
0.0
 40
9.0
 41
1.972973
 42
50.0
 43
0.0
 44
0.0
 50
0.0
 51
0.0
 71
     0
 72
   100
 73
     1
 74
     3
 75
     0
 76
     0
 77
     0
 78
     0
281
     0
 65
     1
110
0.0
120
0.0
130
0.0
111
1.0
121
0.0
131
0.0
112
0.0
122
1.0
132
0.0
 79
     0
146
0.0
  0
ENDTAB
  0
TABLE
  2
LTYPE
  5
5
330
0
100
AcDbSymbolTable
 70
     8
  0
LTYPE
  5
14
330
5
100
AcDbSymbolTableRecord
100
AcDbLinetypeTableRecord
  2
ByBlock
 70
     0
  3

 72
    65
 73
     0
 40
0.0
  0
LTYPE
  5
15
330
5
100
AcDbSymbolTableRecord
100
AcDbLinetypeTableRecord
  2
ByLayer
 70
     0
  3

 72
    65
 73
     0
 40
0.0
  0
LTYPE
  5
16
330
5
100
AcDbSymbolTableRecord
100
AcDbLinetypeTableRecord
  2
Continuous
 70
     0
  3
Solid line
 72
    65
 73
     0
 40
0.0
  0
LTYPE
  5
6E
330
5
100
AcDbSymbolTableRecord
100
AcDbLinetypeTableRecord
  2
CONTINOUS
 70
     0
  3
Solid line
 72
    65
 73
     0
 40
0.0
  0
LTYPE
  5
6F
330
5
100
AcDbSymbolTableRecord
100
AcDbLinetypeTableRecord
  2
DASHSPACE
 70
     0
  3
__    __    __    __    __   
 72
    65
 73
     2
 40
30.0
 49
12.0
 74
     0
 49
-18.0
 74
     0
  0
LTYPE
  5
70
330
5
100
AcDbSymbolTableRecord
100
AcDbLinetypeTableRecord
  2
DASHED
 70
     0
  3
__ __ __ __ __ __ __ __ __ __ __ __ __ __ __ __
 72
    65
 73
     2
 40
15.0
 49
12.0
 74
     0
 49
-3.0
 74
     0
  0
LTYPE
  5
71
330
5
100
AcDbSymbolTableRecord
100
AcDbLinetypeTableRecord
  2
DASHDOT
 70
     0
  3
 __ . __ . __ . __ . __ . __ . __ . 
 72
    65
 73
     4
 40
18.5
 49
12.0
 74
     0
 49
-3.0
 74
     0
 49
0.5
 74
     0
 49
-3.0
 74
     0
  0
LTYPE
  5
72
330
5
100
AcDbSymbolTableRecord
100
AcDbLinetypeTableRecord
  2
PHANTOM
 70
     0
  3
____________    ____    ____   _
 72
    65
 73
     6
 40
20.0
 49
10.0
 74
     0
 49
-2.0
 74
     0
 49
2.0
 74
     0
 49
-2.0
 74
     0
 49
2.0
 74
     0
 49
-2.0
 74
     0
  0
LTYPE
  5
73
330
5
100
AcDbSymbolTableRecord
100
AcDbLinetypeTableRecord
  2
DOT
 70
     0
  3
 . . . . . . . . . . . . . . . .
 72
    65
 73
     2
 40
3.5
 49
0.5
 74
     0
 49
-3.0
 74
     0
  0
LTYPE
  5
74
330
5
100
AcDbSymbolTableRecord
100
AcDbLinetypeTableRecord
  2
AXES
 70
     0
  3
________  __  ________  __  _____
 72
    65
 73
     4
 40
24.0
 49
15.0
 74
     0
 49
-3.0
 74
     0
 49
3.0
 74
     0
 49
-3.0
 74
     0
  0
ENDTAB
  0
TABLE
  2
LAYER
  5
2
330
0
100
AcDbSymbolTable
 70
     1
  0
LAYER
  5
10
330
2
100
AcDbSymbolTableRecord
100
AcDbLayerTableRecord
  2
0
 70
     0
 62
     7
  6
Continuous
370
    -3
390
F
  0
ENDTAB
  0
TABLE
  2
STYLE
  5
3
330
0
100
AcDbSymbolTable
 70
     1
  0
STYLE
  5
11
330
3
100
AcDbSymbolTableRecord
100
AcDbTextStyleTableRecord
  2
Standard
 70
     0
 40
0.0
 41
1.0
 50
0.0
 71
     0
 42
0.2
  3
txt
  4

  0
ENDTAB
  0
TABLE
  2
VIEW
  5
6
330
0
100
AcDbSymbolTable
 70
     0
  0
ENDTAB
  0
TABLE
  2
UCS
  5
7
330
0
100
AcDbSymbolTable
 70
     0
  0
ENDTAB
  0
TABLE
  2
APPID
  5
9
330
0
100
AcDbSymbolTable
 70
     1
  0
APPID
  5
12
330
9
100
AcDbSymbolTableRecord
100
AcDbRegAppTableRecord
  2
ACAD
 70
     0
  0
ENDTAB
  0
TABLE
  2
DIMSTYLE
  5
A
330
0
100
AcDbSymbolTable
 70
     1
100
AcDbDimStyleTable
  0
DIMSTYLE
105
27
330
A
100
AcDbSymbolTableRecord
100
AcDbDimStyleTableRecord
  2
Standard
 70
     0
178
     0
340
11
  0
ENDTAB
  0
TABLE
  2
BLOCK_RECORD
  5
1
330
0
100
AcDbSymbolTable
 70
     1
  0
BLOCK_RECORD
  5
1F
330
1
100
AcDbSymbolTableRecord
100
AcDbBlockTableRecord
  2
*Model_Space
340
22
  0
BLOCK_RECORD
  5
1B
330
1
100
AcDbSymbolTableRecord
100
AcDbBlockTableRecord
  2
*Paper_Space
340
1E
  0
BLOCK_RECORD
  5
23
330
1
100
AcDbSymbolTableRecord
100
AcDbBlockTableRecord
  2
*Paper_Space0
340
26
  0
ENDTAB
  0
ENDSEC
  0
SECTION
  2
BLOCKS
  0
BLOCK
  5
20
330
1F
100
AcDbEntity
  8
0
100
AcDbBlockBegin
  2
*Model_Space
 70
     0
 10
0.0
 20
0.0
 30
0.0
  3
*Model_Space
  1

  0
ENDBLK
  5
21
330
1F
100
AcDbEntity
  8
0
100
AcDbBlockEnd
  0
BLOCK
  5
1C
330
1B
100
AcDbEntity
 67
     1
  8
0
100
AcDbBlockBegin
  2
*Paper_Space
 70
     0
 10
0.0
 20
0.0
 30
0.0
  3
*Paper_Space
  1

  0
ENDBLK
  5
1D
330
1B
100
AcDbEntity
 67
     1
  8
0
100
AcDbBlockEnd
  0
BLOCK
  5
24
330
23
100
AcDbEntity
  8
0
100
AcDbBlockBegin
  2
*Paper_Space0
 70
     0
 10
0.0
 20
0.0
 30
0.0
  3
*Paper_Space0
  1

  0
ENDBLK
  5
25
330
23
100
AcDbEntity
  8
0
100
AcDbBlockEnd
  0
ENDSEC
  0
SECTION
  2
ENTITIES
  0
ARC
  5
75
330
1F
100
AcDbEntity
  8
0
 62
     7
370
    35
100
AcDbCircle
 10
-30.0
 20
-5.0
 30
0.0
 40
5.0
100
AcDbArc
 50
90.0
 51
180.0
  0
LINE
  5
76
330
1F
100
AcDbEntity
  8
0
 62
     7
370
    35
100
AcDbLine
 10
-35.0
 20
-294.0
 30
0.0
 11
-35.0
 21
-5.0
 31
0.0
  0
ARC
  5
77
330
1F
100
AcDbEntity
  8
0
 62
     7
370
    35
100
AcDbCircle
 10
-30.0
 20
-294.0
 30
0.0
 40
4.999999999999945
100
AcDbArc
 50
180.0
 51
270.0
  0
LINE
  5
78
330
1F
100
AcDbEntity
  8
0
 62
     7
370
    35
100
AcDbLine
 10
-30.0
 20
-299.0
 30
0.0
 11
148.93376
 21
-299.0
 31
0.0
  0
ARC
  5
79
330
1F
100
AcDbEntity
  8
0
 62
     7
370
    35
100
AcDbCircle
 10
148.93376
 20
-294.0
 30
0.0
 40
5.00000000000002
100
AcDbArc
 50
270.0
 51
0.0
  0
LINE
  5
7A
330
1F
100
AcDbEntity
  8
0
 62
     7
370
    35
100
AcDbLine
 10
153.93376
 20
-5.0
 30
0.0
 11
153.93376
 21
-294.0
 31
0.0
  0
ARC
  5
7B
330
1F
100
AcDbEntity
  8
0
 62
     7
370
    35
100
AcDbCircle
 10
148.93376
 20
-5.0
 30
0.0
 40
5.00000000000002
100
AcDbArc
 50
360.0
 51
90.0
  0
LINE
  5
7C
330
1F
100
AcDbEntity
  8
0
 62
     7
370
    35
100
AcDbLine
 10
148.93376
 20
0.0
 30
0.0
 11
-30.0
 21
0.0
 31
0.0
  0
ARC
  5
7D
330
1F
100
AcDbEntity
  8
0
 62
     7
370
    35
100
AcDbCircle
 10
61.560675
 20
-90.47263
 30
0.0
 40
0.3057195339169385
100
AcDbArc
 50
85.356658
 51
142.565096
  0
LINE
  5
7E
330
1F
100
AcDbEntity
  8
0
 62
     7
 48
0.085451
370
    35
100
AcDbLine
 10
61.585424
 20
-90.167914
 30
0.0
 11
65.003462
 21
-90.167914
 31
0.0
  0
LINE
  5
7F
330
1F
100
AcDbEntity
  8
0
 62
     7
 48
0.39725
370
    35
100
AcDbLine
 10
65.003462
 20
-90.167914
 30
0.0
 11
70.858711
 21
-104.939785
 31
0.0
  0
LINE
  5
80
330
1F
100
AcDbEntity
  8
0
 62
     7
 48
0.128548
370
    35
100
AcDbLine
 10
70.858711
 20
-104.939785
 30
0.0
 11
76.00063
 21
-104.939785
 31
0.0
  0
LINE
  5
81
330
1F
100
AcDbEntity
  8
0
 62
     7
 48
0.38621
370
    35
100
AcDbLine
 10
76.00063
 20
-104.939785
 30
0.0
 11
70.293992
 21
-90.584023
 31
0.0
  0
ARC
  5
82
330
1F
100
AcDbEntity
  8
0
 62
     7
370
    35
100
AcDbCircle
 10
70.592037
 20
-90.449943
 30
0.0
 40
0.3268149750664921
100
AcDbArc
 50
150.053914
 51
204.221275
  0
ARC
  5
83
330
1F
100
AcDbEntity
  8
0
 62
     7
370
    35
100
AcDbCircle
 10
70.566958
 20
-90.505055
 30
0.0
 40
0.3380131517350055
100
AcDbArc
 50
85.885139
 51
139.782169
  0
LINE
  5
84
330
1F
100
AcDbEntity
  8
0
 62
     7
 48
0.083222
370
    35
100
AcDbLine
 10
70.591213
 20
-90.167914
 30
0.0
 11
73.920085
 21
-90.167914
 31
0.0
  0
ARC
  5
85
330
1F
100
AcDbEntity
  8
0
 62
     7
370
    35
100
AcDbCircle
 10
73.924339
 20
-90.286084
 30
0.0
 40
0.1182470549562447
100
AcDbArc
 50
14.198712
 51
92.061493
  0
LINE
  5
86
330
1F
100
AcDbEntity
  8
0
 62
     7
 48
0.394904
370
    35
100
AcDbLine
 10
74.038973
 20
-90.25708
 30
0.0
 11
79.8645
 21
-104.939785
 31
0.0
  0
LINE
  5
87
330
1F
100
AcDbEntity
  8
0
 62
     7
 48
0.130034
370
    35
100
AcDbLine
 10
79.8645
 20
-104.939785
 30
0.0
 11
85.065863
 21
-104.939785
 31
0.0
  0
LINE
  5
88
330
1F
100
AcDbEntity
  8
0
 62
     7
 48
0.395454
370
    35
100
AcDbLine
 10
85.065863
 20
-104.939785
 30
0.0
 11
79.180892
 21
-90.25708
 31
0.0
  0
ARC
  5
89
330
1F
100
AcDbEntity
  8
0
 62
     7
370
    35
100
AcDbCircle
 10
-24.129179
 20
-66.217193
 30
0.0
 40
106.0701980881314
100
AcDbArc
 50
346.900589
 51
348.322484
  0
ARC
  5
8A
330
1F
100
AcDbEntity
  8
0
 62
     7
370
    35
100
AcDbCircle
 10
163.698489
 20
-104.779136
 30
0.0
 40
85.67529876675741
100
AcDbArc
 50
166.731337
 51
168.491737
  0
LINE
  5
8B
330
1F
100
AcDbEntity
  8
0
 62
     7
370
    35
100
AcDbLine
 10
80.310331
 20
-85.115161
 30
0.0
 11
58.67266
 21
-85.115161
 31
0.0
  0
ARC
  5
8C
330
1F
100
AcDbEntity
  8
0
 62
     7
370
    35
100
AcDbCircle
 10
58.384908
 20
-87.9683
 30
0.0
 40
2.86761287691536
100
AcDbArc
 50
84.240933
 51
149.136667
  0
ARC
  5
8D
330
1F
100
AcDbEntity
  8
0
 62
     7
370
    35
100
AcDbCircle
 10
59.363411
 20
-88.200822
 30
0.0
 40
3.838762178204939
100
AcDbArc
 50
153.654385
 51
204.804118
  0
ARC
  5
8E
330
1F
100
AcDbEntity
  8
0
 62
     7
370
    35
100
AcDbCircle
 10
60.241236
 20
-88.310937
 30
0.0
 40
4.613232259148723
100
AcDbArc
 50
198.97886
 51
202.133231
  0
ARC
  5
8F
330
1F
100
AcDbEntity
  8
0
 62
     7
370
    35
100
AcDbCircle
 10
58.974485
 20
-88.883645
 30
0.0
 40
3.224493512021362
100
AcDbArc
 50
201.187121
 51
205.21006
  0
LINE
  5
90
330
1F
100
AcDbEntity
  8
0
 62
     7
 48
0.394904
370
    35
100
AcDbLine
 10
56.057118
 20
-90.25708
 30
0.0
 11
61.882644
 21
-104.939785
 31
0.0
  0
LINE
  5
91
330
1F
100
AcDbEntity
  8
0
 62
     7
 48
0.128548
370
    35
100
AcDbLine
 10
61.882644
 20
-104.939785
 30
0.0
 11
67.024563
 21
-104.939785
 31
0.0
  0
LINE
  5
92
330
1F
100
AcDbEntity
  8
0
 62
     7
 48
0.38621
370
    35
100
AcDbLine
 10
67.024563
 20
-104.939785
 30
0.0
 11
61.317925
 21
-90.584023
 31
0.0
  0
ARC
  5
93
330
1F
100
AcDbEntity
  8
0
 62
     7
370
    35
100
AcDbCircle
 10
61.529288
 20
-90.435405
 30
0.0
 40
0.2583825589780374
100
AcDbArc
 50
144.889489
 51
215.112484
  0
ARC
  5
94
330
1F
100
AcDbEntity
  8
0
 62
     7
370
    35
100
AcDbCircle
 10
40.814907
 20
-90.461197
 30
0.0
 40
0.2990955529207637
100
AcDbArc
 50
144.332796
 51
204.246018
  0
ARC
  5
95
330
1F
100
AcDbEntity
  8
0
 62
     7
370
    35
100
AcDbCircle
 10
40.803617
 20
-90.452982
 30
0.0
 40
0.2851335766769893
100
AcDbArc
 50
88.778982
 51
144.351121
  0
LINE
  5
96
330
1F
100
AcDbEntity
  8
0
 62
     7
 48
0.268242
370
    35
100
AcDbLine
 10
40.809693
 20
-90.167914
 30
0.0
 11
51.539362
 21
-90.167914
 31
0.0
  0
ARC
  5
97
330
1F
100
AcDbEntity
  8
0
 62
     7
370
    35
100
AcDbCircle
 10
-45.722202
 20
-66.931677
 30
0.0
 40
99.99867245097782
100
AcDbArc
 50
346.563624
 51
349.523207
  0
LINE
  5
98
330
1F
100
AcDbEntity
  8
0
 62
     7
 48
0.420567
370
    35
100
AcDbLine
 10
52.609357
 20
-85.115161
 30
0.0
 11
35.786662
 21
-85.115161
 31
0.0
  0
ARC
  5
99
330
1F
100
AcDbEntity
  8
0
 62
     7
370
    35
100
AcDbCircle
 10
35.638777
 20
-86.661105
 30
0.0
 40
1.553001117550699
100
AcDbArc
 50
84.535695
 51
149.507607
  0
ARC
  5
9A
330
1F
100
AcDbEntity
  8
0
 62
     7
370
    35
100
AcDbCircle
 10
36.000689
 20
-86.814917
 30
0.0
 40
1.943579720717851
100
AcDbArc
 50
151.014301
 51
207.122422
  0
ARC
  5
9B
330
1F
100
AcDbEntity
  8
0
 62
     7
370
    35
100
AcDbCircle
 10
307.317503
 20
17.185405
 30
0.0
 40
292.4989512511655
100
AcDbArc
 50
201.013458
 51
201.763788
  0
ARC
  5
9C
330
1F
100
AcDbEntity
  8
0
 62
     7
370
    35
100
AcDbCircle
 10
-194.025289
 20
-187.139869
 30
0.0
 40
248.8983517410217
100
AcDbArc
 50
21.768454
 51
22.655307
  0
ARC
  5
9D
330
1F
100
AcDbEntity
  8
0
 62
     7
370
    35
100
AcDbCircle
 10
41.005429
 20
-93.039969
 30
0.0
 40
4.275957171206747
100
AcDbArc
 50
204.811087
 51
225.080001
  0
ARC
  5
9E
330
1F
100
AcDbEntity
  8
0
 62
     7
370
    35
100
AcDbCircle
 10
41.262818
 20
-92.902052
 30
0.0
 40
4.556152171852342
100
AcDbArc
 50
224.012662
 51
243.772442
  0
ARC
  5
9F
330
1F
100
AcDbEntity
  8
0
 62
     7
370
    35
100
AcDbCircle
 10
40.636705
 20
-94.34598
 30
0.0
 40
2.985159343672267
100
AcDbArc
 50
242.304474
 51
269.326929
  0
LINE
  5
A0
330
1F
100
AcDbEntity
  8
0
 62
     7
 48
0.214742
370
    35
100
AcDbLine
 10
40.601638
 20
-97.330934
 30
0.0
 11
49.191318
 21
-97.330934
 31
0.0
  0
LINE
  5
A1
330
1F
100
AcDbEntity
  8
0
 62
     7
 48
0.204764
370
    35
100
AcDbLine
 10
49.191318
 20
-97.330934
 30
0.0
 11
52.22297
 21
-104.939785
 31
0.0
  0
LINE
  5
A2
330
1F
100
AcDbEntity
  8
0
 62
     7
 48
0.128548
370
    35
100
AcDbLine
 10
52.22297
 20
-104.939785
 30
0.0
 11
57.364889
 21
-104.939785
 31
0.0
  0
LINE
  5
A3
330
1F
100
AcDbEntity
  8
0
 62
     7
 48
0.330881
370
    35
100
AcDbLine
 10
57.364889
 20
-104.939785
 30
0.0
 11
52.490469
 21
-92.634846
 31
0.0
  0
LINE
  5
A4
330
1F
100
AcDbEntity
  8
0
 62
     7
 48
0.266756
370
    35
100
AcDbLine
 10
52.490469
 20
-92.634846
 30
0.0
 11
41.820243
 21
-92.634846
 31
0.0
  0
ARC
  5
A5
330
1F
100
AcDbEntity
  8
0
 62
     7
370
    35
100
AcDbCircle
 10
41.826474
 20
-92.10465
 30
0.0
 40
0.5302329049943364
100
AcDbArc
 50
242.600756
 51
269.326757
  0
ARC
  5
A6
330
1F
100
AcDbEntity
  8
0
 62
     7
370
    35
100
AcDbCircle
 10
41.974053
 20
-91.807698
 30
0.0
 40
0.8618055718065721
100
AcDbArc
 50
224.517258
 51
242.975066
  0
ARC
  5
A7
330
1F
100
AcDbEntity
  8
0
 62
     7
370
    35
100
AcDbCircle
 10
42.274579
 20
-91.471919
 30
0.0
 40
1.311829761919729
100
AcDbArc
 50
214.700881
 51
225.771588
  0
ARC
  5
A8
330
1F
100
AcDbEntity
  8
0
 62
     7
370
    35
100
AcDbCircle
 10
34.688701
 20
-94.294873
 30
0.0
 40
6.830542463008483
100
AcDbArc
 50
17.694967
 51
25.200508
  0
ARC
  5
A9
330
1F
100
AcDbEntity
  8
0
 62
     7
370
    35
100
AcDbCircle
 10
48.830759
 20
-87.675052
 30
0.0
 40
8.784213821725068
100
AcDbArc
 50
199.339133
 51
204.993476
  0
LINE
  5
AA
330
1F
100
AcDbEntity
  8
0
 62
     7
 48
0.110566
370
    35
100
AcDbLine
 10
87.307261
 20
-33.269873
 30
0.0
 11
89.518586
 21
-37.1
 31
0.0
  0
ARC
  5
AB
330
1F
100
AcDbEntity
  8
0
 62
     7
370
    35
100
AcDbCircle
 10
89.085352
 20
-37.35
 30
0.0
 40
0.500191494496888
100
AcDbArc
 50
330.012664
 51
29.987336
  0
LINE
  5
AC
330
1F
100
AcDbEntity
  8
0
 62
     7
 48
0.110566
370
    35
100
AcDbLine
 10
87.307261
 20
-41.430127
 30
0.0
 11
89.518586
 21
-37.6
 31
0.0
  0
ARC
  5
AD
330
1F
100
AcDbEntity
  8
0
 62
     7
370
    35
100
AcDbCircle
 10
86.874138
 20
-41.179936
 30
0.0
 40
0.5001914944954695
100
AcDbArc
 50
270.012664
 51
329.987336
  0
LINE
  5
AE
330
1F
100
AcDbEntity
  8
0
 62
     7
 48
0.110566
370
    35
100
AcDbLine
 10
82.451599
 20
-41.680127
 30
0.0
 11
86.874248
 21
-41.680127
 31
0.0
  0
ARC
  5
AF
330
1F
100
AcDbEntity
  8
0
 62
     7
370
    35
100
AcDbCircle
 10
82.451709
 20
-41.179936
 30
0.0
 40
0.5001914944972085
100
AcDbArc
 50
210.012664
 51
269.987336
  0
LINE
  5
B0
330
1F
100
AcDbEntity
  8
0
 62
     7
 48
0.110566
370
    35
100
AcDbLine
 10
79.807261
 20
-37.6
 30
0.0
 11
82.018586
 21
-41.430127
 31
0.0
  0
ARC
  5
B1
330
1F
100
AcDbEntity
  8
0
 62
     7
370
    35
100
AcDbCircle
 10
80.240495
 20
-37.35
 30
0.0
 40
0.5001914944938722
100
AcDbArc
 50
150.012664
 51
209.987336
  0
LINE
  5
B2
330
1F
100
AcDbEntity
  8
0
 62
     7
 48
0.110566
370
    35
100
AcDbLine
 10
79.807261
 20
-37.1
 30
0.0
 11
82.018586
 21
-33.269873
 31
0.0
  0
ARC
  5
B3
330
1F
100
AcDbEntity
  8
0
 62
     7
370
    35
100
AcDbCircle
 10
82.451709
 20
-33.520064
 30
0.0
 40
0.5001914944974358
100
AcDbArc
 50
90.012664
 51
149.987336
  0
LINE
  5
B4
330
1F
100
AcDbEntity
  8
0
 62
     7
 48
0.110566
370
    35
100
AcDbLine
 10
82.451599
 20
-33.019873
 30
0.0
 11
86.874248
 21
-33.019873
 31
0.0
  0
ARC
  5
B5
330
1F
100
AcDbEntity
  8
0
 62
     7
370
    35
100
AcDbCircle
 10
86.874138
 20
-33.520064
 30
0.0
 40
0.5001914944975275
100
AcDbArc
 50
30.012664
 51
89.987336
  0
LINE
  5
B6
330
1F
100
AcDbEntity
  8
0
 62
     7
 48
0.110566
370
    35
100
AcDbLine
 10
79.807261
 20
-50.292923
 30
0.0
 11
82.018586
 21
-46.462796
 31
0.0
  0
ARC
  5
B7
330
1F
100
AcDbEntity
  8
0
 62
     7
370
    35
100
AcDbCircle
 10
82.451709
 20
-46.712987
 30
0.0
 40
0.500191494497474
100
AcDbArc
 50
90.012664
 51
149.987336
  0
LINE
  5
B8
330
1F
100
AcDbEntity
  8
0
 62
     7
 48
0.110566
370
    35
100
AcDbLine
 10
82.451599
 20
-46.212796
 30
0.0
 11
86.874248
 21
-46.212796
 31
0.0
  0
ARC
  5
B9
330
1F
100
AcDbEntity
  8
0
 62
     7
370
    35
100
AcDbCircle
 10
86.874138
 20
-46.712987
 30
0.0
 40
0.500191494497083
100
AcDbArc
 50
30.012664
 51
89.987336
  0
LINE
  5
BA
330
1F
100
AcDbEntity
  8
0
 62
     7
 48
0.110566
370
    35
100
AcDbLine
 10
87.307261
 20
-46.462796
 30
0.0
 11
89.518586
 21
-50.292923
 31
0.0
  0
ARC
  5
BB
330
1F
100
AcDbEntity
  8
0
 62
     7
370
    35
100
AcDbCircle
 10
89.085352
 20
-50.542923
 30
0.0
 40
0.5001914944900152
100
AcDbArc
 50
330.012664
 51
29.987336
  0
LINE
  5
BC
330
1F
100
AcDbEntity
  8
0
 62
     7
 48
0.110566
370
    35
100
AcDbLine
 10
87.307261
 20
-54.62305
 30
0.0
 11
89.518586
 21
-50.792923
 31
0.0
  0
ARC
  5
BD
330
1F
100
AcDbEntity
  8
0
 62
     7
370
    35
100
AcDbCircle
 10
86.874138
 20
-54.372858
 30
0.0
 40
0.5001914945055026
100
AcDbArc
 50
270.012664
 51
329.987336
  0
LINE
  5
BE
330
1F
100
AcDbEntity
  8
0
 62
     7
 48
0.110566
370
    35
100
AcDbLine
 10
82.451599
 20
-54.87305
 30
0.0
 11
86.874248
 21
-54.87305
 31
0.0
  0
ARC
  5
BF
330
1F
100
AcDbEntity
  8
0
 62
     7
370
    35
100
AcDbCircle
 10
82.451709
 20
-54.372858
 30
0.0
 40
0.5001914944878904
100
AcDbArc
 50
210.012664
 51
269.987336
  0
LINE
  5
C0
330
1F
100
AcDbEntity
  8
0
 62
     7
 48
0.110566
370
    35
100
AcDbLine
 10
79.807261
 20
-50.792923
 30
0.0
 11
82.018586
 21
-54.62305
 31
0.0
  0
ARC
  5
C1
330
1F
100
AcDbEntity
  8
0
 62
     7
370
    35
100
AcDbCircle
 10
80.240495
 20
-50.542923
 30
0.0
 40
0.5001914944931558
100
AcDbArc
 50
150.012664
 51
209.987336
  0
LINE
  5
C2
330
1F
100
AcDbEntity
  8
0
 62
     7
 48
0.110566
370
    35
100
AcDbLine
 10
79.807261
 20
-63.485845
 30
0.0
 11
82.018586
 21
-59.655718
 31
0.0
  0
ARC
  5
C3
330
1F
100
AcDbEntity
  8
0
 62
     7
370
    35
100
AcDbCircle
 10
82.451709
 20
-59.90591
 30
0.0
 40
0.5001914944887835
100
AcDbArc
 50
90.012664
 51
149.987336
  0
LINE
  5
C4
330
1F
100
AcDbEntity
  8
0
 62
     7
 48
0.110566
370
    35
100
AcDbLine
 10
82.451599
 20
-59.405718
 30
0.0
 11
86.874248
 21
-59.405718
 31
0.0
  0
ARC
  5
C5
330
1F
100
AcDbEntity
  8
0
 62
     7
370
    35
100
AcDbCircle
 10
86.874138
 20
-59.90591
 30
0.0
 40
0.5001914945001981
100
AcDbArc
 50
30.012664
 51
89.987336
  0
LINE
  5
C6
330
1F
100
AcDbEntity
  8
0
 62
     7
 48
0.110566
370
    35
100
AcDbLine
 10
87.307261
 20
-59.655718
 30
0.0
 11
89.518586
 21
-63.485845
 31
0.0
  0
ARC
  5
C7
330
1F
100
AcDbEntity
  8
0
 62
     7
370
    35
100
AcDbCircle
 10
89.085352
 20
-63.735845
 30
0.0
 40
0.500191494495765
100
AcDbArc
 50
330.012664
 51
29.987336
  0
LINE
  5
C8
330
1F
100
AcDbEntity
  8
0
 62
     7
 48
0.110566
370
    35
100
AcDbLine
 10
87.307261
 20
-67.815972
 30
0.0
 11
89.518586
 21
-63.985845
 31
0.0
  0
ARC
  5
C9
330
1F
100
AcDbEntity
  8
0
 62
     7
370
    35
100
AcDbCircle
 10
86.874138
 20
-67.565781
 30
0.0
 40
0.5001914944961928
100
AcDbArc
 50
270.012664
 51
329.987336
  0
LINE
  5
CA
330
1F
100
AcDbEntity
  8
0
 62
     7
 48
0.110566
370
    35
100
AcDbLine
 10
82.451599
 20
-68.065972
 30
0.0
 11
86.874248
 21
-68.065972
 31
0.0
  0
ARC
  5
CB
330
1F
100
AcDbEntity
  8
0
 62
     7
370
    35
100
AcDbCircle
 10
82.451709
 20
-67.565781
 30
0.0
 40
0.5001914944954946
100
AcDbArc
 50
210.012664
 51
269.987336
  0
LINE
  5
CC
330
1F
100
AcDbEntity
  8
0
 62
     7
 48
0.110566
370
    35
100
AcDbLine
 10
79.807261
 20
-63.985845
 30
0.0
 11
82.018586
 21
-67.815972
 31
0.0
  0
ARC
  5
CD
330
1F
100
AcDbEntity
  8
0
 62
     7
370
    35
100
AcDbCircle
 10
80.240495
 20
-63.735845
 30
0.0
 40
0.5001914944925365
100
AcDbArc
 50
150.012664
 51
209.987336
  0
LINE
  5
CE
330
1F
100
AcDbEntity
  8
0
 62
     7
 48
0.110566
370
    35
100
AcDbLine
 10
79.807261
 20
-129.450459
 30
0.0
 11
82.018586
 21
-125.620332
 31
0.0
  0
ARC
  5
CF
330
1F
100
AcDbEntity
  8
0
 62
     7
370
    35
100
AcDbCircle
 10
82.451709
 20
-125.870523
 30
0.0
 40
0.5001914944938224
100
AcDbArc
 50
90.012664
 51
149.987336
  0
LINE
  5
D0
330
1F
100
AcDbEntity
  8
0
 62
     7
 48
0.110566
370
    35
100
AcDbLine
 10
82.451599
 20
-125.370332
 30
0.0
 11
86.874248
 21
-125.370332
 31
0.0
  0
ARC
  5
D1
330
1F
100
AcDbEntity
  8
0
 62
     7
370
    35
100
AcDbCircle
 10
86.874138
 20
-125.870523
 30
0.0
 40
0.5001914944938494
100
AcDbArc
 50
30.012664
 51
89.987336
  0
LINE
  5
D2
330
1F
100
AcDbEntity
  8
0
 62
     7
 48
0.110566
370
    35
100
AcDbLine
 10
87.307261
 20
-125.620332
 30
0.0
 11
89.518586
 21
-129.450459
 31
0.0
  0
ARC
  5
D3
330
1F
100
AcDbEntity
  8
0
 62
     7
370
    35
100
AcDbCircle
 10
89.085352
 20
-129.700459
 30
0.0
 40
0.5001914944958191
100
AcDbArc
 50
330.012664
 51
29.987336
  0
LINE
  5
D4
330
1F
100
AcDbEntity
  8
0
 62
     7
 48
0.110566
370
    35
100
AcDbLine
 10
87.307261
 20
-133.780586
 30
0.0
 11
89.518586
 21
-129.950459
 31
0.0
  0
ARC
  5
D5
330
1F
100
AcDbEntity
  8
0
 62
     7
370
    35
100
AcDbCircle
 10
86.874138
 20
-133.530394
 30
0.0
 40
0.5001914944940665
100
AcDbArc
 50
270.012664
 51
329.987336
  0
LINE
  5
D6
330
1F
100
AcDbEntity
  8
0
 62
     7
 48
0.110566
370
    35
100
AcDbLine
 10
82.451599
 20
-134.030586
 30
0.0
 11
86.874248
 21
-134.030586
 31
0.0
  0
ARC
  5
D7
330
1F
100
AcDbEntity
  8
0
 62
     7
370
    35
100
AcDbCircle
 10
82.451709
 20
-133.530394
 30
0.0
 40
0.5001914944954673
100
AcDbArc
 50
210.012664
 51
269.987336
  0
LINE
  5
D8
330
1F
100
AcDbEntity
  8
0
 62
     7
 48
0.110566
370
    35
100
AcDbLine
 10
79.807261
 20
-129.950459
 30
0.0
 11
82.018586
 21
-133.780586
 31
0.0
  0
ARC
  5
D9
330
1F
100
AcDbEntity
  8
0
 62
     7
370
    35
100
AcDbCircle
 10
80.240495
 20
-129.700459
 30
0.0
 40
0.5001914944914215
100
AcDbArc
 50
150.012664
 51
209.987336
  0
LINE
  5
DA
330
1F
100
AcDbEntity
  8
0
 62
     7
 48
0.110566
370
    35
100
AcDbLine
 10
79.807261
 20
-142.643382
 30
0.0
 11
82.018586
 21
-138.813255
 31
0.0
  0
ARC
  5
DB
330
1F
100
AcDbEntity
  8
0
 62
     7
370
    35
100
AcDbCircle
 10
82.451709
 20
-139.063446
 30
0.0
 40
0.500191494492371
100
AcDbArc
 50
90.012664
 51
149.987336
  0
LINE
  5
DC
330
1F
100
AcDbEntity
  8
0
 62
     7
 48
0.110566
370
    35
100
AcDbLine
 10
82.451599
 20
-138.563255
 30
0.0
 11
86.874248
 21
-138.563255
 31
0.0
  0
ARC
  5
DD
330
1F
100
AcDbEntity
  8
0
 62
     7
370
    35
100
AcDbCircle
 10
86.874138
 20
-139.063446
 30
0.0
 40
0.5001914944929969
100
AcDbArc
 50
30.012664
 51
89.987336
  0
LINE
  5
DE
330
1F
100
AcDbEntity
  8
0
 62
     7
 48
0.110566
370
    35
100
AcDbLine
 10
87.307261
 20
-138.813255
 30
0.0
 11
89.518586
 21
-142.643382
 31
0.0
  0
ARC
  5
DF
330
1F
100
AcDbEntity
  8
0
 62
     7
370
    35
100
AcDbCircle
 10
89.085352
 20
-142.893382
 30
0.0
 40
0.5001914944924402
100
AcDbArc
 50
330.012664
 51
29.987336
  0
LINE
  5
E0
330
1F
100
AcDbEntity
  8
0
 62
     7
 48
0.110566
370
    35
100
AcDbLine
 10
87.307261
 20
-146.973509
 30
0.0
 11
89.518586
 21
-143.143382
 31
0.0
  0
ARC
  5
E1
330
1F
100
AcDbEntity
  8
0
 62
     7
370
    35
100
AcDbCircle
 10
86.874138
 20
-146.723317
 30
0.0
 40
0.5001914945003831
100
AcDbArc
 50
270.012664
 51
329.987336
  0
LINE
  5
E2
330
1F
100
AcDbEntity
  8
0
 62
     7
 48
0.110566
370
    35
100
AcDbLine
 10
82.451599
 20
-147.223509
 30
0.0
 11
86.874248
 21
-147.223509
 31
0.0
  0
ARC
  5
E3
330
1F
100
AcDbEntity
  8
0
 62
     7
370
    35
100
AcDbCircle
 10
82.451709
 20
-146.723317
 30
0.0
 40
0.5001914944918243
100
AcDbArc
 50
210.012664
 51
269.987336
  0
LINE
  5
E4
330
1F
100
AcDbEntity
  8
0
 62
     7
 48
0.110566
370
    35
100
AcDbLine
 10
79.807261
 20
-143.143382
 30
0.0
 11
82.018586
 21
-146.973509
 31
0.0
  0
ARC
  5
E5
330
1F
100
AcDbEntity
  8
0
 62
     7
370
    35
100
AcDbCircle
 10
80.240495
 20
-142.893382
 30
0.0
 40
0.5001914944996806
100
AcDbArc
 50
150.012664
 51
209.987336
  0
LINE
  5
E6
330
1F
100
AcDbEntity
  8
0
 62
     7
 48
0.110566
370
    35
100
AcDbLine
 10
79.807261
 20
-155.836304
 30
0.0
 11
82.018586
 21
-152.006177
 31
0.0
  0
ARC
  5
E7
330
1F
100
AcDbEntity
  8
0
 62
     7
370
    35
100
AcDbCircle
 10
82.451709
 20
-152.256369
 30
0.0
 40
0.5001914944908914
100
AcDbArc
 50
90.012664
 51
149.987336
  0
LINE
  5
E8
330
1F
100
AcDbEntity
  8
0
 62
     7
 48
0.110566
370
    35
100
AcDbLine
 10
82.451599
 20
-151.756177
 30
0.0
 11
86.874248
 21
-151.756177
 31
0.0
  0
ARC
  5
E9
330
1F
100
AcDbEntity
  8
0
 62
     7
370
    35
100
AcDbCircle
 10
86.874138
 20
-152.256369
 30
0.0
 40
0.5001914944954899
100
AcDbArc
 50
30.012664
 51
89.987336
  0
LINE
  5
EA
330
1F
100
AcDbEntity
  8
0
 62
     7
 48
0.110566
370
    35
100
AcDbLine
 10
87.307261
 20
-152.006177
 30
0.0
 11
89.518586
 21
-155.836304
 31
0.0
  0
ARC
  5
EB
330
1F
100
AcDbEntity
  8
0
 62
     7
370
    35
100
AcDbCircle
 10
89.085352
 20
-156.086304
 30
0.0
 40
0.5001914944956941
100
AcDbArc
 50
330.012664
 51
29.987336
  0
LINE
  5
EC
330
1F
100
AcDbEntity
  8
0
 62
     7
 48
0.110566
370
    35
100
AcDbLine
 10
87.307261
 20
-160.166431
 30
0.0
 11
89.518586
 21
-156.336304
 31
0.0
  0
ARC
  5
ED
330
1F
100
AcDbEntity
  8
0
 62
     7
370
    35
100
AcDbCircle
 10
86.874138
 20
-159.91624
 30
0.0
 40
0.5001914944894484
100
AcDbArc
 50
270.012664
 51
329.987336
  0
LINE
  5
EE
330
1F
100
AcDbEntity
  8
0
 62
     7
 48
0.110566
370
    35
100
AcDbLine
 10
82.451599
 20
-160.416431
 30
0.0
 11
86.874248
 21
-160.416431
 31
0.0
  0
ARC
  5
EF
330
1F
100
AcDbEntity
  8
0
 62
     7
370
    35
100
AcDbCircle
 10
82.451709
 20
-159.91624
 30
0.0
 40
0.500191494495588
100
AcDbArc
 50
210.012664
 51
269.987336
  0
LINE
  5
F0
330
1F
100
AcDbEntity
  8
0
 62
     7
 48
0.110566
370
    35
100
AcDbLine
 10
79.807261
 20
-156.336304
 30
0.0
 11
82.018586
 21
-160.166431
 31
0.0
  0
ARC
  5
F1
330
1F
100
AcDbEntity
  8
0
 62
     7
370
    35
100
AcDbCircle
 10
80.240495
 20
-156.086304
 30
0.0
 40
0.500191494491835
100
AcDbArc
 50
150.012664
 51
209.987336
  0
LINE
  5
F2
330
1F
100
AcDbEntity
  8
0
 62
     7
 48
0.110566
370
    35
100
AcDbLine
 10
79.807261
 20
-182.22215
 30
0.0
 11
82.018586
 21
-178.392023
 31
0.0
  0
ARC
  5
F3
330
1F
100
AcDbEntity
  8
0
 62
     7
370
    35
100
AcDbCircle
 10
82.451709
 20
-178.642214
 30
0.0
 40
0.5001914944874489
100
AcDbArc
 50
90.012664
 51
149.987336
  0
LINE
  5
F4
330
1F
100
AcDbEntity
  8
0
 62
     7
 48
0.110566
370
    35
100
AcDbLine
 10
82.451599
 20
-178.142023
 30
0.0
 11
86.874248
 21
-178.142023
 31
0.0
  0
ARC
  5
F5
330
1F
100
AcDbEntity
  8
0
 62
     7
370
    35
100
AcDbCircle
 10
86.874138
 20
-178.642214
 30
0.0
 40
0.5001914944953509
100
AcDbArc
 50
30.012664
 51
89.987336
  0
LINE
  5
F6
330
1F
100
AcDbEntity
  8
0
 62
     7
 48
0.110566
370
    35
100
AcDbLine
 10
87.307261
 20
-178.392023
 30
0.0
 11
89.518586
 21
-182.22215
 31
0.0
  0
ARC
  5
F7
330
1F
100
AcDbEntity
  8
0
 62
     7
370
    35
100
AcDbCircle
 10
89.085352
 20
-182.47215
 30
0.0
 40
0.5001914944922823
100
AcDbArc
 50
330.012664
 51
29.987336
  0
LINE
  5
F8
330
1F
100
AcDbEntity
  8
0
 62
     7
 48
0.110566
370
    35
100
AcDbLine
 10
87.307261
 20
-186.552277
 30
0.0
 11
89.518586
 21
-182.72215
 31
0.0
  0
ARC
  5
F9
330
1F
100
AcDbEntity
  8
0
 62
     7
370
    35
100
AcDbCircle
 10
86.874138
 20
-186.302085
 30
0.0
 40
0.5001914944911459
100
AcDbArc
 50
270.012664
 51
329.987336
  0
LINE
  5
FA
330
1F
100
AcDbEntity
  8
0
 62
     7
 48
0.110566
370
    35
100
AcDbLine
 10
82.451599
 20
-186.802277
 30
0.0
 11
86.874248
 21
-186.802277
 31
0.0
  0
ARC
  5
FB
330
1F
100
AcDbEntity
  8
0
 62
     7
370
    35
100
AcDbCircle
 10
82.451709
 20
-186.302085
 30
0.0
 40
0.5001914944944769
100
AcDbArc
 50
210.012664
 51
269.987336
  0
LINE
  5
FC
330
1F
100
AcDbEntity
  8
0
 62
     7
 48
0.110566
370
    35
100
AcDbLine
 10
79.807261
 20
-182.72215
 30
0.0
 11
82.018586
 21
-186.552277
 31
0.0
  0
ARC
  5
FD
330
1F
100
AcDbEntity
  8
0
 62
     7
370
    35
100
AcDbCircle
 10
80.240495
 20
-182.47215
 30
0.0
 40
0.5001914944907488
100
AcDbArc
 50
150.012664
 51
209.987336
  0
LINE
  5
FE
330
1F
100
AcDbEntity
  8
0
 62
     7
 48
0.110566
370
    35
100
AcDbLine
 10
79.807261
 20
-195.415072
 30
0.0
 11
82.018586
 21
-191.584945
 31
0.0
  0
ARC
  5
FF
330
1F
100
AcDbEntity
  8
0
 62
     7
370
    35
100
AcDbCircle
 10
82.451709
 20
-191.835137
 30
0.0
 40
0.5001914944946173
100
AcDbArc
 50
90.012664
 51
149.987336
  0
LINE
  5
100
330
1F
100
AcDbEntity
  8
0
 62
     7
 48
0.110566
370
    35
100
AcDbLine
 10
82.451599
 20
-191.334945
 30
0.0
 11
86.874248
 21
-191.334945
 31
0.0
  0
ARC
  5
101
330
1F
100
AcDbEntity
  8
0
 62
     7
370
    35
100
AcDbCircle
 10
86.874138
 20
-191.835137
 30
0.0
 40
0.5001914944939593
100
AcDbArc
 50
30.012664
 51
89.987336
  0
LINE
  5
102
330
1F
100
AcDbEntity
  8
0
 62
     7
 48
0.110566
370
    35
100
AcDbLine
 10
87.307261
 20
-191.584945
 30
0.0
 11
89.518586
 21
-195.415072
 31
0.0
  0
ARC
  5
103
330
1F
100
AcDbEntity
  8
0
 62
     7
370
    35
100
AcDbCircle
 10
89.085352
 20
-195.665072
 30
0.0
 40
0.5001914944989756
100
AcDbArc
 50
330.012664
 51
29.987336
  0
LINE
  5
104
330
1F
100
AcDbEntity
  8
0
 62
     7
 48
0.110566
370
    35
100
AcDbLine
 10
87.307261
 20
-199.745199
 30
0.0
 11
89.518586
 21
-195.915072
 31
0.0
  0
ARC
  5
105
330
1F
100
AcDbEntity
  8
0
 62
     7
370
    35
100
AcDbCircle
 10
86.874138
 20
-199.495008
 30
0.0
 40
0.5001914944928247
100
AcDbArc
 50
270.012664
 51
329.987336
  0
LINE
  5
106
330
1F
100
AcDbEntity
  8
0
 62
     7
 48
0.110566
370
    35
100
AcDbLine
 10
82.451599
 20
-199.995199
 30
0.0
 11
86.874248
 21
-199.995199
 31
0.0
  0
ARC
  5
107
330
1F
100
AcDbEntity
  8
0
 62
     7
370
    35
100
AcDbCircle
 10
82.451709
 20
-199.495008
 30
0.0
 40
0.5001914944932789
100
AcDbArc
 50
210.012664
 51
269.987336
  0
LINE
  5
108
330
1F
100
AcDbEntity
  8
0
 62
     7
 48
0.110566
370
    35
100
AcDbLine
 10
79.807261
 20
-195.915072
 30
0.0
 11
82.018586
 21
-199.745199
 31
0.0
  0
ARC
  5
109
330
1F
100
AcDbEntity
  8
0
 62
     7
370
    35
100
AcDbCircle
 10
80.240495
 20
-195.665072
 30
0.0
 40
0.5001914944925114
100
AcDbArc
 50
150.012664
 51
209.987336
  0
LINE
  5
10A
330
1F
100
AcDbEntity
  8
0
 62
     7
 48
0.110566
370
    35
100
AcDbLine
 10
79.807261
 20
-208.607995
 30
0.0
 11
82.018586
 21
-204.777868
 31
0.0
  0
ARC
  5
10B
330
1F
100
AcDbEntity
  8
0
 62
     7
370
    35
100
AcDbCircle
 10
82.451709
 20
-205.02806
 30
0.0
 40
0.5001914944945608
100
AcDbArc
 50
90.012664
 51
149.987336
  0
LINE
  5
10C
330
1F
100
AcDbEntity
  8
0
 62
     7
 48
0.110566
370
    35
100
AcDbLine
 10
82.451599
 20
-204.527868
 30
0.0
 11
86.874248
 21
-204.527868
 31
0.0
  0
ARC
  5
10D
330
1F
100
AcDbEntity
  8
0
 62
     7
370
    35
100
AcDbCircle
 10
86.874138
 20
-205.02806
 30
0.0
 40
0.5001914944909189
100
AcDbArc
 50
30.012664
 51
89.987336
  0
LINE
  5
10E
330
1F
100
AcDbEntity
  8
0
 62
     7
 48
0.110566
370
    35
100
AcDbLine
 10
87.307261
 20
-204.777868
 30
0.0
 11
89.518586
 21
-208.607995
 31
0.0
  0
ARC
  5
10F
330
1F
100
AcDbEntity
  8
0
 62
     7
370
    35
100
AcDbCircle
 10
89.085352
 20
-208.857995
 30
0.0
 40
0.5001914944883229
100
AcDbArc
 50
330.012664
 51
29.987336
  0
LINE
  5
110
330
1F
100
AcDbEntity
  8
0
 62
     7
 48
0.110566
370
    35
100
AcDbLine
 10
87.307261
 20
-212.938122
 30
0.0
 11
89.518586
 21
-209.107995
 31
0.0
  0
ARC
  5
111
330
1F
100
AcDbEntity
  8
0
 62
     7
370
    35
100
AcDbCircle
 10
86.874138
 20
-212.687931
 30
0.0
 40
0.500191494495497
100
AcDbArc
 50
270.012664
 51
329.987336
  0
LINE
  5
112
330
1F
100
AcDbEntity
  8
0
 62
     7
 48
0.110566
370
    35
100
AcDbLine
 10
82.451599
 20
-213.188122
 30
0.0
 11
86.874248
 21
-213.188122
 31
0.0
  0
ARC
  5
113
330
1F
100
AcDbEntity
  8
0
 62
     7
370
    35
100
AcDbCircle
 10
82.451709
 20
-212.687931
 30
0.0
 40
0.5001914944991963
100
AcDbArc
 50
210.012664
 51
269.987336
  0
LINE
  5
114
330
1F
100
AcDbEntity
  8
0
 62
     7
 48
0.110566
370
    35
100
AcDbLine
 10
79.807261
 20
-209.107995
 30
0.0
 11
82.018586
 21
-212.938122
 31
0.0
  0
ARC
  5
115
330
1F
100
AcDbEntity
  8
0
 62
     7
370
    35
100
AcDbCircle
 10
80.240495
 20
-208.857995
 30
0.0
 40
0.5001914944941543
100
AcDbArc
 50
150.012664
 51
209.987336
  0
LINE
  5
116
330
1F
100
AcDbEntity
  8
0
 62
     7
 48
0.110566
370
    35
100
AcDbLine
 10
84.912923
 20
-230.388178
 30
0.0
 11
88.74305
 21
-232.599503
 31
0.0
  0
ARC
  5
117
330
1F
100
AcDbEntity
  8
0
 62
     7
370
    35
100
AcDbCircle
 10
88.492859
 20
-233.032626
 30
0.0
 40
0.5001914944927199
100
AcDbArc
 50
0.012664
 51
59.987336
  0
LINE
  5
118
330
1F
100
AcDbEntity
  8
0
 62
     7
 48
0.110566
370
    35
100
AcDbLine
 10
88.99305
 20
-237.455165
 30
0.0
 11
88.99305
 21
-233.032516
 31
0.0
  0
ARC
  5
119
330
1F
100
AcDbEntity
  8
0
 62
     7
370
    35
100
AcDbCircle
 10
88.492859
 20
-237.455055
 30
0.0
 40
0.5001914944976487
100
AcDbArc
 50
300.012664
 51
359.987336
  0
LINE
  5
11A
330
1F
100
AcDbEntity
  8
0
 62
     7
 48
0.110566
370
    35
100
AcDbLine
 10
84.912923
 20
-240.099503
 30
0.0
 11
88.74305
 21
-237.888178
 31
0.0
  0
ARC
  5
11B
330
1F
100
AcDbEntity
  8
0
 62
     7
370
    35
100
AcDbCircle
 10
84.662923
 20
-239.666269
 30
0.0
 40
0.5001914944831105
100
AcDbArc
 50
240.012664
 51
299.987336
  0
LINE
  5
11C
330
1F
100
AcDbEntity
  8
0
 62
     7
 48
0.110566
370
    35
100
AcDbLine
 10
80.582796
 20
-237.888178
 30
0.0
 11
84.412923
 21
-240.099503
 31
0.0
  0
ARC
  5
11D
330
1F
100
AcDbEntity
  8
0
 62
     7
370
    35
100
AcDbCircle
 10
80.832988
 20
-237.455055
 30
0.0
 40
0.5001914944956889
100
AcDbArc
 50
180.012664
 51
239.987336
  0
LINE
  5
11E
330
1F
100
AcDbEntity
  8
0
 62
     7
 48
0.110566
370
    35
100
AcDbLine
 10
80.332796
 20
-233.032516
 30
0.0
 11
80.332796
 21
-237.455165
 31
0.0
  0
ARC
  5
11F
330
1F
100
AcDbEntity
  8
0
 62
     7
370
    35
100
AcDbCircle
 10
80.832988
 20
-233.032626
 30
0.0
 40
0.5001914945019504
100
AcDbArc
 50
120.012664
 51
179.987336
  0
LINE
  5
120
330
1F
100
AcDbEntity
  8
0
 62
     7
 48
0.110566
370
    35
100
AcDbLine
 10
80.582796
 20
-232.599503
 30
0.0
 11
84.412923
 21
-230.388178
 31
0.0
  0
ARC
  5
121
330
1F
100
AcDbEntity
  8
0
 62
     7
370
    35
100
AcDbCircle
 10
84.662923
 20
-230.821412
 30
0.0
 40
0.5001914944798997
100
AcDbArc
 50
60.012664
 51
119.987336
  0
LINE
  5
122
330
1F
100
AcDbEntity
  8
0
 62
     7
 48
0.110566
370
    35
100
AcDbLine
 10
84.912923
 20
-243.581101
 30
0.0
 11
88.74305
 21
-245.792426
 31
0.0
  0
ARC
  5
123
330
1F
100
AcDbEntity
  8
0
 62
     7
370
    35
100
AcDbCircle
 10
88.492859
 20
-246.225549
 30
0.0
 40
0.5001914944915082
100
AcDbArc
 50
0.012664
 51
59.987336
  0
LINE
  5
124
330
1F
100
AcDbEntity
  8
0
 62
     7
 48
0.110566
370
    35
100
AcDbLine
 10
88.99305
 20
-250.648088
 30
0.0
 11
88.99305
 21
-246.225438
 31
0.0
  0
ARC
  5
125
330
1F
100
AcDbEntity
  8
0
 62
     7
370
    35
100
AcDbCircle
 10
88.492859
 20
-250.647978
 30
0.0
 40
0.5001914944920186
100
AcDbArc
 50
300.012664
 51
359.987336
  0
LINE
  5
126
330
1F
100
AcDbEntity
  8
0
 62
     7
 48
0.110566
370
    35
100
AcDbLine
 10
84.912923
 20
-253.292426
 30
0.0
 11
88.74305
 21
-251.081101
 31
0.0
  0
ARC
  5
127
330
1F
100
AcDbEntity
  8
0
 62
     7
370
    35
100
AcDbCircle
 10
84.662923
 20
-252.859192
 30
0.0
 40
0.5001914944883876
100
AcDbArc
 50
240.012664
 51
299.987336
  0
LINE
  5
128
330
1F
100
AcDbEntity
  8
0
 62
     7
 48
0.110566
370
    35
100
AcDbLine
 10
80.582796
 20
-251.081101
 30
0.0
 11
84.412923
 21
-253.292426
 31
0.0
  0
ARC
  5
129
330
1F
100
AcDbEntity
  8
0
 62
     7
370
    35
100
AcDbCircle
 10
80.832988
 20
-250.647978
 30
0.0
 40
0.5001914944949839
100
AcDbArc
 50
180.012664
 51
239.987336
  0
LINE
  5
12A
330
1F
100
AcDbEntity
  8
0
 62
     7
 48
0.110566
370
    35
100
AcDbLine
 10
80.332796
 20
-246.225438
 30
0.0
 11
80.332796
 21
-250.648088
 31
0.0
  0
ARC
  5
12B
330
1F
100
AcDbEntity
  8
0
 62
     7
370
    35
100
AcDbCircle
 10
80.832988
 20
-246.225549
 30
0.0
 40
0.500191494502106
100
AcDbArc
 50
120.012664
 51
179.987336
  0
LINE
  5
12C
330
1F
100
AcDbEntity
  8
0
 62
     7
 48
0.110566
370
    35
100
AcDbLine
 10
80.582796
 20
-245.792426
 30
0.0
 11
84.412923
 21
-243.581101
 31
0.0
  0
ARC
  5
12D
330
1F
100
AcDbEntity
  8
0
 62
     7
370
    35
100
AcDbCircle
 10
84.662923
 20
-244.014335
 30
0.0
 40
0.5001914944875631
100
AcDbArc
 50
60.012664
 51
119.987336
  0
LINE
  5
12E
330
1F
100
AcDbEntity
  8
0
 62
     7
 48
0.110566
370
    35
100
AcDbLine
 10
63.009899
 20
-37.1
 30
0.0
 11
65.221224
 21
-33.269873
 31
0.0
  0
ARC
  5
12F
330
1F
100
AcDbEntity
  8
0
 62
     7
370
    35
100
AcDbCircle
 10
65.654347
 20
-33.520064
 30
0.0
 40
0.5001914944968223
100
AcDbArc
 50
90.012664
 51
149.987336
  0
LINE
  5
130
330
1F
100
AcDbEntity
  8
0
 62
     7
 48
0.110566
370
    35
100
AcDbLine
 10
65.654236
 20
-33.019873
 30
0.0
 11
70.076886
 21
-33.019873
 31
0.0
  0
ARC
  5
131
330
1F
100
AcDbEntity
  8
0
 62
     7
370
    35
100
AcDbCircle
 10
70.076775
 20
-33.520064
 30
0.0
 40
0.5001914944903868
100
AcDbArc
 50
30.012664
 51
89.987336
  0
LINE
  5
132
330
1F
100
AcDbEntity
  8
0
 62
     7
 48
0.110566
370
    35
100
AcDbLine
 10
70.509899
 20
-33.269873
 30
0.0
 11
72.721224
 21
-37.1
 31
0.0
  0
ARC
  5
133
330
1F
100
AcDbEntity
  8
0
 62
     7
370
    35
100
AcDbCircle
 10
72.28799
 20
-37.35
 30
0.0
 40
0.5001914944939884
100
AcDbArc
 50
330.012664
 51
29.987336
  0
LINE
  5
134
330
1F
100
AcDbEntity
  8
0
 62
     7
 48
0.110566
370
    35
100
AcDbLine
 10
70.509899
 20
-41.430127
 30
0.0
 11
72.721224
 21
-37.6
 31
0.0
  0
ARC
  5
135
330
1F
100
AcDbEntity
  8
0
 62
     7
370
    35
100
AcDbCircle
 10
70.076775
 20
-41.179936
 30
0.0
 40
0.5001914944878151
100
AcDbArc
 50
270.012664
 51
329.987336
  0
LINE
  5
136
330
1F
100
AcDbEntity
  8
0
 62
     7
 48
0.110566
370
    35
100
AcDbLine
 10
65.654236
 20
-41.680127
 30
0.0
 11
70.076886
 21
-41.680127
 31
0.0
  0
ARC
  5
137
330
1F
100
AcDbEntity
  8
0
 62
     7
370
    35
100
AcDbCircle
 10
65.654347
 20
-41.179936
 30
0.0
 40
0.5001914944886281
100
AcDbArc
 50
210.012664
 51
269.987336
  0
LINE
  5
138
330
1F
100
AcDbEntity
  8
0
 62
     7
 48
0.110566
370
    35
100
AcDbLine
 10
63.009899
 20
-37.6
 30
0.0
 11
65.221224
 21
-41.430127
 31
0.0
  0
ARC
  5
139
330
1F
100
AcDbEntity
  8
0
 62
     7
370
    35
100
AcDbCircle
 10
63.443132
 20
-37.35
 30
0.0
 40
0.5001914944927741
100
AcDbArc
 50
150.012664
 51
209.987336
  0
LINE
  5
13A
330
1F
100
AcDbEntity
  8
0
 62
     7
 48
0.110566
370
    35
100
AcDbLine
 10
63.009899
 20
-50.292923
 30
0.0
 11
65.221224
 21
-46.462796
 31
0.0
  0
ARC
  5
13B
330
1F
100
AcDbEntity
  8
0
 62
     7
370
    35
100
AcDbCircle
 10
65.654347
 20
-46.712987
 30
0.0
 40
0.5001914944972132
100
AcDbArc
 50
90.012664
 51
149.987336
  0
LINE
  5
13C
330
1F
100
AcDbEntity
  8
0
 62
     7
 48
0.110566
370
    35
100
AcDbLine
 10
65.654236
 20
-46.212796
 30
0.0
 11
70.076886
 21
-46.212796
 31
0.0
  0
ARC
  5
13D
330
1F
100
AcDbEntity
  8
0
 62
     7
370
    35
100
AcDbCircle
 10
70.076775
 20
-46.712987
 30
0.0
 40
0.5001914945004327
100
AcDbArc
 50
30.012664
 51
89.987336
  0
LINE
  5
13E
330
1F
100
AcDbEntity
  8
0
 62
     7
 48
0.110566
370
    35
100
AcDbLine
 10
70.509899
 20
-46.462796
 30
0.0
 11
72.721224
 21
-50.292923
 31
0.0
  0
ARC
  5
13F
330
1F
100
AcDbEntity
  8
0
 62
     7
370
    35
100
AcDbCircle
 10
72.28799
 20
-50.542923
 30
0.0
 40
0.5001914944976233
100
AcDbArc
 50
330.012664
 51
29.987336
  0
LINE
  5
140
330
1F
100
AcDbEntity
  8
0
 62
     7
 48
0.110566
370
    35
100
AcDbLine
 10
70.509899
 20
-54.62305
 30
0.0
 11
72.721224
 21
-50.792923
 31
0.0
  0
ARC
  5
141
330
1F
100
AcDbEntity
  8
0
 62
     7
370
    35
100
AcDbCircle
 10
70.076775
 20
-54.372858
 30
0.0
 40
0.5001914944954042
100
AcDbArc
 50
270.012664
 51
329.987336
  0
LINE
  5
142
330
1F
100
AcDbEntity
  8
0
 62
     7
 48
0.110566
370
    35
100
AcDbLine
 10
65.654236
 20
-54.87305
 30
0.0
 11
70.076886
 21
-54.87305
 31
0.0
  0
ARC
  5
143
330
1F
100
AcDbEntity
  8
0
 62
     7
370
    35
100
AcDbCircle
 10
65.654347
 20
-54.372858
 30
0.0
 40
0.5001914944990291
100
AcDbArc
 50
210.012664
 51
269.987336
  0
LINE
  5
144
330
1F
100
AcDbEntity
  8
0
 62
     7
 48
0.110566
370
    35
100
AcDbLine
 10
63.009899
 20
-50.792923
 30
0.0
 11
65.221224
 21
-54.62305
 31
0.0
  0
ARC
  5
145
330
1F
100
AcDbEntity
  8
0
 62
     7
370
    35
100
AcDbCircle
 10
63.443132
 20
-50.542923
 30
0.0
 40
0.5001914944941294
100
AcDbArc
 50
150.012664
 51
209.987336
  0
LINE
  5
146
330
1F
100
AcDbEntity
  8
0
 62
     7
 48
0.110566
370
    35
100
AcDbLine
 10
63.009899
 20
-63.485845
 30
0.0
 11
65.221224
 21
-59.655718
 31
0.0
  0
ARC
  5
147
330
1F
100
AcDbEntity
  8
0
 62
     7
370
    35
100
AcDbCircle
 10
65.654347
 20
-59.90591
 30
0.0
 40
0.5001914945044104
100
AcDbArc
 50
90.012664
 51
149.987336
  0
LINE
  5
148
330
1F
100
AcDbEntity
  8
0
 62
     7
 48
0.110566
370
    35
100
AcDbLine
 10
65.654236
 20
-59.405718
 30
0.0
 11
70.076886
 21
-59.405718
 31
0.0
  0
ARC
  5
149
330
1F
100
AcDbEntity
  8
0
 62
     7
370
    35
100
AcDbCircle
 10
70.076775
 20
-59.90591
 30
0.0
 40
0.5001914944984136
100
AcDbArc
 50
30.012664
 51
89.987336
  0
LINE
  5
14A
330
1F
100
AcDbEntity
  8
0
 62
     7
 48
0.110566
370
    35
100
AcDbLine
 10
70.509899
 20
-59.655718
 30
0.0
 11
72.721224
 21
-63.485845
 31
0.0
  0
ARC
  5
14B
330
1F
100
AcDbEntity
  8
0
 62
     7
370
    35
100
AcDbCircle
 10
72.28799
 20
-63.735845
 30
0.0
 40
0.5001914944928367
100
AcDbArc
 50
330.012664
 51
29.987336
  0
LINE
  5
14C
330
1F
100
AcDbEntity
  8
0
 62
     7
 48
0.110566
370
    35
100
AcDbLine
 10
70.509899
 20
-67.815972
 30
0.0
 11
72.721224
 21
-63.985845
 31
0.0
  0
ARC
  5
14D
330
1F
100
AcDbEntity
  8
0
 62
     7
370
    35
100
AcDbCircle
 10
70.076775
 20
-67.565781
 30
0.0
 40
0.500191494495496
100
AcDbArc
 50
270.012664
 51
329.987336
  0
LINE
  5
14E
330
1F
100
AcDbEntity
  8
0
 62
     7
 48
0.110566
370
    35
100
AcDbLine
 10
65.654236
 20
-68.065972
 30
0.0
 11
70.076886
 21
-68.065972
 31
0.0
  0
ARC
  5
14F
330
1F
100
AcDbEntity
  8
0
 62
     7
370
    35
100
AcDbCircle
 10
65.654347
 20
-67.565781
 30
0.0
 40
0.5001914945005098
100
AcDbArc
 50
210.012664
 51
269.987336
  0
LINE
  5
150
330
1F
100
AcDbEntity
  8
0
 62
     7
 48
0.110566
370
    35
100
AcDbLine
 10
63.009899
 20
-63.985845
 30
0.0
 11
65.221224
 21
-67.815972
 31
0.0
  0
ARC
  5
151
330
1F
100
AcDbEntity
  8
0
 62
     7
370
    35
100
AcDbCircle
 10
63.443132
 20
-63.735845
 30
0.0
 40
0.5001914944930318
100
AcDbArc
 50
150.012664
 51
209.987336
  0
LINE
  5
152
330
1F
100
AcDbEntity
  8
0
 62
     7
 48
0.110566
370
    35
100
AcDbLine
 10
63.009899
 20
-76.678768
 30
0.0
 11
65.221224
 21
-72.848641
 31
0.0
  0
ARC
  5
153
330
1F
100
AcDbEntity
  8
0
 62
     7
370
    35
100
AcDbCircle
 10
65.654347
 20
-73.098833
 30
0.0
 40
0.5001914944973083
100
AcDbArc
 50
90.012664
 51
149.987336
  0
LINE
  5
154
330
1F
100
AcDbEntity
  8
0
 62
     7
 48
0.110566
370
    35
100
AcDbLine
 10
65.654236
 20
-72.598641
 30
0.0
 11
70.076886
 21
-72.598641
 31
0.0
  0
ARC
  5
155
330
1F
100
AcDbEntity
  8
0
 62
     7
370
    35
100
AcDbCircle
 10
70.076775
 20
-73.098833
 30
0.0
 40
0.5001914944893674
100
AcDbArc
 50
30.012664
 51
89.987336
  0
LINE
  5
156
330
1F
100
AcDbEntity
  8
0
 62
     7
 48
0.110566
370
    35
100
AcDbLine
 10
70.509899
 20
-72.848641
 30
0.0
 11
72.721224
 21
-76.678768
 31
0.0
  0
ARC
  5
157
330
1F
100
AcDbEntity
  8
0
 62
     7
370
    35
100
AcDbCircle
 10
72.28799
 20
-76.928768
 30
0.0
 40
0.5001914944947622
100
AcDbArc
 50
330.012664
 51
29.987336
  0
LINE
  5
158
330
1F
100
AcDbEntity
  8
0
 62
     7
 48
0.110566
370
    35
100
AcDbLine
 10
70.509899
 20
-81.008895
 30
0.0
 11
72.721224
 21
-77.178768
 31
0.0
  0
ARC
  5
159
330
1F
100
AcDbEntity
  8
0
 62
     7
370
    35
100
AcDbCircle
 10
70.076775
 20
-80.758704
 30
0.0
 40
0.5001914944929021
100
AcDbArc
 50
270.012664
 51
329.987336
  0
LINE
  5
15A
330
1F
100
AcDbEntity
  8
0
 62
     7
 48
0.110566
370
    35
100
AcDbLine
 10
65.654236
 20
-81.258895
 30
0.0
 11
70.076886
 21
-81.258895
 31
0.0
  0
ARC
  5
15B
330
1F
100
AcDbEntity
  8
0
 62
     7
370
    35
100
AcDbCircle
 10
65.654347
 20
-80.758704
 30
0.0
 40
0.5001914944943285
100
AcDbArc
 50
210.012664
 51
269.987336
  0
LINE
  5
15C
330
1F
100
AcDbEntity
  8
0
 62
     7
 48
0.110566
370
    35
100
AcDbLine
 10
63.009899
 20
-77.178768
 30
0.0
 11
65.221224
 21
-81.008895
 31
0.0
  0
ARC
  5
15D
330
1F
100
AcDbEntity
  8
0
 62
     7
370
    35
100
AcDbCircle
 10
63.443132
 20
-76.928768
 30
0.0
 40
0.5001914944919806
100
AcDbArc
 50
150.012664
 51
209.987336
  0
LINE
  5
15E
330
1F
100
AcDbEntity
  8
0
 62
     7
 48
0.110566
370
    35
100
AcDbLine
 10
63.009899
 20
-116.257536
 30
0.0
 11
65.221224
 21
-112.427409
 31
0.0
  0
ARC
  5
15F
330
1F
100
AcDbEntity
  8
0
 62
     7
370
    35
100
AcDbCircle
 10
65.654347
 20
-112.677601
 30
0.0
 40
0.5001914945005084
100
AcDbArc
 50
90.012664
 51
149.987336
  0
LINE
  5
160
330
1F
100
AcDbEntity
  8
0
 62
     7
 48
0.110566
370
    35
100
AcDbLine
 10
65.654236
 20
-112.177409
 30
0.0
 11
70.076886
 21
-112.177409
 31
0.0
  0
ARC
  5
161
330
1F
100
AcDbEntity
  8
0
 62
     7
370
    35
100
AcDbCircle
 10
70.076775
 20
-112.677601
 30
0.0
 40
0.5001914944944843
100
AcDbArc
 50
30.012664
 51
89.987336
  0
LINE
  5
162
330
1F
100
AcDbEntity
  8
0
 62
     7
 48
0.110566
370
    35
100
AcDbLine
 10
70.509899
 20
-112.427409
 30
0.0
 11
72.721224
 21
-116.257536
 31
0.0
  0
ARC
  5
163
330
1F
100
AcDbEntity
  8
0
 62
     7
370
    35
100
AcDbCircle
 10
72.28799
 20
-116.507536
 30
0.0
 40
0.5001914944943959
100
AcDbArc
 50
330.012664
 51
29.987336
  0
LINE
  5
164
330
1F
100
AcDbEntity
  8
0
 62
     7
 48
0.110566
370
    35
100
AcDbLine
 10
70.509899
 20
-120.587663
 30
0.0
 11
72.721224
 21
-116.757536
 31
0.0
  0
ARC
  5
165
330
1F
100
AcDbEntity
  8
0
 62
     7
370
    35
100
AcDbCircle
 10
70.076775
 20
-120.337472
 30
0.0
 40
0.5001914944935489
100
AcDbArc
 50
270.012664
 51
329.987336
  0
LINE
  5
166
330
1F
100
AcDbEntity
  8
0
 62
     7
 48
0.110566
370
    35
100
AcDbLine
 10
65.654236
 20
-120.837663
 30
0.0
 11
70.076886
 21
-120.837663
 31
0.0
  0
ARC
  5
167
330
1F
100
AcDbEntity
  8
0
 62
     7
370
    35
100
AcDbCircle
 10
65.654347
 20
-120.337472
 30
0.0
 40
0.5001914944941759
100
AcDbArc
 50
210.012664
 51
269.987336
  0
LINE
  5
168
330
1F
100
AcDbEntity
  8
0
 62
     7
 48
0.110566
370
    35
100
AcDbLine
 10
63.009899
 20
-116.757536
 30
0.0
 11
65.221224
 21
-120.587663
 31
0.0
  0
ARC
  5
169
330
1F
100
AcDbEntity
  8
0
 62
     7
370
    35
100
AcDbCircle
 10
63.443132
 20
-116.507536
 30
0.0
 40
0.5001914944919367
100
AcDbArc
 50
150.012664
 51
209.987336
  0
LINE
  5
16A
330
1F
100
AcDbEntity
  8
0
 62
     7
 48
0.110566
370
    35
100
AcDbLine
 10
63.009899
 20
-129.450459
 30
0.0
 11
65.221224
 21
-125.620332
 31
0.0
  0
ARC
  5
16B
330
1F
100
AcDbEntity
  8
0
 62
     7
370
    35
100
AcDbCircle
 10
65.654347
 20
-125.870523
 30
0.0
 40
0.5001914944892829
100
AcDbArc
 50
90.012664
 51
149.987336
  0
LINE
  5
16C
330
1F
100
AcDbEntity
  8
0
 62
     7
 48
0.110566
370
    35
100
AcDbLine
 10
65.654236
 20
-125.370332
 30
0.0
 11
70.076886
 21
-125.370332
 31
0.0
  0
ARC
  5
16D
330
1F
100
AcDbEntity
  8
0
 62
     7
370
    35
100
AcDbCircle
 10
70.076775
 20
-125.870523
 30
0.0
 40
0.50019149448869
100
AcDbArc
 50
30.012664
 51
89.987336
  0
LINE
  5
16E
330
1F
100
AcDbEntity
  8
0
 62
     7
 48
0.110566
370
    35
100
AcDbLine
 10
70.509899
 20
-125.620332
 30
0.0
 11
72.721224
 21
-129.450459
 31
0.0
  0
ARC
  5
16F
330
1F
100
AcDbEntity
  8
0
 62
     7
370
    35
100
AcDbCircle
 10
72.28799
 20
-129.700459
 30
0.0
 40
0.5001914944918024
100
AcDbArc
 50
330.012664
 51
29.987336
  0
LINE
  5
170
330
1F
100
AcDbEntity
  8
0
 62
     7
 48
0.110566
370
    35
100
AcDbLine
 10
70.509899
 20
-133.780586
 30
0.0
 11
72.721224
 21
-129.950459
 31
0.0
  0
ARC
  5
171
330
1F
100
AcDbEntity
  8
0
 62
     7
370
    35
100
AcDbCircle
 10
70.076775
 20
-133.530394
 30
0.0
 40
0.500191494495358
100
AcDbArc
 50
270.012664
 51
329.987336
  0
LINE
  5
172
330
1F
100
AcDbEntity
  8
0
 62
     7
 48
0.110566
370
    35
100
AcDbLine
 10
65.654236
 20
-134.030586
 30
0.0
 11
70.076886
 21
-134.030586
 31
0.0
  0
ARC
  5
173
330
1F
100
AcDbEntity
  8
0
 62
     7
370
    35
100
AcDbCircle
 10
65.654347
 20
-133.530394
 30
0.0
 40
0.5001914944943333
100
AcDbArc
 50
210.012664
 51
269.987336
  0
LINE
  5
174
330
1F
100
AcDbEntity
  8
0
 62
     7
 48
0.110566
370
    35
100
AcDbLine
 10
63.009899
 20
-129.950459
 30
0.0
 11
65.221224
 21
-133.780586
 31
0.0
  0
ARC
  5
175
330
1F
100
AcDbEntity
  8
0
 62
     7
370
    35
100
AcDbCircle
 10
63.443132
 20
-129.700459
 30
0.0
 40
0.5001914944945378
100
AcDbArc
 50
150.012664
 51
209.987336
  0
LINE
  5
176
330
1F
100
AcDbEntity
  8
0
 62
     7
 48
0.110566
370
    35
100
AcDbLine
 10
63.009899
 20
-142.643382
 30
0.0
 11
65.221224
 21
-138.813255
 31
0.0
  0
ARC
  5
177
330
1F
100
AcDbEntity
  8
0
 62
     7
370
    35
100
AcDbCircle
 10
65.654347
 20
-139.063446
 30
0.0
 40
0.5001914944917453
100
AcDbArc
 50
90.012664
 51
149.987336
  0
LINE
  5
178
330
1F
100
AcDbEntity
  8
0
 62
     7
 48
0.110566
370
    35
100
AcDbLine
 10
65.654236
 20
-138.563255
 30
0.0
 11
70.076886
 21
-138.563255
 31
0.0
  0
ARC
  5
179
330
1F
100
AcDbEntity
  8
0
 62
     7
370
    35
100
AcDbCircle
 10
70.076775
 20
-139.063446
 30
0.0
 40
0.5001914944946151
100
AcDbArc
 50
30.012664
 51
89.987336
  0
LINE
  5
17A
330
1F
100
AcDbEntity
  8
0
 62
     7
 48
0.110566
370
    35
100
AcDbLine
 10
70.509899
 20
-138.813255
 30
0.0
 11
72.721224
 21
-142.643382
 31
0.0
  0
ARC
  5
17B
330
1F
100
AcDbEntity
  8
0
 62
     7
370
    35
100
AcDbCircle
 10
72.28799
 20
-142.893382
 30
0.0
 40
0.5001914944905245
100
AcDbArc
 50
330.012664
 51
29.987336
  0
LINE
  5
17C
330
1F
100
AcDbEntity
  8
0
 62
     7
 48
0.110566
370
    35
100
AcDbLine
 10
70.509899
 20
-146.973509
 30
0.0
 11
72.721224
 21
-143.143382
 31
0.0
  0
ARC
  5
17D
330
1F
100
AcDbEntity
  8
0
 62
     7
370
    35
100
AcDbCircle
 10
70.076775
 20
-146.723317
 30
0.0
 40
0.5001914944942742
100
AcDbArc
 50
270.012664
 51
329.987336
  0
LINE
  5
17E
330
1F
100
AcDbEntity
  8
0
 62
     7
 48
0.110566
370
    35
100
AcDbLine
 10
65.654236
 20
-147.223509
 30
0.0
 11
70.076886
 21
-147.223509
 31
0.0
  0
ARC
  5
17F
330
1F
100
AcDbEntity
  8
0
 62
     7
370
    35
100
AcDbCircle
 10
65.654347
 20
-146.723317
 30
0.0
 40
0.500191494494442
100
AcDbArc
 50
210.012664
 51
269.987336
  0
LINE
  5
180
330
1F
100
AcDbEntity
  8
0
 62
     7
 48
0.110566
370
    35
100
AcDbLine
 10
63.009899
 20
-143.143382
 30
0.0
 11
65.221224
 21
-146.973509
 31
0.0
  0
ARC
  5
181
330
1F
100
AcDbEntity
  8
0
 62
     7
370
    35
100
AcDbCircle
 10
63.443132
 20
-142.893382
 30
0.0
 40
0.5001914944921996
100
AcDbArc
 50
150.012664
 51
209.987336
  0
LINE
  5
182
330
1F
100
AcDbEntity
  8
0
 62
     7
 48
0.110566
370
    35
100
AcDbLine
 10
63.009899
 20
-155.836304
 30
0.0
 11
65.221224
 21
-152.006177
 31
0.0
  0
ARC
  5
183
330
1F
100
AcDbEntity
  8
0
 62
     7
370
    35
100
AcDbCircle
 10
65.654347
 20
-152.256369
 30
0.0
 40
0.5001914944960066
100
AcDbArc
 50
90.012664
 51
149.987336
  0
LINE
  5
184
330
1F
100
AcDbEntity
  8
0
 62
     7
 48
0.110566
370
    35
100
AcDbLine
 10
65.654236
 20
-151.756177
 30
0.0
 11
70.076886
 21
-151.756177
 31
0.0
  0
ARC
  5
185
330
1F
100
AcDbEntity
  8
0
 62
     7
370
    35
100
AcDbCircle
 10
70.076775
 20
-152.256369
 30
0.0
 40
0.5001914944949868
100
AcDbArc
 50
30.012664
 51
89.987336
  0
LINE
  5
186
330
1F
100
AcDbEntity
  8
0
 62
     7
 48
0.110566
370
    35
100
AcDbLine
 10
70.509899
 20
-152.006177
 30
0.0
 11
72.721224
 21
-155.836304
 31
0.0
  0
ARC
  5
187
330
1F
100
AcDbEntity
  8
0
 62
     7
370
    35
100
AcDbCircle
 10
72.28799
 20
-156.086304
 30
0.0
 40
0.5001914944933277
100
AcDbArc
 50
330.012664
 51
29.987336
  0
LINE
  5
188
330
1F
100
AcDbEntity
  8
0
 62
     7
 48
0.110566
370
    35
100
AcDbLine
 10
70.509899
 20
-160.166431
 30
0.0
 11
72.721224
 21
-156.336304
 31
0.0
  0
ARC
  5
189
330
1F
100
AcDbEntity
  8
0
 62
     7
370
    35
100
AcDbCircle
 10
70.076775
 20
-159.91624
 30
0.0
 40
0.5001914944884511
100
AcDbArc
 50
270.012664
 51
329.987336
  0
LINE
  5
18A
330
1F
100
AcDbEntity
  8
0
 62
     7
 48
0.110566
370
    35
100
AcDbLine
 10
65.654236
 20
-160.416431
 30
0.0
 11
70.076886
 21
-160.416431
 31
0.0
  0
ARC
  5
18B
330
1F
100
AcDbEntity
  8
0
 62
     7
370
    35
100
AcDbCircle
 10
65.654347
 20
-159.91624
 30
0.0
 40
0.5001914944940479
100
AcDbArc
 50
210.012664
 51
269.987336
  0
LINE
  5
18C
330
1F
100
AcDbEntity
  8
0
 62
     7
 48
0.110566
370
    35
100
AcDbLine
 10
63.009899
 20
-156.336304
 30
0.0
 11
65.221224
 21
-160.166431
 31
0.0
  0
ARC
  5
18D
330
1F
100
AcDbEntity
  8
0
 62
     7
370
    35
100
AcDbCircle
 10
63.443132
 20
-156.086304
 30
0.0
 40
0.5001914944936235
100
AcDbArc
 50
150.012664
 51
209.987336
  0
LINE
  5
18E
330
1F
100
AcDbEntity
  8
0
 62
     7
 48
0.110566
370
    35
100
AcDbLine
 10
63.009899
 20
-169.029227
 30
0.0
 11
65.221224
 21
-165.1991
 31
0.0
  0
ARC
  5
18F
330
1F
100
AcDbEntity
  8
0
 62
     7
370
    35
100
AcDbCircle
 10
65.654347
 20
-165.449291
 30
0.0
 40
0.5001914944906685
100
AcDbArc
 50
90.012664
 51
149.987336
  0
LINE
  5
190
330
1F
100
AcDbEntity
  8
0
 62
     7
 48
0.110566
370
    35
100
AcDbLine
 10
65.654236
 20
-164.9491
 30
0.0
 11
70.076886
 21
-164.9491
 31
0.0
  0
ARC
  5
191
330
1F
100
AcDbEntity
  8
0
 62
     7
370
    35
100
AcDbCircle
 10
70.076775
 20
-165.449291
 30
0.0
 40
0.5001914944958377
100
AcDbArc
 50
30.012664
 51
89.987336
  0
LINE
  5
192
330
1F
100
AcDbEntity
  8
0
 62
     7
 48
0.110566
370
    35
100
AcDbLine
 10
70.509899
 20
-165.1991
 30
0.0
 11
72.721224
 21
-169.029227
 31
0.0
  0
ARC
  5
193
330
1F
100
AcDbEntity
  8
0
 62
     7
370
    35
100
AcDbCircle
 10
72.28799
 20
-169.279227
 30
0.0
 40
0.500191494499229
100
AcDbArc
 50
330.012664
 51
29.987336
  0
LINE
  5
194
330
1F
100
AcDbEntity
  8
0
 62
     7
 48
0.110566
370
    35
100
AcDbLine
 10
70.509899
 20
-173.359354
 30
0.0
 11
72.721224
 21
-169.529227
 31
0.0
  0
ARC
  5
195
330
1F
100
AcDbEntity
  8
0
 62
     7
370
    35
100
AcDbCircle
 10
70.076775
 20
-173.109163
 30
0.0
 40
0.5001914944949305
100
AcDbArc
 50
270.012664
 51
329.987336
  0
LINE
  5
196
330
1F
100
AcDbEntity
  8
0
 62
     7
 48
0.110566
370
    35
100
AcDbLine
 10
65.654236
 20
-173.609354
 30
0.0
 11
70.076886
 21
-173.609354
 31
0.0
  0
ARC
  5
197
330
1F
100
AcDbEntity
  8
0
 62
     7
370
    35
100
AcDbCircle
 10
65.654347
 20
-173.109163
 30
0.0
 40
0.5001914944917981
100
AcDbArc
 50
210.012664
 51
269.987336
  0
LINE
  5
198
330
1F
100
AcDbEntity
  8
0
 62
     7
 48
0.110566
370
    35
100
AcDbLine
 10
63.009899
 20
-169.529227
 30
0.0
 11
65.221224
 21
-173.359354
 31
0.0
  0
ARC
  5
199
330
1F
100
AcDbEntity
  8
0
 62
     7
370
    35
100
AcDbCircle
 10
63.443132
 20
-169.279227
 30
0.0
 40
0.5001914944953044
100
AcDbArc
 50
150.012664
 51
209.987336
  0
LINE
  5
19A
330
1F
100
AcDbEntity
  8
0
 62
     7
 48
0.110566
370
    35
100
AcDbLine
 10
63.009899
 20
-182.22215
 30
0.0
 11
65.221224
 21
-178.392023
 31
0.0
  0
ARC
  5
19B
330
1F
100
AcDbEntity
  8
0
 62
     7
370
    35
100
AcDbCircle
 10
65.654347
 20
-178.642214
 30
0.0
 40
0.5001914944928775
100
AcDbArc
 50
90.012664
 51
149.987336
  0
LINE
  5
19C
330
1F
100
AcDbEntity
  8
0
 62
     7
 48
0.110566
370
    35
100
AcDbLine
 10
65.654236
 20
-178.142023
 30
0.0
 11
70.076886
 21
-178.142023
 31
0.0
  0
ARC
  5
19D
330
1F
100
AcDbEntity
  8
0
 62
     7
370
    35
100
AcDbCircle
 10
70.076775
 20
-178.642214
 30
0.0
 40
0.5001914944954631
100
AcDbArc
 50
30.012664
 51
89.987336
  0
LINE
  5
19E
330
1F
100
AcDbEntity
  8
0
 62
     7
 48
0.110566
370
    35
100
AcDbLine
 10
70.509899
 20
-178.392023
 30
0.0
 11
72.721224
 21
-182.22215
 31
0.0
  0
ARC
  5
19F
330
1F
100
AcDbEntity
  8
0
 62
     7
370
    35
100
AcDbCircle
 10
72.28799
 20
-182.47215
 30
0.0
 40
0.5001914944900991
100
AcDbArc
 50
330.012664
 51
29.987336
  0
LINE
  5
1A0
330
1F
100
AcDbEntity
  8
0
 62
     7
 48
0.110566
370
    35
100
AcDbLine
 10
70.509899
 20
-186.552277
 30
0.0
 11
72.721224
 21
-182.72215
 31
0.0
  0
ARC
  5
1A1
330
1F
100
AcDbEntity
  8
0
 62
     7
370
    35
100
AcDbCircle
 10
70.076775
 20
-186.302085
 30
0.0
 40
0.500191494492623
100
AcDbArc
 50
270.012664
 51
329.987336
  0
LINE
  5
1A2
330
1F
100
AcDbEntity
  8
0
 62
     7
 48
0.110566
370
    35
100
AcDbLine
 10
65.654236
 20
-186.802277
 30
0.0
 11
70.076886
 21
-186.802277
 31
0.0
  0
ARC
  5
1A3
330
1F
100
AcDbEntity
  8
0
 62
     7
370
    35
100
AcDbCircle
 10
65.654347
 20
-186.302085
 30
0.0
 40
0.5001914944961505
100
AcDbArc
 50
210.012664
 51
269.987336
  0
LINE
  5
1A4
330
1F
100
AcDbEntity
  8
0
 62
     7
 48
0.110566
370
    35
100
AcDbLine
 10
63.009899
 20
-182.72215
 30
0.0
 11
65.221224
 21
-186.552277
 31
0.0
  0
ARC
  5
1A5
330
1F
100
AcDbEntity
  8
0
 62
     7
370
    35
100
AcDbCircle
 10
63.443132
 20
-182.47215
 30
0.0
 40
0.5001914944942656
100
AcDbArc
 50
150.012664
 51
209.987336
  0
LINE
  5
1A6
330
1F
100
AcDbEntity
  8
0
 62
     7
 48
0.110566
370
    35
100
AcDbLine
 10
63.009899
 20
-195.415072
 30
0.0
 11
65.221224
 21
-191.584945
 31
0.0
  0
ARC
  5
1A7
330
1F
100
AcDbEntity
  8
0
 62
     7
370
    35
100
AcDbCircle
 10
65.654347
 20
-191.835137
 30
0.0
 40
0.5001914944913985
100
AcDbArc
 50
90.012664
 51
149.987336
  0
LINE
  5
1A8
330
1F
100
AcDbEntity
  8
0
 62
     7
 48
0.110566
370
    35
100
AcDbLine
 10
65.654236
 20
-191.334945
 30
0.0
 11
70.076886
 21
-191.334945
 31
0.0
  0
ARC
  5
1A9
330
1F
100
AcDbEntity
  8
0
 62
     7
370
    35
100
AcDbCircle
 10
70.076775
 20
-191.835137
 30
0.0
 40
0.5001914944918575
100
AcDbArc
 50
30.012664
 51
89.987336
  0
LINE
  5
1AA
330
1F
100
AcDbEntity
  8
0
 62
     7
 48
0.110566
370
    35
100
AcDbLine
 10
70.509899
 20
-191.584945
 30
0.0
 11
72.721224
 21
-195.415072
 31
0.0
  0
ARC
  5
1AB
330
1F
100
AcDbEntity
  8
0
 62
     7
370
    35
100
AcDbCircle
 10
72.28799
 20
-195.665072
 30
0.0
 40
0.5001914944891965
100
AcDbArc
 50
330.012664
 51
29.987336
  0
LINE
  5
1AC
330
1F
100
AcDbEntity
  8
0
 62
     7
 48
0.110566
370
    35
100
AcDbLine
 10
70.509899
 20
-199.745199
 30
0.0
 11
72.721224
 21
-195.915072
 31
0.0
  0
ARC
  5
1AD
330
1F
100
AcDbEntity
  8
0
 62
     7
370
    35
100
AcDbCircle
 10
70.076775
 20
-199.495008
 30
0.0
 40
0.500191494493789
100
AcDbArc
 50
270.012664
 51
329.987336
  0
LINE
  5
1AE
330
1F
100
AcDbEntity
  8
0
 62
     7
 48
0.110566
370
    35
100
AcDbLine
 10
65.654236
 20
-199.995199
 30
0.0
 11
70.076886
 21
-199.995199
 31
0.0
  0
ARC
  5
1AF
330
1F
100
AcDbEntity
  8
0
 62
     7
370
    35
100
AcDbCircle
 10
65.654347
 20
-199.495008
 30
0.0
 40
0.5001914944972294
100
AcDbArc
 50
210.012664
 51
269.987336
  0
LINE
  5
1B0
330
1F
100
AcDbEntity
  8
0
 62
     7
 48
0.110566
370
    35
100
AcDbLine
 10
63.009899
 20
-195.915072
 30
0.0
 11
65.221224
 21
-199.745199
 31
0.0
  0
ARC
  5
1B1
330
1F
100
AcDbEntity
  8
0
 62
     7
370
    35
100
AcDbCircle
 10
63.443132
 20
-195.665072
 30
0.0
 40
0.5001914944968581
100
AcDbArc
 50
150.012664
 51
209.987336
  0
LINE
  5
1B2
330
1F
100
AcDbEntity
  8
0
 62
     7
 48
0.110566
370
    35
100
AcDbLine
 10
63.009899
 20
-208.607995
 30
0.0
 11
65.221224
 21
-204.777868
 31
0.0
  0
ARC
  5
1B3
330
1F
100
AcDbEntity
  8
0
 62
     7
370
    35
100
AcDbCircle
 10
65.654347
 20
-205.02806
 30
0.0
 40
0.5001914944944479
100
AcDbArc
 50
90.012664
 51
149.987336
  0
LINE
  5
1B4
330
1F
100
AcDbEntity
  8
0
 62
     7
 48
0.110566
370
    35
100
AcDbLine
 10
65.654236
 20
-204.527868
 30
0.0
 11
70.076886
 21
-204.527868
 31
0.0
  0
ARC
  5
1B5
330
1F
100
AcDbEntity
  8
0
 62
     7
370
    35
100
AcDbCircle
 10
70.076775
 20
-205.02806
 30
0.0
 40
0.5001914944950107
100
AcDbArc
 50
30.012664
 51
89.987336
  0
LINE
  5
1B6
330
1F
100
AcDbEntity
  8
0
 62
     7
 48
0.110566
370
    35
100
AcDbLine
 10
70.509899
 20
-204.777868
 30
0.0
 11
72.721224
 21
-208.607995
 31
0.0
  0
ARC
  5
1B7
330
1F
100
AcDbEntity
  8
0
 62
     7
370
    35
100
AcDbCircle
 10
72.28799
 20
-208.857995
 30
0.0
 40
0.5001914944927616
100
AcDbArc
 50
330.012664
 51
29.987336
  0
LINE
  5
1B8
330
1F
100
AcDbEntity
  8
0
 62
     7
 48
0.110566
370
    35
100
AcDbLine
 10
70.509899
 20
-212.938122
 30
0.0
 11
72.721224
 21
-209.107995
 31
0.0
  0
ARC
  5
1B9
330
1F
100
AcDbEntity
  8
0
 62
     7
370
    35
100
AcDbCircle
 10
70.076775
 20
-212.687931
 30
0.0
 40
0.5001914944919951
100
AcDbArc
 50
270.012664
 51
329.987336
  0
LINE
  5
1BA
330
1F
100
AcDbEntity
  8
0
 62
     7
 48
0.110566
370
    35
100
AcDbLine
 10
65.654236
 20
-213.188122
 30
0.0
 11
70.076886
 21
-213.188122
 31
0.0
  0
ARC
  5
1BB
330
1F
100
AcDbEntity
  8
0
 62
     7
370
    35
100
AcDbCircle
 10
65.654347
 20
-212.687931
 30
0.0
 40
0.5001914944968027
100
AcDbArc
 50
210.012664
 51
269.987336
  0
LINE
  5
1BC
330
1F
100
AcDbEntity
  8
0
 62
     7
 48
0.110566
370
    35
100
AcDbLine
 10
63.009899
 20
-209.107995
 30
0.0
 11
65.221224
 21
-212.938122
 31
0.0
  0
ARC
  5
1BD
330
1F
100
AcDbEntity
  8
0
 62
     7
370
    35
100
AcDbCircle
 10
63.443132
 20
-208.857995
 30
0.0
 40
0.5001914944929957
100
AcDbArc
 50
150.012664
 51
209.987336
  0
LINE
  5
1BE
330
1F
100
AcDbEntity
  8
0
 62
     7
 48
0.110566
370
    35
100
AcDbLine
 10
63.009899
 20
-221.800918
 30
0.0
 11
65.221224
 21
-217.970791
 31
0.0
  0
ARC
  5
1BF
330
1F
100
AcDbEntity
  8
0
 62
     7
370
    35
100
AcDbCircle
 10
65.654347
 20
-218.220982
 30
0.0
 40
0.5001914944981083
100
AcDbArc
 50
90.012664
 51
149.987336
  0
LINE
  5
1C0
330
1F
100
AcDbEntity
  8
0
 62
     7
 48
0.110566
370
    35
100
AcDbLine
 10
65.654236
 20
-217.720791
 30
0.0
 11
70.076886
 21
-217.720791
 31
0.0
  0
ARC
  5
1C1
330
1F
100
AcDbEntity
  8
0
 62
     7
370
    35
100
AcDbCircle
 10
70.076775
 20
-218.220982
 30
0.0
 40
0.500191494494186
100
AcDbArc
 50
30.012664
 51
89.987336
  0
LINE
  5
1C2
330
1F
100
AcDbEntity
  8
0
 62
     7
 48
0.110566
370
    35
100
AcDbLine
 10
70.509899
 20
-217.970791
 30
0.0
 11
72.721224
 21
-221.800918
 31
0.0
  0
ARC
  5
1C3
330
1F
100
AcDbEntity
  8
0
 62
     7
370
    35
100
AcDbCircle
 10
72.28799
 20
-222.050918
 30
0.0
 40
0.5001914944965773
100
AcDbArc
 50
330.012664
 51
29.987336
  0
LINE
  5
1C4
330
1F
100
AcDbEntity
  8
0
 62
     7
 48
0.110566
370
    35
100
AcDbLine
 10
70.509899
 20
-226.131045
 30
0.0
 11
72.721224
 21
-222.300918
 31
0.0
  0
ARC
  5
1C5
330
1F
100
AcDbEntity
  8
0
 62
     7
370
    35
100
AcDbCircle
 10
70.076775
 20
-225.880853
 30
0.0
 40
0.5001914944981397
100
AcDbArc
 50
270.012664
 51
329.987336
  0
LINE
  5
1C6
330
1F
100
AcDbEntity
  8
0
 62
     7
 48
0.110566
370
    35
100
AcDbLine
 10
65.654236
 20
-226.381045
 30
0.0
 11
70.076886
 21
-226.381045
 31
0.0
  0
ARC
  5
1C7
330
1F
100
AcDbEntity
  8
0
 62
     7
370
    35
100
AcDbCircle
 10
65.654347
 20
-225.880853
 30
0.0
 40
0.5001914944946979
100
AcDbArc
 50
210.012664
 51
269.987336
  0
LINE
  5
1C8
330
1F
100
AcDbEntity
  8
0
 62
     7
 48
0.110566
370
    35
100
AcDbLine
 10
63.009899
 20
-222.300918
 30
0.0
 11
65.221224
 21
-226.131045
 31
0.0
  0
ARC
  5
1C9
330
1F
100
AcDbEntity
  8
0
 62
     7
370
    35
100
AcDbCircle
 10
63.443132
 20
-222.050918
 30
0.0
 40
0.500191494493444
100
AcDbArc
 50
150.012664
 51
209.987336
  0
LINE
  5
1CA
330
1F
100
AcDbEntity
  8
0
 62
     7
 48
0.110566
370
    35
100
AcDbLine
 10
68.115561
 20
-230.388178
 30
0.0
 11
71.945688
 21
-232.599503
 31
0.0
  0
ARC
  5
1CB
330
1F
100
AcDbEntity
  8
0
 62
     7
370
    35
100
AcDbCircle
 10
71.695497
 20
-233.032626
 30
0.0
 40
0.5001914944959136
100
AcDbArc
 50
0.012664
 51
59.987336
  0
LINE
  5
1CC
330
1F
100
AcDbEntity
  8
0
 62
     7
 48
0.110566
370
    35
100
AcDbLine
 10
72.195688
 20
-237.455165
 30
0.0
 11
72.195688
 21
-233.032516
 31
0.0
  0
ARC
  5
1CD
330
1F
100
AcDbEntity
  8
0
 62
     7
370
    35
100
AcDbCircle
 10
71.695497
 20
-237.455055
 30
0.0
 40
0.5001914944951832
100
AcDbArc
 50
300.012664
 51
359.987336
  0
LINE
  5
1CE
330
1F
100
AcDbEntity
  8
0
 62
     7
 48
0.110566
370
    35
100
AcDbLine
 10
68.115561
 20
-240.099503
 30
0.0
 11
71.945688
 21
-237.888178
 31
0.0
  0
ARC
  5
1CF
330
1F
100
AcDbEntity
  8
0
 62
     7
370
    35
100
AcDbCircle
 10
67.865561
 20
-239.666269
 30
0.0
 40
0.5001914944908309
100
AcDbArc
 50
240.012664
 51
299.987336
  0
LINE
  5
1D0
330
1F
100
AcDbEntity
  8
0
 62
     7
 48
0.110566
370
    35
100
AcDbLine
 10
63.785434
 20
-237.888178
 30
0.0
 11
67.615561
 21
-240.099503
 31
0.0
  0
ARC
  5
1D1
330
1F
100
AcDbEntity
  8
0
 62
     7
370
    35
100
AcDbCircle
 10
64.035626
 20
-237.455055
 30
0.0
 40
0.5001914944992168
100
AcDbArc
 50
180.012664
 51
239.987336
  0
LINE
  5
1D2
330
1F
100
AcDbEntity
  8
0
 62
     7
 48
0.110566
370
    35
100
AcDbLine
 10
63.535434
 20
-233.032516
 30
0.0
 11
63.535434
 21
-237.455165
 31
0.0
  0
ARC
  5
1D3
330
1F
100
AcDbEntity
  8
0
 62
     7
370
    35
100
AcDbCircle
 10
64.035626
 20
-233.032626
 30
0.0
 40
0.5001914944939371
100
AcDbArc
 50
120.012664
 51
179.987336
  0
LINE
  5
1D4
330
1F
100
AcDbEntity
  8
0
 62
     7
 48
0.110566
370
    35
100
AcDbLine
 10
63.785434
 20
-232.599503
 30
0.0
 11
67.615561
 21
-230.388178
 31
0.0
  0
ARC
  5
1D5
330
1F
100
AcDbEntity
  8
0
 62
     7
370
    35
100
AcDbCircle
 10
67.865561
 20
-230.821412
 30
0.0
 40
0.5001914944912271
100
AcDbArc
 50
60.012664
 51
119.987336
  0
LINE
  5
1D6
330
1F
100
AcDbEntity
  8
0
 62
     7
 48
0.110566
370
    35
100
AcDbLine
 10
68.115561
 20
-243.581101
 30
0.0
 11
71.945688
 21
-245.792426
 31
0.0
  0
ARC
  5
1D7
330
1F
100
AcDbEntity
  8
0
 62
     7
370
    35
100
AcDbCircle
 10
71.695497
 20
-246.225549
 30
0.0
 40
0.5001914944919225
100
AcDbArc
 50
0.012664
 51
59.987336
  0
LINE
  5
1D8
330
1F
100
AcDbEntity
  8
0
 62
     7
 48
0.110566
370
    35
100
AcDbLine
 10
72.195688
 20
-250.648088
 30
0.0
 11
72.195688
 21
-246.225438
 31
0.0
  0
ARC
  5
1D9
330
1F
100
AcDbEntity
  8
0
 62
     7
370
    35
100
AcDbCircle
 10
71.695497
 20
-250.647978
 30
0.0
 40
0.5001914944923688
100
AcDbArc
 50
300.012664
 51
359.987336
  0
LINE
  5
1DA
330
1F
100
AcDbEntity
  8
0
 62
     7
 48
0.110566
370
    35
100
AcDbLine
 10
68.115561
 20
-253.292426
 30
0.0
 11
71.945688
 21
-251.081101
 31
0.0
  0
ARC
  5
1DB
330
1F
100
AcDbEntity
  8
0
 62
     7
370
    35
100
AcDbCircle
 10
67.865561
 20
-252.859192
 30
0.0
 40
0.500191494499533
100
AcDbArc
 50
240.012664
 51
299.987336
  0
LINE
  5
1DC
330
1F
100
AcDbEntity
  8
0
 62
     7
 48
0.110566
370
    35
100
AcDbLine
 10
63.785434
 20
-251.081101
 30
0.0
 11
67.615561
 21
-253.292426
 31
0.0
  0
ARC
  5
1DD
330
1F
100
AcDbEntity
  8
0
 62
     7
370
    35
100
AcDbCircle
 10
64.035626
 20
-250.647978
 30
0.0
 40
0.5001914944939955
100
AcDbArc
 50
180.012664
 51
239.987336
  0
LINE
  5
1DE
330
1F
100
AcDbEntity
  8
0
 62
     7
 48
0.110566
370
    35
100
AcDbLine
 10
63.535434
 20
-246.225438
 30
0.0
 11
63.535434
 21
-250.648088
 31
0.0
  0
ARC
  5
1DF
330
1F
100
AcDbEntity
  8
0
 62
     7
370
    35
100
AcDbCircle
 10
64.035626
 20
-246.225549
 30
0.0
 40
0.5001914944956172
100
AcDbArc
 50
120.012664
 51
179.987336
  0
LINE
  5
1E0
330
1F
100
AcDbEntity
  8
0
 62
     7
 48
0.110566
370
    35
100
AcDbLine
 10
63.785434
 20
-245.792426
 30
0.0
 11
67.615561
 21
-243.581101
 31
0.0
  0
ARC
  5
1E1
330
1F
100
AcDbEntity
  8
0
 62
     7
370
    35
100
AcDbCircle
 10
67.865561
 20
-244.014335
 30
0.0
 40
0.5001914945028115
100
AcDbArc
 50
60.012664
 51
119.987336
  0
LINE
  5
1E2
330
1F
100
AcDbEntity
  8
0
 62
     7
 48
0.110566
370
    35
100
AcDbLine
 10
46.212536
 20
-37.1
 30
0.0
 11
48.423861
 21
-33.269873
 31
0.0
  0
ARC
  5
1E3
330
1F
100
AcDbEntity
  8
0
 62
     7
370
    35
100
AcDbCircle
 10
48.856984
 20
-33.520064
 30
0.0
 40
0.5001914944888644
100
AcDbArc
 50
90.012664
 51
149.987336
  0
LINE
  5
1E4
330
1F
100
AcDbEntity
  8
0
 62
     7
 48
0.110566
370
    35
100
AcDbLine
 10
48.856874
 20
-33.019873
 30
0.0
 11
53.279524
 21
-33.019873
 31
0.0
  0
ARC
  5
1E5
330
1F
100
AcDbEntity
  8
0
 62
     7
370
    35
100
AcDbCircle
 10
53.279413
 20
-33.520064
 30
0.0
 40
0.5001914944996583
100
AcDbArc
 50
30.012664
 51
89.987336
  0
LINE
  5
1E6
330
1F
100
AcDbEntity
  8
0
 62
     7
 48
0.110566
370
    35
100
AcDbLine
 10
53.712536
 20
-33.269873
 30
0.0
 11
55.923861
 21
-37.1
 31
0.0
  0
ARC
  5
1E7
330
1F
100
AcDbEntity
  8
0
 62
     7
370
    35
100
AcDbCircle
 10
55.490627
 20
-37.35
 30
0.0
 40
0.5001914944929937
100
AcDbArc
 50
330.012664
 51
29.987336
  0
LINE
  5
1E8
330
1F
100
AcDbEntity
  8
0
 62
     7
 48
0.110566
370
    35
100
AcDbLine
 10
53.712536
 20
-41.430127
 30
0.0
 11
55.923861
 21
-37.6
 31
0.0
  0
ARC
  5
1E9
330
1F
100
AcDbEntity
  8
0
 62
     7
370
    35
100
AcDbCircle
 10
53.279413
 20
-41.179936
 30
0.0
 40
0.5001914944989203
100
AcDbArc
 50
270.012664
 51
329.987336
  0
LINE
  5
1EA
330
1F
100
AcDbEntity
  8
0
 62
     7
 48
0.110566
370
    35
100
AcDbLine
 10
48.856874
 20
-41.680127
 30
0.0
 11
53.279524
 21
-41.680127
 31
0.0
  0
ARC
  5
1EB
330
1F
100
AcDbEntity
  8
0
 62
     7
370
    35
100
AcDbCircle
 10
48.856984
 20
-41.179936
 30
0.0
 40
0.5001914945008544
100
AcDbArc
 50
210.012664
 51
269.987336
  0
LINE
  5
1EC
330
1F
100
AcDbEntity
  8
0
 62
     7
 48
0.110566
370
    35
100
AcDbLine
 10
46.212536
 20
-37.6
 30
0.0
 11
48.423861
 21
-41.430127
 31
0.0
  0
ARC
  5
1ED
330
1F
100
AcDbEntity
  8
0
 62
     7
370
    35
100
AcDbCircle
 10
46.64577
 20
-37.35
 30
0.0
 40
0.5001914944940019
100
AcDbArc
 50
150.012664
 51
209.987336
  0
LINE
  5
1EE
330
1F
100
AcDbEntity
  8
0
 62
     7
 48
0.110566
370
    35
100
AcDbLine
 10
46.212536
 20
-50.292923
 30
0.0
 11
48.423861
 21
-46.462796
 31
0.0
  0
ARC
  5
1EF
330
1F
100
AcDbEntity
  8
0
 62
     7
370
    35
100
AcDbCircle
 10
48.856984
 20
-46.712987
 30
0.0
 40
0.5001914944955193
100
AcDbArc
 50
90.012664
 51
149.987336
  0
LINE
  5
1F0
330
1F
100
AcDbEntity
  8
0
 62
     7
 48
0.110566
370
    35
100
AcDbLine
 10
48.856874
 20
-46.212796
 30
0.0
 11
53.279524
 21
-46.212796
 31
0.0
  0
ARC
  5
1F1
330
1F
100
AcDbEntity
  8
0
 62
     7
370
    35
100
AcDbCircle
 10
53.279413
 20
-46.712987
 30
0.0
 40
0.5001914944885419
100
AcDbArc
 50
30.012664
 51
89.987336
  0
LINE
  5
1F2
330
1F
100
AcDbEntity
  8
0
 62
     7
 48
0.110566
370
    35
100
AcDbLine
 10
53.712536
 20
-46.462796
 30
0.0
 11
55.923861
 21
-50.292923
 31
0.0
  0
ARC
  5
1F3
330
1F
100
AcDbEntity
  8
0
 62
     7
370
    35
100
AcDbCircle
 10
55.490627
 20
-50.542923
 30
0.0
 40
0.5001914944942113
100
AcDbArc
 50
330.012664
 51
29.987336
  0
LINE
  5
1F4
330
1F
100
AcDbEntity
  8
0
 62
     7
 48
0.110566
370
    35
100
AcDbLine
 10
53.712536
 20
-54.62305
 30
0.0
 11
55.923861
 21
-50.792923
 31
0.0
  0
ARC
  5
1F5
330
1F
100
AcDbEntity
  8
0
 62
     7
370
    35
100
AcDbCircle
 10
53.279413
 20
-54.372858
 30
0.0
 40
0.500191494497641
100
AcDbArc
 50
270.012664
 51
329.987336
  0
LINE
  5
1F6
330
1F
100
AcDbEntity
  8
0
 62
     7
 48
0.110566
370
    35
100
AcDbLine
 10
48.856874
 20
-54.87305
 30
0.0
 11
53.279524
 21
-54.87305
 31
0.0
  0
ARC
  5
1F7
330
1F
100
AcDbEntity
  8
0
 62
     7
370
    35
100
AcDbCircle
 10
48.856984
 20
-54.372858
 30
0.0
 40
0.500191494488569
100
AcDbArc
 50
210.012664
 51
269.987336
  0
LINE
  5
1F8
330
1F
100
AcDbEntity
  8
0
 62
     7
 48
0.110566
370
    35
100
AcDbLine
 10
46.212536
 20
-50.792923
 30
0.0
 11
48.423861
 21
-54.62305
 31
0.0
  0
ARC
  5
1F9
330
1F
100
AcDbEntity
  8
0
 62
     7
370
    35
100
AcDbCircle
 10
46.64577
 20
-50.542923
 30
0.0
 40
0.5001914944968339
100
AcDbArc
 50
150.012664
 51
209.987336
  0
LINE
  5
1FA
330
1F
100
AcDbEntity
  8
0
 62
     7
 48
0.110566
370
    35
100
AcDbLine
 10
46.212536
 20
-63.485845
 30
0.0
 11
48.423861
 21
-59.655718
 31
0.0
  0
ARC
  5
1FB
330
1F
100
AcDbEntity
  8
0
 62
     7
370
    35
100
AcDbCircle
 10
48.856984
 20
-59.90591
 30
0.0
 40
0.5001914944961764
100
AcDbArc
 50
90.012664
 51
149.987336
  0
LINE
  5
1FC
330
1F
100
AcDbEntity
  8
0
 62
     7
 48
0.110566
370
    35
100
AcDbLine
 10
48.856874
 20
-59.405718
 30
0.0
 11
53.279524
 21
-59.405718
 31
0.0
  0
ARC
  5
1FD
330
1F
100
AcDbEntity
  8
0
 62
     7
370
    35
100
AcDbCircle
 10
53.279413
 20
-59.90591
 30
0.0
 40
0.5001914944994326
100
AcDbArc
 50
30.012664
 51
89.987336
  0
LINE
  5
1FE
330
1F
100
AcDbEntity
  8
0
 62
     7
 48
0.110566
370
    35
100
AcDbLine
 10
53.712536
 20
-59.655718
 30
0.0
 11
55.923861
 21
-63.485845
 31
0.0
  0
ARC
  5
1FF
330
1F
100
AcDbEntity
  8
0
 62
     7
370
    35
100
AcDbCircle
 10
55.490627
 20
-63.735845
 30
0.0
 40
0.5001914944946413
100
AcDbArc
 50
330.012664
 51
29.987336
  0
LINE
  5
200
330
1F
100
AcDbEntity
  8
0
 62
     7
 48
0.110566
370
    35
100
AcDbLine
 10
53.712536
 20
-67.815972
 30
0.0
 11
55.923861
 21
-63.985845
 31
0.0
  0
ARC
  5
201
330
1F
100
AcDbEntity
  8
0
 62
     7
370
    35
100
AcDbCircle
 10
53.279413
 20
-67.565781
 30
0.0
 40
0.5001914944884882
100
AcDbArc
 50
270.012664
 51
329.987336
  0
LINE
  5
202
330
1F
100
AcDbEntity
  8
0
 62
     7
 48
0.110566
370
    35
100
AcDbLine
 10
48.856874
 20
-68.065972
 30
0.0
 11
53.279524
 21
-68.065972
 31
0.0
  0
ARC
  5
203
330
1F
100
AcDbEntity
  8
0
 62
     7
370
    35
100
AcDbCircle
 10
48.856984
 20
-67.565781
 30
0.0
 40
0.5001914944988936
100
AcDbArc
 50
210.012664
 51
269.987336
  0
LINE
  5
204
330
1F
100
AcDbEntity
  8
0
 62
     7
 48
0.110566
370
    35
100
AcDbLine
 10
46.212536
 20
-63.985845
 30
0.0
 11
48.423861
 21
-67.815972
 31
0.0
  0
ARC
  5
205
330
1F
100
AcDbEntity
  8
0
 62
     7
370
    35
100
AcDbCircle
 10
46.64577
 20
-63.735845
 30
0.0
 40
0.5001914944914106
100
AcDbArc
 50
150.012664
 51
209.987336
  0
LINE
  5
206
330
1F
100
AcDbEntity
  8
0
 62
     7
 48
0.110566
370
    35
100
AcDbLine
 10
46.212536
 20
-76.678768
 30
0.0
 11
48.423861
 21
-72.848641
 31
0.0
  0
ARC
  5
207
330
1F
100
AcDbEntity
  8
0
 62
     7
370
    35
100
AcDbCircle
 10
48.856984
 20
-73.098833
 30
0.0
 40
0.5001914944890994
100
AcDbArc
 50
90.012664
 51
149.987336
  0
LINE
  5
208
330
1F
100
AcDbEntity
  8
0
 62
     7
 48
0.110566
370
    35
100
AcDbLine
 10
48.856874
 20
-72.598641
 30
0.0
 11
53.279524
 21
-72.598641
 31
0.0
  0
ARC
  5
209
330
1F
100
AcDbEntity
  8
0
 62
     7
370
    35
100
AcDbCircle
 10
53.279413
 20
-73.098833
 30
0.0
 40
0.5001914944890397
100
AcDbArc
 50
30.012664
 51
89.987336
  0
LINE
  5
20A
330
1F
100
AcDbEntity
  8
0
 62
     7
 48
0.110566
370
    35
100
AcDbLine
 10
53.712536
 20
-72.848641
 30
0.0
 11
55.923861
 21
-76.678768
 31
0.0
  0
ARC
  5
20B
330
1F
100
AcDbEntity
  8
0
 62
     7
370
    35
100
AcDbCircle
 10
55.490627
 20
-76.928768
 30
0.0
 40
0.5001914944928173
100
AcDbArc
 50
330.012664
 51
29.987336
  0
LINE
  5
20C
330
1F
100
AcDbEntity
  8
0
 62
     7
 48
0.110566
370
    35
100
AcDbLine
 10
53.712536
 20
-81.008895
 30
0.0
 11
55.923861
 21
-77.178768
 31
0.0
  0
ARC
  5
20D
330
1F
100
AcDbEntity
  8
0
 62
     7
370
    35
100
AcDbCircle
 10
53.279413
 20
-80.758704
 30
0.0
 40
0.5001914944927393
100
AcDbArc
 50
270.012664
 51
329.987336
  0
LINE
  5
20E
330
1F
100
AcDbEntity
  8
0
 62
     7
 48
0.110566
370
    35
100
AcDbLine
 10
48.856874
 20
-81.258895
 30
0.0
 11
53.279524
 21
-81.258895
 31
0.0
  0
ARC
  5
20F
330
1F
100
AcDbEntity
  8
0
 62
     7
370
    35
100
AcDbCircle
 10
48.856984
 20
-80.758704
 30
0.0
 40
0.5001914944937605
100
AcDbArc
 50
210.012664
 51
269.987336
  0
LINE
  5
210
330
1F
100
AcDbEntity
  8
0
 62
     7
 48
0.110566
370
    35
100
AcDbLine
 10
46.212536
 20
-77.178768
 30
0.0
 11
48.423861
 21
-81.008895
 31
0.0
  0
ARC
  5
211
330
1F
100
AcDbEntity
  8
0
 62
     7
370
    35
100
AcDbCircle
 10
46.64577
 20
-76.928768
 30
0.0
 40
0.5001914944939453
100
AcDbArc
 50
150.012664
 51
209.987336
  0
LINE
  5
212
330
1F
100
AcDbEntity
  8
0
 62
     7
 48
0.110566
370
    35
100
AcDbLine
 10
46.212536
 20
-116.257536
 30
0.0
 11
48.423861
 21
-112.427409
 31
0.0
  0
ARC
  5
213
330
1F
100
AcDbEntity
  8
0
 62
     7
370
    35
100
AcDbCircle
 10
48.856984
 20
-112.677601
 30
0.0
 40
0.500191494491585
100
AcDbArc
 50
90.012664
 51
149.987336
  0
LINE
  5
214
330
1F
100
AcDbEntity
  8
0
 62
     7
 48
0.110566
370
    35
100
AcDbLine
 10
48.856874
 20
-112.177409
 30
0.0
 11
53.279524
 21
-112.177409
 31
0.0
  0
ARC
  5
215
330
1F
100
AcDbEntity
  8
0
 62
     7
370
    35
100
AcDbCircle
 10
53.279413
 20
-112.677601
 30
0.0
 40
0.5001914944945559
100
AcDbArc
 50
30.012664
 51
89.987336
  0
LINE
  5
216
330
1F
100
AcDbEntity
  8
0
 62
     7
 48
0.110566
370
    35
100
AcDbLine
 10
53.712536
 20
-112.427409
 30
0.0
 11
55.923861
 21
-116.257536
 31
0.0
  0
ARC
  5
217
330
1F
100
AcDbEntity
  8
0
 62
     7
370
    35
100
AcDbCircle
 10
55.490627
 20
-116.507536
 30
0.0
 40
0.5001914944934681
100
AcDbArc
 50
330.012664
 51
29.987336
  0
LINE
  5
218
330
1F
100
AcDbEntity
  8
0
 62
     7
 48
0.110566
370
    35
100
AcDbLine
 10
53.712536
 20
-120.587663
 30
0.0
 11
55.923861
 21
-116.757536
 31
0.0
  0
ARC
  5
219
330
1F
100
AcDbEntity
  8
0
 62
     7
370
    35
100
AcDbCircle
 10
53.279413
 20
-120.337472
 30
0.0
 40
0.5001914944942877
100
AcDbArc
 50
270.012664
 51
329.987336
  0
LINE
  5
21A
330
1F
100
AcDbEntity
  8
0
 62
     7
 48
0.110566
370
    35
100
AcDbLine
 10
48.856874
 20
-120.837663
 30
0.0
 11
53.279524
 21
-120.837663
 31
0.0
  0
ARC
  5
21B
330
1F
100
AcDbEntity
  8
0
 62
     7
370
    35
100
AcDbCircle
 10
48.856984
 20
-120.337472
 30
0.0
 40
0.5001914944885718
100
AcDbArc
 50
210.012664
 51
269.987336
  0
LINE
  5
21C
330
1F
100
AcDbEntity
  8
0
 62
     7
 48
0.110566
370
    35
100
AcDbLine
 10
46.212536
 20
-116.757536
 30
0.0
 11
48.423861
 21
-120.587663
 31
0.0
  0
ARC
  5
21D
330
1F
100
AcDbEntity
  8
0
 62
     7
370
    35
100
AcDbCircle
 10
46.64577
 20
-116.507536
 30
0.0
 40
0.5001914944920229
100
AcDbArc
 50
150.012664
 51
209.987336
  0
LINE
  5
21E
330
1F
100
AcDbEntity
  8
0
 62
     7
 48
0.110566
370
    35
100
AcDbLine
 10
46.212536
 20
-129.450459
 30
0.0
 11
48.423861
 21
-125.620332
 31
0.0
  0
ARC
  5
21F
330
1F
100
AcDbEntity
  8
0
 62
     7
370
    35
100
AcDbCircle
 10
48.856984
 20
-125.870523
 30
0.0
 40
0.5001914944979539
100
AcDbArc
 50
90.012664
 51
149.987336
  0
LINE
  5
220
330
1F
100
AcDbEntity
  8
0
 62
     7
 48
0.110566
370
    35
100
AcDbLine
 10
48.856874
 20
-125.370332
 30
0.0
 11
53.279524
 21
-125.370332
 31
0.0
  0
ARC
  5
221
330
1F
100
AcDbEntity
  8
0
 62
     7
370
    35
100
AcDbCircle
 10
53.279413
 20
-125.870523
 30
0.0
 40
0.5001914944955411
100
AcDbArc
 50
30.012664
 51
89.987336
  0
LINE
  5
222
330
1F
100
AcDbEntity
  8
0
 62
     7
 48
0.110566
370
    35
100
AcDbLine
 10
53.712536
 20
-125.620332
 30
0.0
 11
55.923861
 21
-129.450459
 31
0.0
  0
ARC
  5
223
330
1F
100
AcDbEntity
  8
0
 62
     7
370
    35
100
AcDbCircle
 10
55.490627
 20
-129.700459
 30
0.0
 40
0.500191494494938
100
AcDbArc
 50
330.012664
 51
29.987336
  0
LINE
  5
224
330
1F
100
AcDbEntity
  8
0
 62
     7
 48
0.110566
370
    35
100
AcDbLine
 10
53.712536
 20
-133.780586
 30
0.0
 11
55.923861
 21
-129.950459
 31
0.0
  0
ARC
  5
225
330
1F
100
AcDbEntity
  8
0
 62
     7
370
    35
100
AcDbCircle
 10
53.279413
 20
-133.530394
 30
0.0
 40
0.5001914944920252
100
AcDbArc
 50
270.012664
 51
329.987336
  0
LINE
  5
226
330
1F
100
AcDbEntity
  8
0
 62
     7
 48
0.110566
370
    35
100
AcDbLine
 10
48.856874
 20
-134.030586
 30
0.0
 11
53.279524
 21
-134.030586
 31
0.0
  0
ARC
  5
227
330
1F
100
AcDbEntity
  8
0
 62
     7
370
    35
100
AcDbCircle
 10
48.856984
 20
-133.530394
 30
0.0
 40
0.5001914944924793
100
AcDbArc
 50
210.012664
 51
269.987336
  0
LINE
  5
228
330
1F
100
AcDbEntity
  8
0
 62
     7
 48
0.110566
370
    35
100
AcDbLine
 10
46.212536
 20
-129.950459
 30
0.0
 11
48.423861
 21
-133.780586
 31
0.0
  0
ARC
  5
229
330
1F
100
AcDbEntity
  8
0
 62
     7
370
    35
100
AcDbCircle
 10
46.64577
 20
-129.700459
 30
0.0
 40
0.5001914944929806
100
AcDbArc
 50
150.012664
 51
209.987336
  0
LINE
  5
22A
330
1F
100
AcDbEntity
  8
0
 62
     7
 48
0.110566
370
    35
100
AcDbLine
 10
46.212536
 20
-142.643382
 30
0.0
 11
48.423861
 21
-138.813255
 31
0.0
  0
ARC
  5
22B
330
1F
100
AcDbEntity
  8
0
 62
     7
370
    35
100
AcDbCircle
 10
48.856984
 20
-139.063446
 30
0.0
 40
0.5001914945037361
100
AcDbArc
 50
90.012664
 51
149.987336
  0
LINE
  5
22C
330
1F
100
AcDbEntity
  8
0
 62
     7
 48
0.110566
370
    35
100
AcDbLine
 10
48.856874
 20
-138.563255
 30
0.0
 11
53.279524
 21
-138.563255
 31
0.0
  0
ARC
  5
22D
330
1F
100
AcDbEntity
  8
0
 62
     7
370
    35
100
AcDbCircle
 10
53.279413
 20
-139.063446
 30
0.0
 40
0.5001914944924583
100
AcDbArc
 50
30.012664
 51
89.987336
  0
LINE
  5
22E
330
1F
100
AcDbEntity
  8
0
 62
     7
 48
0.110566
370
    35
100
AcDbLine
 10
53.712536
 20
-138.813255
 30
0.0
 11
55.923861
 21
-142.643382
 31
0.0
  0
ARC
  5
22F
330
1F
100
AcDbEntity
  8
0
 62
     7
370
    35
100
AcDbCircle
 10
55.490627
 20
-142.893382
 30
0.0
 40
0.5001914944967709
100
AcDbArc
 50
330.012664
 51
29.987336
  0
LINE
  5
230
330
1F
100
AcDbEntity
  8
0
 62
     7
 48
0.110566
370
    35
100
AcDbLine
 10
53.712536
 20
-146.973509
 30
0.0
 11
55.923861
 21
-143.143382
 31
0.0
  0
ARC
  5
231
330
1F
100
AcDbEntity
  8
0
 62
     7
370
    35
100
AcDbCircle
 10
53.279413
 20
-146.723317
 30
0.0
 40
0.5001914945004382
100
AcDbArc
 50
270.012664
 51
329.987336
  0
LINE
  5
232
330
1F
100
AcDbEntity
  8
0
 62
     7
 48
0.110566
370
    35
100
AcDbLine
 10
48.856874
 20
-147.223509
 30
0.0
 11
53.279524
 21
-147.223509
 31
0.0
  0
ARC
  5
233
330
1F
100
AcDbEntity
  8
0
 62
     7
370
    35
100
AcDbCircle
 10
48.856984
 20
-146.723317
 30
0.0
 40
0.5001914944933077
100
AcDbArc
 50
210.012664
 51
269.987336
  0
LINE
  5
234
330
1F
100
AcDbEntity
  8
0
 62
     7
 48
0.110566
370
    35
100
AcDbLine
 10
46.212536
 20
-143.143382
 30
0.0
 11
48.423861
 21
-146.973509
 31
0.0
  0
ARC
  5
235
330
1F
100
AcDbEntity
  8
0
 62
     7
370
    35
100
AcDbCircle
 10
46.64577
 20
-142.893382
 30
0.0
 40
0.5001914944914091
100
AcDbArc
 50
150.012664
 51
209.987336
  0
LINE
  5
236
330
1F
100
AcDbEntity
  8
0
 62
     7
 48
0.110566
370
    35
100
AcDbLine
 10
46.212536
 20
-155.836304
 30
0.0
 11
48.423861
 21
-152.006177
 31
0.0
  0
ARC
  5
237
330
1F
100
AcDbEntity
  8
0
 62
     7
370
    35
100
AcDbCircle
 10
48.856984
 20
-152.256369
 30
0.0
 40
0.5001914944954424
100
AcDbArc
 50
90.012664
 51
149.987336
  0
LINE
  5
238
330
1F
100
AcDbEntity
  8
0
 62
     7
 48
0.110566
370
    35
100
AcDbLine
 10
48.856874
 20
-151.756177
 30
0.0
 11
53.279524
 21
-151.756177
 31
0.0
  0
ARC
  5
239
330
1F
100
AcDbEntity
  8
0
 62
     7
370
    35
100
AcDbCircle
 10
53.279413
 20
-152.256369
 30
0.0
 40
0.5001914944907796
100
AcDbArc
 50
30.012664
 51
89.987336
  0
LINE
  5
23A
330
1F
100
AcDbEntity
  8
0
 62
     7
 48
0.110566
370
    35
100
AcDbLine
 10
53.712536
 20
-152.006177
 30
0.0
 11
55.923861
 21
-155.836304
 31
0.0
  0
ARC
  5
23B
330
1F
100
AcDbEntity
  8
0
 62
     7
370
    35
100
AcDbCircle
 10
55.490627
 20
-156.086304
 30
0.0
 40
0.5001914944955633
100
AcDbArc
 50
330.012664
 51
29.987336
  0
LINE
  5
23C
330
1F
100
AcDbEntity
  8
0
 62
     7
 48
0.110566
370
    35
100
AcDbLine
 10
53.712536
 20
-160.166431
 30
0.0
 11
55.923861
 21
-156.336304
 31
0.0
  0
ARC
  5
23D
330
1F
100
AcDbEntity
  8
0
 62
     7
370
    35
100
AcDbCircle
 10
53.279413
 20
-159.91624
 30
0.0
 40
0.5001914944983088
100
AcDbArc
 50
270.012664
 51
329.987336
  0
LINE
  5
23E
330
1F
100
AcDbEntity
  8
0
 62
     7
 48
0.110566
370
    35
100
AcDbLine
 10
48.856874
 20
-160.416431
 30
0.0
 11
53.279524
 21
-160.416431
 31
0.0
  0
ARC
  5
23F
330
1F
100
AcDbEntity
  8
0
 62
     7
370
    35
100
AcDbCircle
 10
48.856984
 20
-159.91624
 30
0.0
 40
0.5001914944940117
100
AcDbArc
 50
210.012664
 51
269.987336
  0
LINE
  5
240
330
1F
100
AcDbEntity
  8
0
 62
     7
 48
0.110566
370
    35
100
AcDbLine
 10
46.212536
 20
-156.336304
 30
0.0
 11
48.423861
 21
-160.166431
 31
0.0
  0
ARC
  5
241
330
1F
100
AcDbEntity
  8
0
 62
     7
370
    35
100
AcDbCircle
 10
46.64577
 20
-156.086304
 30
0.0
 40
0.5001914944939553
100
AcDbArc
 50
150.012664
 51
209.987336
  0
LINE
  5
242
330
1F
100
AcDbEntity
  8
0
 62
     7
 48
0.110566
370
    35
100
AcDbLine
 10
46.212536
 20
-169.029227
 30
0.0
 11
48.423861
 21
-165.1991
 31
0.0
  0
ARC
  5
243
330
1F
100
AcDbEntity
  8
0
 62
     7
370
    35
100
AcDbCircle
 10
48.856984
 20
-165.449291
 30
0.0
 40
0.5001914945006387
100
AcDbArc
 50
90.012664
 51
149.987336
  0
LINE
  5
244
330
1F
100
AcDbEntity
  8
0
 62
     7
 48
0.110566
370
    35
100
AcDbLine
 10
48.856874
 20
-164.9491
 30
0.0
 11
53.279524
 21
-164.9491
 31
0.0
  0
ARC
  5
245
330
1F
100
AcDbEntity
  8
0
 62
     7
370
    35
100
AcDbCircle
 10
53.279413
 20
-165.449291
 30
0.0
 40
0.500191494493218
100
AcDbArc
 50
30.012664
 51
89.987336
  0
LINE
  5
246
330
1F
100
AcDbEntity
  8
0
 62
     7
 48
0.110566
370
    35
100
AcDbLine
 10
53.712536
 20
-165.1991
 30
0.0
 11
55.923861
 21
-169.029227
 31
0.0
  0
ARC
  5
247
330
1F
100
AcDbEntity
  8
0
 62
     7
370
    35
100
AcDbCircle
 10
55.490627
 20
-169.279227
 30
0.0
 40
0.5001914944942537
100
AcDbArc
 50
330.012664
 51
29.987336
  0
LINE
  5
248
330
1F
100
AcDbEntity
  8
0
 62
     7
 48
0.110566
370
    35
100
AcDbLine
 10
53.712536
 20
-173.359354
 30
0.0
 11
55.923861
 21
-169.529227
 31
0.0
  0
ARC
  5
249
330
1F
100
AcDbEntity
  8
0
 62
     7
370
    35
100
AcDbCircle
 10
53.279413
 20
-173.109163
 30
0.0
 40
0.5001914944906649
100
AcDbArc
 50
270.012664
 51
329.987336
  0
LINE
  5
24A
330
1F
100
AcDbEntity
  8
0
 62
     7
 48
0.110566
370
    35
100
AcDbLine
 10
48.856874
 20
-173.609354
 30
0.0
 11
53.279524
 21
-173.609354
 31
0.0
  0
ARC
  5
24B
330
1F
100
AcDbEntity
  8
0
 62
     7
370
    35
100
AcDbCircle
 10
48.856984
 20
-173.109163
 30
0.0
 40
0.5001914944931063
100
AcDbArc
 50
210.012664
 51
269.987336
  0
LINE
  5
24C
330
1F
100
AcDbEntity
  8
0
 62
     7
 48
0.110566
370
    35
100
AcDbLine
 10
46.212536
 20
-169.529227
 30
0.0
 11
48.423861
 21
-173.359354
 31
0.0
  0
ARC
  5
24D
330
1F
100
AcDbEntity
  8
0
 62
     7
370
    35
100
AcDbCircle
 10
46.64577
 20
-169.279227
 30
0.0
 40
0.5001914944927289
100
AcDbArc
 50
150.012664
 51
209.987336
  0
LINE
  5
24E
330
1F
100
AcDbEntity
  8
0
 62
     7
 48
0.110566
370
    35
100
AcDbLine
 10
46.212536
 20
-182.22215
 30
0.0
 11
48.423861
 21
-178.392023
 31
0.0
  0
ARC
  5
24F
330
1F
100
AcDbEntity
  8
0
 62
     7
370
    35
100
AcDbCircle
 10
48.856984
 20
-178.642214
 30
0.0
 40
0.5001914944954122
100
AcDbArc
 50
90.012664
 51
149.987336
  0
LINE
  5
250
330
1F
100
AcDbEntity
  8
0
 62
     7
 48
0.110566
370
    35
100
AcDbLine
 10
48.856874
 20
-178.142023
 30
0.0
 11
53.279524
 21
-178.142023
 31
0.0
  0
ARC
  5
251
330
1F
100
AcDbEntity
  8
0
 62
     7
370
    35
100
AcDbCircle
 10
53.279413
 20
-178.642214
 30
0.0
 40
0.5001914944953246
100
AcDbArc
 50
30.012664
 51
89.987336
  0
LINE
  5
252
330
1F
100
AcDbEntity
  8
0
 62
     7
 48
0.110566
370
    35
100
AcDbLine
 10
53.712536
 20
-178.392023
 30
0.0
 11
55.923861
 21
-182.22215
 31
0.0
  0
ARC
  5
253
330
1F
100
AcDbEntity
  8
0
 62
     7
370
    35
100
AcDbCircle
 10
55.490627
 20
-182.47215
 30
0.0
 40
0.5001914944939212
100
AcDbArc
 50
330.012664
 51
29.987336
  0
LINE
  5
254
330
1F
100
AcDbEntity
  8
0
 62
     7
 48
0.110566
370
    35
100
AcDbLine
 10
53.712536
 20
-186.552277
 30
0.0
 11
55.923861
 21
-182.72215
 31
0.0
  0
ARC
  5
255
330
1F
100
AcDbEntity
  8
0
 62
     7
370
    35
100
AcDbCircle
 10
53.279413
 20
-186.302085
 30
0.0
 40
0.5001914944967745
100
AcDbArc
 50
270.012664
 51
329.987336
  0
LINE
  5
256
330
1F
100
AcDbEntity
  8
0
 62
     7
 48
0.110566
370
    35
100
AcDbLine
 10
48.856874
 20
-186.802277
 30
0.0
 11
53.279524
 21
-186.802277
 31
0.0
  0
ARC
  5
257
330
1F
100
AcDbEntity
  8
0
 62
     7
370
    35
100
AcDbCircle
 10
48.856984
 20
-186.302085
 30
0.0
 40
0.500191494492881
100
AcDbArc
 50
210.012664
 51
269.987336
  0
LINE
  5
258
330
1F
100
AcDbEntity
  8
0
 62
     7
 48
0.110566
370
    35
100
AcDbLine
 10
46.212536
 20
-182.72215
 30
0.0
 11
48.423861
 21
-186.552277
 31
0.0
  0
ARC
  5
259
330
1F
100
AcDbEntity
  8
0
 62
     7
370
    35
100
AcDbCircle
 10
46.64577
 20
-182.47215
 30
0.0
 40
0.5001914944929811
100
AcDbArc
 50
150.012664
 51
209.987336
  0
LINE
  5
25A
330
1F
100
AcDbEntity
  8
0
 62
     7
 48
0.110566
370
    35
100
AcDbLine
 10
46.212536
 20
-195.415072
 30
0.0
 11
48.423861
 21
-191.584945
 31
0.0
  0
ARC
  5
25B
330
1F
100
AcDbEntity
  8
0
 62
     7
370
    35
100
AcDbCircle
 10
48.856984
 20
-191.835137
 30
0.0
 40
0.5001914944909748
100
AcDbArc
 50
90.012664
 51
149.987336
  0
LINE
  5
25C
330
1F
100
AcDbEntity
  8
0
 62
     7
 48
0.110566
370
    35
100
AcDbLine
 10
48.856874
 20
-191.334945
 30
0.0
 11
53.279524
 21
-191.334945
 31
0.0
  0
ARC
  5
25D
330
1F
100
AcDbEntity
  8
0
 62
     7
370
    35
100
AcDbCircle
 10
53.279413
 20
-191.835137
 30
0.0
 40
0.5001914944922838
100
AcDbArc
 50
30.012664
 51
89.987336
  0
LINE
  5
25E
330
1F
100
AcDbEntity
  8
0
 62
     7
 48
0.110566
370
    35
100
AcDbLine
 10
53.712536
 20
-191.584945
 30
0.0
 11
55.923861
 21
-195.415072
 31
0.0
  0
ARC
  5
25F
330
1F
100
AcDbEntity
  8
0
 62
     7
370
    35
100
AcDbCircle
 10
55.490627
 20
-195.665072
 30
0.0
 40
0.5001914944934511
100
AcDbArc
 50
330.012664
 51
29.987336
  0
LINE
  5
260
330
1F
100
AcDbEntity
  8
0
 62
     7
 48
0.110566
370
    35
100
AcDbLine
 10
53.712536
 20
-199.745199
 30
0.0
 11
55.923861
 21
-195.915072
 31
0.0
  0
ARC
  5
261
330
1F
100
AcDbEntity
  8
0
 62
     7
370
    35
100
AcDbCircle
 10
53.279413
 20
-199.495008
 30
0.0
 40
0.5001914944908313
100
AcDbArc
 50
270.012664
 51
329.987336
  0
LINE
  5
262
330
1F
100
AcDbEntity
  8
0
 62
     7
 48
0.110566
370
    35
100
AcDbLine
 10
48.856874
 20
-199.995199
 30
0.0
 11
53.279524
 21
-199.995199
 31
0.0
  0
ARC
  5
263
330
1F
100
AcDbEntity
  8
0
 62
     7
370
    35
100
AcDbCircle
 10
48.856984
 20
-199.495008
 30
0.0
 40
0.5001914944922262
100
AcDbArc
 50
210.012664
 51
269.987336
  0
LINE
  5
264
330
1F
100
AcDbEntity
  8
0
 62
     7
 48
0.110566
370
    35
100
AcDbLine
 10
46.212536
 20
-195.915072
 30
0.0
 11
48.423861
 21
-199.745199
 31
0.0
  0
ARC
  5
265
330
1F
100
AcDbEntity
  8
0
 62
     7
370
    35
100
AcDbCircle
 10
46.64577
 20
-195.665072
 30
0.0
 40
0.5001914944930246
100
AcDbArc
 50
150.012664
 51
209.987336
  0
LINE
  5
266
330
1F
100
AcDbEntity
  8
0
 62
     7
 48
0.110566
370
    35
100
AcDbLine
 10
46.212536
 20
-208.607995
 30
0.0
 11
48.423861
 21
-204.777868
 31
0.0
  0
ARC
  5
267
330
1F
100
AcDbEntity
  8
0
 62
     7
370
    35
100
AcDbCircle
 10
48.856984
 20
-205.02806
 30
0.0
 40
0.5001914944929973
100
AcDbArc
 50
90.012664
 51
149.987336
  0
LINE
  5
268
330
1F
100
AcDbEntity
  8
0
 62
     7
 48
0.110566
370
    35
100
AcDbLine
 10
48.856874
 20
-204.527868
 30
0.0
 11
53.279524
 21
-204.527868
 31
0.0
  0
ARC
  5
269
330
1F
100
AcDbEntity
  8
0
 62
     7
370
    35
100
AcDbCircle
 10
53.279413
 20
-205.02806
 30
0.0
 40
0.5001914944911201
100
AcDbArc
 50
30.012664
 51
89.987336
  0
LINE
  5
26A
330
1F
100
AcDbEntity
  8
0
 62
     7
 48
0.110566
370
    35
100
AcDbLine
 10
53.712536
 20
-204.777868
 30
0.0
 11
55.923861
 21
-208.607995
 31
0.0
  0
ARC
  5
26B
330
1F
100
AcDbEntity
  8
0
 62
     7
370
    35
100
AcDbCircle
 10
55.490627
 20
-208.857995
 30
0.0
 40
0.5001914944958621
100
AcDbArc
 50
330.012664
 51
29.987336
  0
LINE
  5
26C
330
1F
100
AcDbEntity
  8
0
 62
     7
 48
0.110566
370
    35
100
AcDbLine
 10
53.712536
 20
-212.938122
 30
0.0
 11
55.923861
 21
-209.107995
 31
0.0
  0
ARC
  5
26D
330
1F
100
AcDbEntity
  8
0
 62
     7
370
    35
100
AcDbCircle
 10
53.279413
 20
-212.687931
 30
0.0
 40
0.500191494498594
100
AcDbArc
 50
270.012664
 51
329.987336
  0
LINE
  5
26E
330
1F
100
AcDbEntity
  8
0
 62
     7
 48
0.110566
370
    35
100
AcDbLine
 10
48.856874
 20
-213.188122
 30
0.0
 11
53.279524
 21
-213.188122
 31
0.0
  0
ARC
  5
26F
330
1F
100
AcDbEntity
  8
0
 62
     7
370
    35
100
AcDbCircle
 10
48.856984
 20
-212.687931
 30
0.0
 40
0.5001914944983971
100
AcDbArc
 50
210.012664
 51
269.987336
  0
LINE
  5
270
330
1F
100
AcDbEntity
  8
0
 62
     7
 48
0.110566
370
    35
100
AcDbLine
 10
46.212536
 20
-209.107995
 30
0.0
 11
48.423861
 21
-212.938122
 31
0.0
  0
ARC
  5
271
330
1F
100
AcDbEntity
  8
0
 62
     7
370
    35
100
AcDbCircle
 10
46.64577
 20
-208.857995
 30
0.0
 40
0.5001914944930521
100
AcDbArc
 50
150.012664
 51
209.987336
  0
LINE
  5
272
330
1F
100
AcDbEntity
  8
0
 62
     7
 48
0.110566
370
    35
100
AcDbLine
 10
46.212536
 20
-221.800918
 30
0.0
 11
48.423861
 21
-217.970791
 31
0.0
  0
ARC
  5
273
330
1F
100
AcDbEntity
  8
0
 62
     7
370
    35
100
AcDbCircle
 10
48.856984
 20
-218.220982
 30
0.0
 40
0.5001914944916022
100
AcDbArc
 50
90.012664
 51
149.987336
  0
LINE
  5
274
330
1F
100
AcDbEntity
  8
0
 62
     7
 48
0.110566
370
    35
100
AcDbLine
 10
48.856874
 20
-217.720791
 30
0.0
 11
53.279524
 21
-217.720791
 31
0.0
  0
ARC
  5
275
330
1F
100
AcDbEntity
  8
0
 62
     7
370
    35
100
AcDbCircle
 10
53.279413
 20
-218.220982
 30
0.0
 40
0.5001914944966069
100
AcDbArc
 50
30.012664
 51
89.987336
  0
LINE
  5
276
330
1F
100
AcDbEntity
  8
0
 62
     7
 48
0.110566
370
    35
100
AcDbLine
 10
53.712536
 20
-217.970791
 30
0.0
 11
55.923861
 21
-221.800918
 31
0.0
  0
ARC
  5
277
330
1F
100
AcDbEntity
  8
0
 62
     7
370
    35
100
AcDbCircle
 10
55.490627
 20
-222.050918
 30
0.0
 40
0.5001914944941298
100
AcDbArc
 50
330.012664
 51
29.987336
  0
LINE
  5
278
330
1F
100
AcDbEntity
  8
0
 62
     7
 48
0.110566
370
    35
100
AcDbLine
 10
53.712536
 20
-226.131045
 30
0.0
 11
55.923861
 21
-222.300918
 31
0.0
  0
ARC
  5
279
330
1F
100
AcDbEntity
  8
0
 62
     7
370
    35
100
AcDbCircle
 10
53.279413
 20
-225.880853
 30
0.0
 40
0.50019149449928
100
AcDbArc
 50
270.012664
 51
329.987336
  0
LINE
  5
27A
330
1F
100
AcDbEntity
  8
0
 62
     7
 48
0.110566
370
    35
100
AcDbLine
 10
48.856874
 20
-226.381045
 30
0.0
 11
53.279524
 21
-226.381045
 31
0.0
  0
ARC
  5
27B
330
1F
100
AcDbEntity
  8
0
 62
     7
370
    35
100
AcDbCircle
 10
48.856984
 20
-225.880853
 30
0.0
 40
0.5001914944883887
100
AcDbArc
 50
210.012664
 51
269.987336
  0
LINE
  5
27C
330
1F
100
AcDbEntity
  8
0
 62
     7
 48
0.110566
370
    35
100
AcDbLine
 10
46.212536
 20
-222.300918
 30
0.0
 11
48.423861
 21
-226.131045
 31
0.0
  0
ARC
  5
27D
330
1F
100
AcDbEntity
  8
0
 62
     7
370
    35
100
AcDbCircle
 10
46.64577
 20
-222.050918
 30
0.0
 40
0.5001914944928002
100
AcDbArc
 50
150.012664
 51
209.987336
  0
LINE
  5
27E
330
1F
100
AcDbEntity
  8
0
 62
     7
 48
0.110566
370
    35
100
AcDbLine
 10
51.318199
 20
-230.388178
 30
0.0
 11
55.148326
 21
-232.599503
 31
0.0
  0
ARC
  5
27F
330
1F
100
AcDbEntity
  8
0
 62
     7
370
    35
100
AcDbCircle
 10
54.898134
 20
-233.032626
 30
0.0
 40
0.5001914944944694
100
AcDbArc
 50
0.012664
 51
59.987336
  0
LINE
  5
280
330
1F
100
AcDbEntity
  8
0
 62
     7
 48
0.110566
370
    35
100
AcDbLine
 10
55.398326
 20
-237.455165
 30
0.0
 11
55.398326
 21
-233.032516
 31
0.0
  0
ARC
  5
281
330
1F
100
AcDbEntity
  8
0
 62
     7
370
    35
100
AcDbCircle
 10
54.898134
 20
-237.455055
 30
0.0
 40
0.5001914944999637
100
AcDbArc
 50
300.012664
 51
359.987336
  0
LINE
  5
282
330
1F
100
AcDbEntity
  8
0
 62
     7
 48
0.110566
370
    35
100
AcDbLine
 10
51.318199
 20
-240.099503
 30
0.0
 11
55.148326
 21
-237.888178
 31
0.0
  0
ARC
  5
283
330
1F
100
AcDbEntity
  8
0
 62
     7
370
    35
100
AcDbCircle
 10
51.068199
 20
-239.666269
 30
0.0
 40
0.5001914944921303
100
AcDbArc
 50
240.012664
 51
299.987336
  0
LINE
  5
284
330
1F
100
AcDbEntity
  8
0
 62
     7
 48
0.110566
370
    35
100
AcDbLine
 10
46.988072
 20
-237.888178
 30
0.0
 11
50.818199
 21
-240.099503
 31
0.0
  0
ARC
  5
285
330
1F
100
AcDbEntity
  8
0
 62
     7
370
    35
100
AcDbCircle
 10
47.238263
 20
-237.455055
 30
0.0
 40
0.5001914944937644
100
AcDbArc
 50
180.012664
 51
239.987336
  0
LINE
  5
286
330
1F
100
AcDbEntity
  8
0
 62
     7
 48
0.110566
370
    35
100
AcDbLine
 10
46.738072
 20
-233.032516
 30
0.0
 11
46.738072
 21
-237.455165
 31
0.0
  0
ARC
  5
287
330
1F
100
AcDbEntity
  8
0
 62
     7
370
    35
100
AcDbCircle
 10
47.238263
 20
-233.032626
 30
0.0
 40
0.5001914944899398
100
AcDbArc
 50
120.012664
 51
179.987336
  0
LINE
  5
288
330
1F
100
AcDbEntity
  8
0
 62
     7
 48
0.110566
370
    35
100
AcDbLine
 10
46.988072
 20
-232.599503
 30
0.0
 11
50.818199
 21
-230.388178
 31
0.0
  0
ARC
  5
289
330
1F
100
AcDbEntity
  8
0
 62
     7
370
    35
100
AcDbCircle
 10
51.068199
 20
-230.821412
 30
0.0
 40
0.5001914944954857
100
AcDbArc
 50
60.012664
 51
119.987336
  0
LINE
  5
28A
330
1F
100
AcDbEntity
  8
0
 62
     7
 48
0.110566
370
    35
100
AcDbLine
 10
51.318199
 20
-243.581101
 30
0.0
 11
55.148326
 21
-245.792426
 31
0.0
  0
ARC
  5
28B
330
1F
100
AcDbEntity
  8
0
 62
     7
370
    35
100
AcDbCircle
 10
54.898134
 20
-246.225549
 30
0.0
 40
0.5001914944923709
100
AcDbArc
 50
0.012664
 51
59.987336
  0
LINE
  5
28C
330
1F
100
AcDbEntity
  8
0
 62
     7
 48
0.110566
370
    35
100
AcDbLine
 10
55.398326
 20
-250.648088
 30
0.0
 11
55.398326
 21
-246.225438
 31
0.0
  0
ARC
  5
28D
330
1F
100
AcDbEntity
  8
0
 62
     7
370
    35
100
AcDbCircle
 10
54.898134
 20
-250.647978
 30
0.0
 40
0.5001914944929493
100
AcDbArc
 50
300.012664
 51
359.987336
  0
LINE
  5
28E
330
1F
100
AcDbEntity
  8
0
 62
     7
 48
0.110566
370
    35
100
AcDbLine
 10
51.318199
 20
-253.292426
 30
0.0
 11
55.148326
 21
-251.081101
 31
0.0
  0
ARC
  5
28F
330
1F
100
AcDbEntity
  8
0
 62
     7
370
    35
100
AcDbCircle
 10
51.068199
 20
-252.859192
 30
0.0
 40
0.5001914944942965
100
AcDbArc
 50
240.012664
 51
299.987336
  0
LINE
  5
290
330
1F
100
AcDbEntity
  8
0
 62
     7
 48
0.110566
370
    35
100
AcDbLine
 10
46.988072
 20
-251.081101
 30
0.0
 11
50.818199
 21
-253.292426
 31
0.0
  0
ARC
  5
291
330
1F
100
AcDbEntity
  8
0
 62
     7
370
    35
100
AcDbCircle
 10
47.238263
 20
-250.647978
 30
0.0
 40
0.5001914944942512
100
AcDbArc
 50
180.012664
 51
239.987336
  0
LINE
  5
292
330
1F
100
AcDbEntity
  8
0
 62
     7
 48
0.110566
370
    35
100
AcDbLine
 10
46.738072
 20
-246.225438
 30
0.0
 11
46.738072
 21
-250.648088
 31
0.0
  0
ARC
  5
293
330
1F
100
AcDbEntity
  8
0
 62
     7
370
    35
100
AcDbCircle
 10
47.238263
 20
-246.225549
 30
0.0
 40
0.5001914944926852
100
AcDbArc
 50
120.012664
 51
179.987336
  0
LINE
  5
294
330
1F
100
AcDbEntity
  8
0
 62
     7
 48
0.110566
370
    35
100
AcDbLine
 10
46.988072
 20
-245.792426
 30
0.0
 11
50.818199
 21
-243.581101
 31
0.0
  0
ARC
  5
295
330
1F
100
AcDbEntity
  8
0
 62
     7
370
    35
100
AcDbCircle
 10
51.068199
 20
-244.014335
 30
0.0
 40
0.5001914944884428
100
AcDbArc
 50
60.012664
 51
119.987336
  0
LINE
  5
296
330
1F
100
AcDbEntity
  8
0
 62
     7
 48
0.110566
370
    35
100
AcDbLine
 10
29.415174
 20
-37.1
 30
0.0
 11
31.626499
 21
-33.269873
 31
0.0
  0
ARC
  5
297
330
1F
100
AcDbEntity
  8
0
 62
     7
370
    35
100
AcDbCircle
 10
32.059622
 20
-33.520064
 30
0.0
 40
0.5001914944953688
100
AcDbArc
 50
90.012664
 51
149.987336
  0
LINE
  5
298
330
1F
100
AcDbEntity
  8
0
 62
     7
 48
0.110566
370
    35
100
AcDbLine
 10
32.059511
 20
-33.019873
 30
0.0
 11
36.482161
 21
-33.019873
 31
0.0
  0
ARC
  5
299
330
1F
100
AcDbEntity
  8
0
 62
     7
370
    35
100
AcDbCircle
 10
36.482051
 20
-33.520064
 30
0.0
 40
0.5001914944988833
100
AcDbArc
 50
30.012664
 51
89.987336
  0
LINE
  5
29A
330
1F
100
AcDbEntity
  8
0
 62
     7
 48
0.110566
370
    35
100
AcDbLine
 10
36.915174
 20
-33.269873
 30
0.0
 11
39.126499
 21
-37.1
 31
0.0
  0
ARC
  5
29B
330
1F
100
AcDbEntity
  8
0
 62
     7
370
    35
100
AcDbCircle
 10
38.693265
 20
-37.35
 30
0.0
 40
0.5001914944915858
100
AcDbArc
 50
330.012664
 51
29.987336
  0
LINE
  5
29C
330
1F
100
AcDbEntity
  8
0
 62
     7
 48
0.110566
370
    35
100
AcDbLine
 10
36.915174
 20
-41.430127
 30
0.0
 11
39.126499
 21
-37.6
 31
0.0
  0
ARC
  5
29D
330
1F
100
AcDbEntity
  8
0
 62
     7
370
    35
100
AcDbCircle
 10
36.482051
 20
-41.179936
 30
0.0
 40
0.5001914944905153
100
AcDbArc
 50
270.012664
 51
329.987336
  0
LINE
  5
29E
330
1F
100
AcDbEntity
  8
0
 62
     7
 48
0.110566
370
    35
100
AcDbLine
 10
32.059511
 20
-41.680127
 30
0.0
 11
36.482161
 21
-41.680127
 31
0.0
  0
ARC
  5
29F
330
1F
100
AcDbEntity
  8
0
 62
     7
370
    35
100
AcDbCircle
 10
32.059622
 20
-41.179936
 30
0.0
 40
0.5001914944997108
100
AcDbArc
 50
210.012664
 51
269.987336
  0
LINE
  5
2A0
330
1F
100
AcDbEntity
  8
0
 62
     7
 48
0.110566
370
    35
100
AcDbLine
 10
29.415174
 20
-37.6
 30
0.0
 11
31.626499
 21
-41.430127
 31
0.0
  0
ARC
  5
2A1
330
1F
100
AcDbEntity
  8
0
 62
     7
370
    35
100
AcDbCircle
 10
29.848408
 20
-37.35
 30
0.0
 40
0.5001914944945852
100
AcDbArc
 50
150.012664
 51
209.987336
  0
LINE
  5
2A2
330
1F
100
AcDbEntity
  8
0
 62
     7
 48
0.110566
370
    35
100
AcDbLine
 10
29.415174
 20
-50.292923
 30
0.0
 11
31.626499
 21
-46.462796
 31
0.0
  0
ARC
  5
2A3
330
1F
100
AcDbEntity
  8
0
 62
     7
370
    35
100
AcDbCircle
 10
32.059622
 20
-46.712987
 30
0.0
 40
0.5001914944956881
100
AcDbArc
 50
90.012664
 51
149.987336
  0
LINE
  5
2A4
330
1F
100
AcDbEntity
  8
0
 62
     7
 48
0.110566
370
    35
100
AcDbLine
 10
32.059511
 20
-46.212796
 30
0.0
 11
36.482161
 21
-46.212796
 31
0.0
  0
ARC
  5
2A5
330
1F
100
AcDbEntity
  8
0
 62
     7
370
    35
100
AcDbCircle
 10
36.482051
 20
-46.712987
 30
0.0
 40
0.5001914944899893
100
AcDbArc
 50
30.012664
 51
89.987336
  0
LINE
  5
2A6
330
1F
100
AcDbEntity
  8
0
 62
     7
 48
0.110566
370
    35
100
AcDbLine
 10
36.915174
 20
-46.462796
 30
0.0
 11
39.126499
 21
-50.292923
 31
0.0
  0
ARC
  5
2A7
330
1F
100
AcDbEntity
  8
0
 62
     7
370
    35
100
AcDbCircle
 10
38.693265
 20
-50.542923
 30
0.0
 40
0.5001914944925779
100
AcDbArc
 50
330.012664
 51
29.987336
  0
LINE
  5
2A8
330
1F
100
AcDbEntity
  8
0
 62
     7
 48
0.110566
370
    35
100
AcDbLine
 10
36.915174
 20
-54.62305
 30
0.0
 11
39.126499
 21
-50.792923
 31
0.0
  0
ARC
  5
2A9
330
1F
100
AcDbEntity
  8
0
 62
     7
370
    35
100
AcDbCircle
 10
36.482051
 20
-54.372858
 30
0.0
 40
0.5001914944957522
100
AcDbArc
 50
270.012664
 51
329.987336
  0
LINE
  5
2AA
330
1F
100
AcDbEntity
  8
0
 62
     7
 48
0.110566
370
    35
100
AcDbLine
 10
32.059511
 20
-54.87305
 30
0.0
 11
36.482161
 21
-54.87305
 31
0.0
  0
ARC
  5
2AB
330
1F
100
AcDbEntity
  8
0
 62
     7
370
    35
100
AcDbCircle
 10
32.059622
 20
-54.372858
 30
0.0
 40
0.5001914944989347
100
AcDbArc
 50
210.012664
 51
269.987336
  0
LINE
  5
2AC
330
1F
100
AcDbEntity
  8
0
 62
     7
 48
0.110566
370
    35
100
AcDbLine
 10
29.415174
 20
-50.792923
 30
0.0
 11
31.626499
 21
-54.62305
 31
0.0
  0
ARC
  5
2AD
330
1F
100
AcDbEntity
  8
0
 62
     7
370
    35
100
AcDbCircle
 10
29.848408
 20
-50.542923
 30
0.0
 40
0.5001914944945997
100
AcDbArc
 50
150.012664
 51
209.987336
  0
LINE
  5
2AE
330
1F
100
AcDbEntity
  8
0
 62
     7
 48
0.110566
370
    35
100
AcDbLine
 10
29.415174
 20
-63.485845
 30
0.0
 11
31.626499
 21
-59.655718
 31
0.0
  0
ARC
  5
2AF
330
1F
100
AcDbEntity
  8
0
 62
     7
370
    35
100
AcDbCircle
 10
32.059622
 20
-59.90591
 30
0.0
 40
0.5001914944891056
100
AcDbArc
 50
90.012664
 51
149.987336
  0
LINE
  5
2B0
330
1F
100
AcDbEntity
  8
0
 62
     7
 48
0.110566
370
    35
100
AcDbLine
 10
32.059511
 20
-59.405718
 30
0.0
 11
36.482161
 21
-59.405718
 31
0.0
  0
ARC
  5
2B1
330
1F
100
AcDbEntity
  8
0
 62
     7
370
    35
100
AcDbCircle
 10
36.482051
 20
-59.90591
 30
0.0
 40
0.5001914944891545
100
AcDbArc
 50
30.012664
 51
89.987336
  0
LINE
  5
2B2
330
1F
100
AcDbEntity
  8
0
 62
     7
 48
0.110566
370
    35
100
AcDbLine
 10
36.915174
 20
-59.655718
 30
0.0
 11
39.126499
 21
-63.485845
 31
0.0
  0
ARC
  5
2B3
330
1F
100
AcDbEntity
  8
0
 62
     7
370
    35
100
AcDbCircle
 10
38.693265
 20
-63.735845
 30
0.0
 40
0.5001914944917834
100
AcDbArc
 50
330.012664
 51
29.987336
  0
LINE
  5
2B4
330
1F
100
AcDbEntity
  8
0
 62
     7
 48
0.110566
370
    35
100
AcDbLine
 10
36.915174
 20
-67.815972
 30
0.0
 11
39.126499
 21
-63.985845
 31
0.0
  0
ARC
  5
2B5
330
1F
100
AcDbEntity
  8
0
 62
     7
370
    35
100
AcDbCircle
 10
36.482051
 20
-67.565781
 30
0.0
 40
0.5001914944963481
100
AcDbArc
 50
270.012664
 51
329.987336
  0
LINE
  5
2B6
330
1F
100
AcDbEntity
  8
0
 62
     7
 48
0.110566
370
    35
100
AcDbLine
 10
32.059511
 20
-68.065972
 30
0.0
 11
36.482161
 21
-68.065972
 31
0.0
  0
ARC
  5
2B7
330
1F
100
AcDbEntity
  8
0
 62
     7
370
    35
100
AcDbCircle
 10
32.059622
 20
-67.565781
 30
0.0
 40
0.5001914944884311
100
AcDbArc
 50
210.012664
 51
269.987336
  0
LINE
  5
2B8
330
1F
100
AcDbEntity
  8
0
 62
     7
 48
0.110566
370
    35
100
AcDbLine
 10
29.415174
 20
-63.985845
 30
0.0
 11
31.626499
 21
-67.815972
 31
0.0
  0
ARC
  5
2B9
330
1F
100
AcDbEntity
  8
0
 62
     7
370
    35
100
AcDbCircle
 10
29.848408
 20
-63.735845
 30
0.0
 40
0.5001914944919862
100
AcDbArc
 50
150.012664
 51
209.987336
  0
LINE
  5
2BA
330
1F
100
AcDbEntity
  8
0
 62
     7
 48
0.110566
370
    35
100
AcDbLine
 10
29.415174
 20
-129.450459
 30
0.0
 11
31.626499
 21
-125.620332
 31
0.0
  0
ARC
  5
2BB
330
1F
100
AcDbEntity
  8
0
 62
     7
370
    35
100
AcDbCircle
 10
32.059622
 20
-125.870523
 30
0.0
 40
0.5001914944933081
100
AcDbArc
 50
90.012664
 51
149.987336
  0
LINE
  5
2BC
330
1F
100
AcDbEntity
  8
0
 62
     7
 48
0.110566
370
    35
100
AcDbLine
 10
32.059511
 20
-125.370332
 30
0.0
 11
36.482161
 21
-125.370332
 31
0.0
  0
ARC
  5
2BD
330
1F
100
AcDbEntity
  8
0
 62
     7
370
    35
100
AcDbCircle
 10
36.482051
 20
-125.870523
 30
0.0
 40
0.5001914944938887
100
AcDbArc
 50
30.012664
 51
89.987336
  0
LINE
  5
2BE
330
1F
100
AcDbEntity
  8
0
 62
     7
 48
0.110566
370
    35
100
AcDbLine
 10
36.915174
 20
-125.620332
 30
0.0
 11
39.126499
 21
-129.450459
 31
0.0
  0
ARC
  5
2BF
330
1F
100
AcDbEntity
  8
0
 62
     7
370
    35
100
AcDbCircle
 10
38.693265
 20
-129.700459
 30
0.0
 40
0.5001914944941783
100
AcDbArc
 50
330.012664
 51
29.987336
  0
LINE
  5
2C0
330
1F
100
AcDbEntity
  8
0
 62
     7
 48
0.110566
370
    35
100
AcDbLine
 10
36.915174
 20
-133.780586
 30
0.0
 11
39.126499
 21
-129.950459
 31
0.0
  0
ARC
  5
2C1
330
1F
100
AcDbEntity
  8
0
 62
     7
370
    35
100
AcDbCircle
 10
36.482051
 20
-133.530394
 30
0.0
 40
0.5001914944922274
100
AcDbArc
 50
270.012664
 51
329.987336
  0
LINE
  5
2C2
330
1F
100
AcDbEntity
  8
0
 62
     7
 48
0.110566
370
    35
100
AcDbLine
 10
32.059511
 20
-134.030586
 30
0.0
 11
36.482161
 21
-134.030586
 31
0.0
  0
ARC
  5
2C3
330
1F
100
AcDbEntity
  8
0
 62
     7
370
    35
100
AcDbCircle
 10
32.059622
 20
-133.530394
 30
0.0
 40
0.5001914944947542
100
AcDbArc
 50
210.012664
 51
269.987336
  0
LINE
  5
2C4
330
1F
100
AcDbEntity
  8
0
 62
     7
 48
0.110566
370
    35
100
AcDbLine
 10
29.415174
 20
-129.950459
 30
0.0
 11
31.626499
 21
-133.780586
 31
0.0
  0
ARC
  5
2C5
330
1F
100
AcDbEntity
  8
0
 62
     7
370
    35
100
AcDbCircle
 10
29.848408
 20
-129.700459
 30
0.0
 40
0.5001914944973183
100
AcDbArc
 50
150.012664
 51
209.987336
  0
LINE
  5
2C6
330
1F
100
AcDbEntity
  8
0
 62
     7
 48
0.110566
370
    35
100
AcDbLine
 10
29.415174
 20
-142.643382
 30
0.0
 11
31.626499
 21
-138.813255
 31
0.0
  0
ARC
  5
2C7
330
1F
100
AcDbEntity
  8
0
 62
     7
370
    35
100
AcDbCircle
 10
32.059622
 20
-139.063446
 30
0.0
 40
0.5001914944930792
100
AcDbArc
 50
90.012664
 51
149.987336
  0
LINE
  5
2C8
330
1F
100
AcDbEntity
  8
0
 62
     7
 48
0.110566
370
    35
100
AcDbLine
 10
32.059511
 20
-138.563255
 30
0.0
 11
36.482161
 21
-138.563255
 31
0.0
  0
ARC
  5
2C9
330
1F
100
AcDbEntity
  8
0
 62
     7
370
    35
100
AcDbCircle
 10
36.482051
 20
-139.063446
 30
0.0
 40
0.5001914944905189
100
AcDbArc
 50
30.012664
 51
89.987336
  0
LINE
  5
2CA
330
1F
100
AcDbEntity
  8
0
 62
     7
 48
0.110566
370
    35
100
AcDbLine
 10
36.915174
 20
-138.813255
 30
0.0
 11
39.126499
 21
-142.643382
 31
0.0
  0
ARC
  5
2CB
330
1F
100
AcDbEntity
  8
0
 62
     7
370
    35
100
AcDbCircle
 10
38.693265
 20
-142.893382
 30
0.0
 40
0.5001914944968487
100
AcDbArc
 50
330.012664
 51
29.987336
  0
LINE
  5
2CC
330
1F
100
AcDbEntity
  8
0
 62
     7
 48
0.110566
370
    35
100
AcDbLine
 10
36.915174
 20
-146.973509
 30
0.0
 11
39.126499
 21
-143.143382
 31
0.0
  0
ARC
  5
2CD
330
1F
100
AcDbEntity
  8
0
 62
     7
370
    35
100
AcDbCircle
 10
36.482051
 20
-146.723317
 30
0.0
 40
0.5001914944892158
100
AcDbArc
 50
270.012664
 51
329.987336
  0
LINE
  5
2CE
330
1F
100
AcDbEntity
  8
0
 62
     7
 48
0.110566
370
    35
100
AcDbLine
 10
32.059511
 20
-147.223509
 30
0.0
 11
36.482161
 21
-147.223509
 31
0.0
  0
ARC
  5
2CF
330
1F
100
AcDbEntity
  8
0
 62
     7
370
    35
100
AcDbCircle
 10
32.059622
 20
-146.723317
 30
0.0
 40
0.5001914944930825
100
AcDbArc
 50
210.012664
 51
269.987336
  0
LINE
  5
2D0
330
1F
100
AcDbEntity
  8
0
 62
     7
 48
0.110566
370
    35
100
AcDbLine
 10
29.415174
 20
-143.143382
 30
0.0
 11
31.626499
 21
-146.973509
 31
0.0
  0
ARC
  5
2D1
330
1F
100
AcDbEntity
  8
0
 62
     7
370
    35
100
AcDbCircle
 10
29.848408
 20
-142.893382
 30
0.0
 40
0.5001914944928535
100
AcDbArc
 50
150.012664
 51
209.987336
  0
LINE
  5
2D2
330
1F
100
AcDbEntity
  8
0
 62
     7
 48
0.110566
370
    35
100
AcDbLine
 10
29.415174
 20
-155.836304
 30
0.0
 11
31.626499
 21
-152.006177
 31
0.0
  0
ARC
  5
2D3
330
1F
100
AcDbEntity
  8
0
 62
     7
370
    35
100
AcDbCircle
 10
32.059622
 20
-152.256369
 30
0.0
 40
0.5001914944930523
100
AcDbArc
 50
90.012664
 51
149.987336
  0
LINE
  5
2D4
330
1F
100
AcDbEntity
  8
0
 62
     7
 48
0.110566
370
    35
100
AcDbLine
 10
32.059511
 20
-151.756177
 30
0.0
 11
36.482161
 21
-151.756177
 31
0.0
  0
ARC
  5
2D5
330
1F
100
AcDbEntity
  8
0
 62
     7
370
    35
100
AcDbCircle
 10
36.482051
 20
-152.256369
 30
0.0
 40
0.5001914944965216
100
AcDbArc
 50
30.012664
 51
89.987336
  0
LINE
  5
2D6
330
1F
100
AcDbEntity
  8
0
 62
     7
 48
0.110566
370
    35
100
AcDbLine
 10
36.915174
 20
-152.006177
 30
0.0
 11
39.126499
 21
-155.836304
 31
0.0
  0
ARC
  5
2D7
330
1F
100
AcDbEntity
  8
0
 62
     7
370
    35
100
AcDbCircle
 10
38.693265
 20
-156.086304
 30
0.0
 40
0.5001914944931561
100
AcDbArc
 50
330.012664
 51
29.987336
  0
LINE
  5
2D8
330
1F
100
AcDbEntity
  8
0
 62
     7
 48
0.110566
370
    35
100
AcDbLine
 10
36.915174
 20
-160.166431
 30
0.0
 11
39.126499
 21
-156.336304
 31
0.0
  0
ARC
  5
2D9
330
1F
100
AcDbEntity
  8
0
 62
     7
370
    35
100
AcDbCircle
 10
36.482051
 20
-159.91624
 30
0.0
 40
0.5001914944969448
100
AcDbArc
 50
270.012664
 51
329.987336
  0
LINE
  5
2DA
330
1F
100
AcDbEntity
  8
0
 62
     7
 48
0.110566
370
    35
100
AcDbLine
 10
32.059511
 20
-160.416431
 30
0.0
 11
36.482161
 21
-160.416431
 31
0.0
  0
ARC
  5
2DB
330
1F
100
AcDbEntity
  8
0
 62
     7
370
    35
100
AcDbCircle
 10
32.059622
 20
-159.91624
 30
0.0
 40
0.500191494494872
100
AcDbArc
 50
210.012664
 51
269.987336
  0
LINE
  5
2DC
330
1F
100
AcDbEntity
  8
0
 62
     7
 48
0.110566
370
    35
100
AcDbLine
 10
29.415174
 20
-156.336304
 30
0.0
 11
31.626499
 21
-160.166431
 31
0.0
  0
ARC
  5
2DD
330
1F
100
AcDbEntity
  8
0
 62
     7
370
    35
100
AcDbCircle
 10
29.848408
 20
-156.086304
 30
0.0
 40
0.500191494491545
100
AcDbArc
 50
150.012664
 51
209.987336
  0
LINE
  5
2DE
330
1F
100
AcDbEntity
  8
0
 62
     7
 48
0.110566
370
    35
100
AcDbLine
 10
29.415174
 20
-182.22215
 30
0.0
 11
31.626499
 21
-178.392023
 31
0.0
  0
ARC
  5
2DF
330
1F
100
AcDbEntity
  8
0
 62
     7
370
    35
100
AcDbCircle
 10
32.059622
 20
-178.642214
 30
0.0
 40
0.500191494491141
100
AcDbArc
 50
90.012664
 51
149.987336
  0
LINE
  5
2E0
330
1F
100
AcDbEntity
  8
0
 62
     7
 48
0.110566
370
    35
100
AcDbLine
 10
32.059511
 20
-178.142023
 30
0.0
 11
36.482161
 21
-178.142023
 31
0.0
  0
ARC
  5
2E1
330
1F
100
AcDbEntity
  8
0
 62
     7
370
    35
100
AcDbCircle
 10
36.482051
 20
-178.642214
 30
0.0
 40
0.5001914944925071
100
AcDbArc
 50
30.012664
 51
89.987336
  0
LINE
  5
2E2
330
1F
100
AcDbEntity
  8
0
 62
     7
 48
0.110566
370
    35
100
AcDbLine
 10
36.915174
 20
-178.392023
 30
0.0
 11
39.126499
 21
-182.22215
 31
0.0
  0
ARC
  5
2E3
330
1F
100
AcDbEntity
  8
0
 62
     7
370
    35
100
AcDbCircle
 10
38.693265
 20
-182.47215
 30
0.0
 40
0.5001914944940661
100
AcDbArc
 50
330.012664
 51
29.987336
  0
LINE
  5
2E4
330
1F
100
AcDbEntity
  8
0
 62
     7
 48
0.110566
370
    35
100
AcDbLine
 10
36.915174
 20
-186.552277
 30
0.0
 11
39.126499
 21
-182.72215
 31
0.0
  0
ARC
  5
2E5
330
1F
100
AcDbEntity
  8
0
 62
     7
370
    35
100
AcDbCircle
 10
36.482051
 20
-186.302085
 30
0.0
 40
0.5001914944949265
100
AcDbArc
 50
270.012664
 51
329.987336
  0
LINE
  5
2E6
330
1F
100
AcDbEntity
  8
0
 62
     7
 48
0.110566
370
    35
100
AcDbLine
 10
32.059511
 20
-186.802277
 30
0.0
 11
36.482161
 21
-186.802277
 31
0.0
  0
ARC
  5
2E7
330
1F
100
AcDbEntity
  8
0
 62
     7
370
    35
100
AcDbCircle
 10
32.059622
 20
-186.302085
 30
0.0
 40
0.5001914944918603
100
AcDbArc
 50
210.012664
 51
269.987336
  0
LINE
  5
2E8
330
1F
100
AcDbEntity
  8
0
 62
     7
 48
0.110566
370
    35
100
AcDbLine
 10
29.415174
 20
-182.72215
 30
0.0
 11
31.626499
 21
-186.552277
 31
0.0
  0
ARC
  5
2E9
330
1F
100
AcDbEntity
  8
0
 62
     7
370
    35
100
AcDbCircle
 10
29.848408
 20
-182.47215
 30
0.0
 40
0.5001914944931519
100
AcDbArc
 50
150.012664
 51
209.987336
  0
LINE
  5
2EA
330
1F
100
AcDbEntity
  8
0
 62
     7
 48
0.110566
370
    35
100
AcDbLine
 10
29.415174
 20
-195.415072
 30
0.0
 11
31.626499
 21
-191.584945
 31
0.0
  0
ARC
  5
2EB
330
1F
100
AcDbEntity
  8
0
 62
     7
370
    35
100
AcDbCircle
 10
32.059622
 20
-191.835137
 30
0.0
 40
0.5001914944975977
100
AcDbArc
 50
90.012664
 51
149.987336
  0
LINE
  5
2EC
330
1F
100
AcDbEntity
  8
0
 62
     7
 48
0.110566
370
    35
100
AcDbLine
 10
32.059511
 20
-191.334945
 30
0.0
 11
36.482161
 21
-191.334945
 31
0.0
  0
ARC
  5
2ED
330
1F
100
AcDbEntity
  8
0
 62
     7
370
    35
100
AcDbCircle
 10
36.482051
 20
-191.835137
 30
0.0
 40
0.5001914944950707
100
AcDbArc
 50
30.012664
 51
89.987336
  0
LINE
  5
2EE
330
1F
100
AcDbEntity
  8
0
 62
     7
 48
0.110566
370
    35
100
AcDbLine
 10
36.915174
 20
-191.584945
 30
0.0
 11
39.126499
 21
-195.415072
 31
0.0
  0
ARC
  5
2EF
330
1F
100
AcDbEntity
  8
0
 62
     7
370
    35
100
AcDbCircle
 10
38.693265
 20
-195.665072
 30
0.0
 40
0.5001914944929811
100
AcDbArc
 50
330.012664
 51
29.987336
  0
LINE
  5
2F0
330
1F
100
AcDbEntity
  8
0
 62
     7
 48
0.110566
370
    35
100
AcDbLine
 10
36.915174
 20
-199.745199
 30
0.0
 11
39.126499
 21
-195.915072
 31
0.0
  0
ARC
  5
2F1
330
1F
100
AcDbEntity
  8
0
 62
     7
370
    35
100
AcDbCircle
 10
36.482051
 20
-199.495008
 30
0.0
 40
0.5001914944905781
100
AcDbArc
 50
270.012664
 51
329.987336
  0
LINE
  5
2F2
330
1F
100
AcDbEntity
  8
0
 62
     7
 48
0.110566
370
    35
100
AcDbLine
 10
32.059511
 20
-199.995199
 30
0.0
 11
36.482161
 21
-199.995199
 31
0.0
  0
ARC
  5
2F3
330
1F
100
AcDbEntity
  8
0
 62
     7
370
    35
100
AcDbCircle
 10
32.059622
 20
-199.495008
 30
0.0
 40
0.500191494495441
100
AcDbArc
 50
210.012664
 51
269.987336
  0
LINE
  5
2F4
330
1F
100
AcDbEntity
  8
0
 62
     7
 48
0.110566
370
    35
100
AcDbLine
 10
29.415174
 20
-195.915072
 30
0.0
 11
31.626499
 21
-199.745199
 31
0.0
  0
ARC
  5
2F5
330
1F
100
AcDbEntity
  8
0
 62
     7
370
    35
100
AcDbCircle
 10
29.848408
 20
-195.665072
 30
0.0
 40
0.50019149449206
100
AcDbArc
 50
150.012664
 51
209.987336
  0
LINE
  5
2F6
330
1F
100
AcDbEntity
  8
0
 62
     7
 48
0.110566
370
    35
100
AcDbLine
 10
29.415174
 20
-208.607995
 30
0.0
 11
31.626499
 21
-204.777868
 31
0.0
  0
ARC
  5
2F7
330
1F
100
AcDbEntity
  8
0
 62
     7
370
    35
100
AcDbCircle
 10
32.059622
 20
-205.02806
 30
0.0
 40
0.5001914944890108
100
AcDbArc
 50
90.012664
 51
149.987336
  0
LINE
  5
2F8
330
1F
100
AcDbEntity
  8
0
 62
     7
 48
0.110566
370
    35
100
AcDbLine
 10
32.059511
 20
-204.527868
 30
0.0
 11
36.482161
 21
-204.527868
 31
0.0
  0
ARC
  5
2F9
330
1F
100
AcDbEntity
  8
0
 62
     7
370
    35
100
AcDbCircle
 10
36.482051
 20
-205.02806
 30
0.0
 40
0.500191494495324
100
AcDbArc
 50
30.012664
 51
89.987336
  0
LINE
  5
2FA
330
1F
100
AcDbEntity
  8
0
 62
     7
 48
0.110566
370
    35
100
AcDbLine
 10
36.915174
 20
-204.777868
 30
0.0
 11
39.126499
 21
-208.607995
 31
0.0
  0
ARC
  5
2FB
330
1F
100
AcDbEntity
  8
0
 62
     7
370
    35
100
AcDbCircle
 10
38.693265
 20
-208.857995
 30
0.0
 40
0.5001914944934238
100
AcDbArc
 50
330.012664
 51
29.987336
  0
LINE
  5
2FC
330
1F
100
AcDbEntity
  8
0
 62
     7
 48
0.110566
370
    35
100
AcDbLine
 10
36.915174
 20
-212.938122
 30
0.0
 11
39.126499
 21
-209.107995
 31
0.0
  0
ARC
  5
2FD
330
1F
100
AcDbEntity
  8
0
 62
     7
370
    35
100
AcDbCircle
 10
36.482051
 20
-212.687931
 30
0.0
 40
0.5001914944906878
100
AcDbArc
 50
270.012664
 51
329.987336
  0
LINE
  5
2FE
330
1F
100
AcDbEntity
  8
0
 62
     7
 48
0.110566
370
    35
100
AcDbLine
 10
32.059511
 20
-213.188122
 30
0.0
 11
36.482161
 21
-213.188122
 31
0.0
  0
ARC
  5
2FF
330
1F
100
AcDbEntity
  8
0
 62
     7
370
    35
100
AcDbCircle
 10
32.059622
 20
-212.687931
 30
0.0
 40
0.5001914944971169
100
AcDbArc
 50
210.012664
 51
269.987336
  0
LINE
  5
300
330
1F
100
AcDbEntity
  8
0
 62
     7
 48
0.110566
370
    35
100
AcDbLine
 10
29.415174
 20
-209.107995
 30
0.0
 11
31.626499
 21
-212.938122
 31
0.0
  0
ARC
  5
301
330
1F
100
AcDbEntity
  8
0
 62
     7
370
    35
100
AcDbCircle
 10
29.848408
 20
-208.857995
 30
0.0
 40
0.500191494494467
100
AcDbArc
 50
150.012664
 51
209.987336
  0
LINE
  5
302
330
1F
100
AcDbEntity
  8
0
 62
     7
 48
0.110566
370
    35
100
AcDbLine
 10
34.520836
 20
-230.388178
 30
0.0
 11
38.350963
 21
-232.599503
 31
0.0
  0
ARC
  5
303
330
1F
100
AcDbEntity
  8
0
 62
     7
370
    35
100
AcDbCircle
 10
38.100772
 20
-233.032626
 30
0.0
 40
0.5001914944927092
100
AcDbArc
 50
0.012664
 51
59.987336
  0
LINE
  5
304
330
1F
100
AcDbEntity
  8
0
 62
     7
 48
0.110566
370
    35
100
AcDbLine
 10
38.600963
 20
-237.455165
 30
0.0
 11
38.600963
 21
-233.032516
 31
0.0
  0
ARC
  5
305
330
1F
100
AcDbEntity
  8
0
 62
     7
370
    35
100
AcDbCircle
 10
38.100772
 20
-237.455055
 30
0.0
 40
0.5001914944984256
100
AcDbArc
 50
300.012664
 51
359.987336
  0
LINE
  5
306
330
1F
100
AcDbEntity
  8
0
 62
     7
 48
0.110566
370
    35
100
AcDbLine
 10
34.520836
 20
-240.099503
 30
0.0
 11
38.350963
 21
-237.888178
 31
0.0
  0
ARC
  5
307
330
1F
100
AcDbEntity
  8
0
 62
     7
370
    35
100
AcDbCircle
 10
34.270836
 20
-239.666269
 30
0.0
 40
0.5001914944922171
100
AcDbArc
 50
240.012664
 51
299.987336
  0
LINE
  5
308
330
1F
100
AcDbEntity
  8
0
 62
     7
 48
0.110566
370
    35
100
AcDbLine
 10
30.190709
 20
-237.888178
 30
0.0
 11
34.020836
 21
-240.099503
 31
0.0
  0
ARC
  5
309
330
1F
100
AcDbEntity
  8
0
 62
     7
370
    35
100
AcDbCircle
 10
30.440901
 20
-237.455055
 30
0.0
 40
0.5001914944937873
100
AcDbArc
 50
180.012664
 51
239.987336
  0
LINE
  5
30A
330
1F
100
AcDbEntity
  8
0
 62
     7
 48
0.110566
370
    35
100
AcDbLine
 10
29.940709
 20
-233.032516
 30
0.0
 11
29.940709
 21
-237.455165
 31
0.0
  0
ARC
  5
30B
330
1F
100
AcDbEntity
  8
0
 62
     7
370
    35
100
AcDbCircle
 10
30.440901
 20
-233.032626
 30
0.0
 40
0.5001914945030029
100
AcDbArc
 50
120.012664
 51
179.987336
  0
LINE
  5
30C
330
1F
100
AcDbEntity
  8
0
 62
     7
 48
0.110566
370
    35
100
AcDbLine
 10
30.190709
 20
-232.599503
 30
0.0
 11
34.020836
 21
-230.388178
 31
0.0
  0
ARC
  5
30D
330
1F
100
AcDbEntity
  8
0
 62
     7
370
    35
100
AcDbCircle
 10
34.270836
 20
-230.821412
 30
0.0
 40
0.5001914944947708
100
AcDbArc
 50
60.012664
 51
119.987336
  0
LINE
  5
30E
330
1F
100
AcDbEntity
  8
0
 62
     7
 48
0.110566
370
    35
100
AcDbLine
 10
34.520836
 20
-243.581101
 30
0.0
 11
38.350963
 21
-245.792426
 31
0.0
  0
ARC
  5
30F
330
1F
100
AcDbEntity
  8
0
 62
     7
370
    35
100
AcDbCircle
 10
38.100772
 20
-246.225549
 30
0.0
 40
0.5001914944944746
100
AcDbArc
 50
0.012664
 51
59.987336
  0
LINE
  5
310
330
1F
100
AcDbEntity
  8
0
 62
     7
 48
0.110566
370
    35
100
AcDbLine
 10
38.600963
 20
-250.648088
 30
0.0
 11
38.600963
 21
-246.225438
 31
0.0
  0
ARC
  5
311
330
1F
100
AcDbEntity
  8
0
 62
     7
370
    35
100
AcDbCircle
 10
38.100772
 20
-250.647978
 30
0.0
 40
0.5001914944945114
100
AcDbArc
 50
300.012664
 51
359.987336
  0
LINE
  5
312
330
1F
100
AcDbEntity
  8
0
 62
     7
 48
0.110566
370
    35
100
AcDbLine
 10
34.520836
 20
-253.292426
 30
0.0
 11
38.350963
 21
-251.081101
 31
0.0
  0
ARC
  5
313
330
1F
100
AcDbEntity
  8
0
 62
     7
370
    35
100
AcDbCircle
 10
34.270836
 20
-252.859192
 30
0.0
 40
0.5001914944906591
100
AcDbArc
 50
240.012664
 51
299.987336
  0
LINE
  5
314
330
1F
100
AcDbEntity
  8
0
 62
     7
 48
0.110566
370
    35
100
AcDbLine
 10
30.190709
 20
-251.081101
 30
0.0
 11
34.020836
 21
-253.292426
 31
0.0
  0
ARC
  5
315
330
1F
100
AcDbEntity
  8
0
 62
     7
370
    35
100
AcDbCircle
 10
30.440901
 20
-250.647978
 30
0.0
 40
0.5001914944951636
100
AcDbArc
 50
180.012664
 51
239.987336
  0
LINE
  5
316
330
1F
100
AcDbEntity
  8
0
 62
     7
 48
0.110566
370
    35
100
AcDbLine
 10
29.940709
 20
-246.225438
 30
0.0
 11
29.940709
 21
-250.648088
 31
0.0
  0
ARC
  5
317
330
1F
100
AcDbEntity
  8
0
 62
     7
370
    35
100
AcDbCircle
 10
30.440901
 20
-246.225549
 30
0.0
 40
0.5001914944929196
100
AcDbArc
 50
120.012664
 51
179.987336
  0
LINE
  5
318
330
1F
100
AcDbEntity
  8
0
 62
     7
 48
0.110566
370
    35
100
AcDbLine
 10
30.190709
 20
-245.792426
 30
0.0
 11
34.020836
 21
-243.581101
 31
0.0
  0
ARC
  5
319
330
1F
100
AcDbEntity
  8
0
 62
     7
370
    35
100
AcDbCircle
 10
34.270836
 20
-244.014335
 30
0.0
 40
0.5001914944847808
100
AcDbArc
 50
60.012664
 51
119.987336
  0
CIRCLE
  5
31A
330
1F
100
AcDbEntity
  8
0
 62
     7
370
    35
100
AcDbCircle
 10
24.46688
 20
-120.0
 30
0.0
 40
2.649999999999999
  0
CIRCLE
  5
31B
330
1F
100
AcDbEntity
  8
0
 62
     7
370
    35
100
AcDbCircle
 10
94.46688
 20
-120.0
 30
0.0
 40
2.649999999999999
  0
CIRCLE
  5
31C
330
1F
100
AcDbEntity
  8
0
 62
     7
370
    35
100
AcDbCircle
 10
94.396169
 20
-170.0
 30
0.0
 40
2.650000000000002
  0
CIRCLE
  5
31D
330
1F
100
AcDbEntity
  8
0
 62
     7
370
    35
100
AcDbCircle
 10
94.46688
 20
-220.0
 30
0.0
 40
2.650000000000002
  0
CIRCLE
  5
31E
330
1F
100
AcDbEntity
  8
0
 62
     7
370
    35
100
AcDbCircle
 10
94.46688
 20
-270.0
 30
0.0
 40
2.650000000000002
  0
CIRCLE
  5
31F
330
1F
100
AcDbEntity
  8
0
 62
     7
370
    35
100
AcDbCircle
 10
24.46688
 20
-70.0
 30
0.0
 40
2.65
  0
CIRCLE
  5
320
330
1F
100
AcDbEntity
  8
0
 62
     7
370
    35
100
AcDbCircle
 10
24.46688
 20
-20.0
 30
0.0
 40
2.650000000000003
  0
CIRCLE
  5
321
330
1F
100
AcDbEntity
  8
0
 62
     7
370
    35
100
AcDbCircle
 10
24.46688
 20
-270.0
 30
0.0
 40
2.650000000000003
  0
CIRCLE
  5
322
330
1F
100
AcDbEntity
  8
0
 62
     7
370
    35
100
AcDbCircle
 10
24.537591
 20
-170.0
 30
0.0
 40
2.650000000000003
  0
CIRCLE
  5
323
330
1F
100
AcDbEntity
  8
0
 62
     7
370
    35
100
AcDbCircle
 10
24.46688
 20
-220.0
 30
0.0
 40
2.650000000000003
  0
CIRCLE
  5
324
330
1F
100
AcDbEntity
  8
0
 62
     7
370
    35
100
AcDbCircle
 10
94.46688
 20
-20.0
 30
0.0
 40
2.650000000000002
  0
CIRCLE
  5
325
330
1F
100
AcDbEntity
  8
0
 62
     7
370
    35
100
AcDbCircle
 10
94.46688
 20
-70.0
 30
0.0
 40
2.649999999999999
  0
LINE
  5
326
330
1F
100
AcDbEntity
  8
0
  6
AXES
 62
     1
370
    13
100
AcDbLine
 10
2.23344
 20
0.0
 30
0.0
 11
2.23344
 21
-299.0
 31
0.0
  0
LINE
  5
327
330
1F
100
AcDbEntity
  8
0
  6
AXES
 62
     1
370
    13
100
AcDbLine
 10
116.70032
 20
-299.0
 30
0.0
 11
116.70032
 21
0.0
 31
0.0
  0
ENDSEC
  0
SECTION
  2
OBJECTS
  0
DICTIONARY
  5
C
330
0
100
AcDbDictionary
281
     1
  3
ACAD_GROUP
350
D
  3
ACAD_LAYOUT
350
1A
  3
ACAD_MLINESTYLE
350
17
  3
ACAD_PLOTSETTINGS
350
19
  3
ACAD_PLOTSTYLENAME
350
E
  3
ACAD_SCALELIST
350
47
  0
DICTIONARY
  5
D
102
{ACAD_REACTORS
330
C
102
}
330
C
100
AcDbDictionary
281
     1
  0
DICTIONARY
  5
1A
102
{ACAD_REACTORS
330
C
102
}
330
C
100
AcDbDictionary
281
     1
  3
Layout1
350
1E
  3
Layout2
350
26
  3
Model
350
22
  0
DICTIONARY
  5
17
102
{ACAD_REACTORS
330
C
102
}
330
C
100
AcDbDictionary
281
     1
  3
Standard
350
18
  0
DICTIONARY
  5
19
102
{ACAD_REACTORS
330
C
102
}
330
C
100
AcDbDictionary
281
     1
  0
ACDBDICTIONARYWDFLT
  5
E
102
{ACAD_REACTORS
330
C
102
}
330
C
100
AcDbDictionary
281
     1
  3
Normal
350
F
100
AcDbDictionaryWithDefault
340
F
  0
DICTIONARY
  5
47
102
{ACAD_REACTORS
330
C
102
}
330
C
100
AcDbDictionary
281
     1
  3
A0
350
48
  3
A1
350
49
  3
A2
350
4A
  3
A3
350
4B
  3
A4
350
4C
  3
A5
350
4D
  3
A6
350
4E
  3
A7
350
4F
  3
A8
350
50
  3
A9
350
51
  3
B0
350
52
  3
B1
350
53
  3
B2
350
54
  3
B3
350
55
  3
B4
350
56
  3
B5
350
57
  3
B6
350
58
  3
B7
350
59
  3
B8
350
5A
  3
B9
350
5B
  3
C0
350
5C
  3
C1
350
5D
  3
C2
350
5E
  3
C3
350
5F
  3
C4
350
60
  3
C5
350
61
  3
C6
350
62
  3
C7
350
63
  3
C8
350
64
  3
C9
350
65
  3
D0
350
66
  3
D1
350
67
  3
D2
350
68
  0
LAYOUT
  5
1E
102
{ACAD_REACTORS
330
1A
102
}
330
1A
100
AcDbPlotSettings
  1

  2
none_device
  4

  6

 40
0.0
 41
0.0
 42
0.0
 43
0.0
 44
0.0
 45
0.0
 46
0.0
 47
0.0
 48
0.0
 49
0.0
140
0.0
141
0.0
142
1.0
143
1.0
 70
  4784
 72
     0
 73
     0
 74
     5
  7

 75
    16
147
1.0
148
0.0
149
0.0
100
AcDbLayout
  1
Layout1
 70
     1
 71
     1
 10
0.0
 20
0.0
 11
12.0
 21
9.0
 12
0.0
 22
0.0
 32
0.0
 14
-35.0
 24
-299.0
 34
0.0
 15
153.933762
 25
0.0
 35
2.0
146
0.0
 13
0.0
 23
0.0
 33
0.0
 16
1.0
 26
0.0
 36
0.0
 17
0.0
 27
1.0
 37
0.0
 76
     0
330
1B
  0
LAYOUT
  5
26
102
{ACAD_REACTORS
330
1A
102
}
330
1A
100
AcDbPlotSettings
  1

  2
none_device
  4

  6

 40
0.0
 41
0.0
 42
0.0
 43
0.0
 44
0.0
 45
0.0
 46
0.0
 47
0.0
 48
0.0
 49
0.0
140
0.0
141
0.0
142
1.0
143
1.0
 70
  4784
 72
     0
 73
     0
 74
     5
  7

 75
    16
147
1.0
148
0.0
149
0.0
100
AcDbLayout
  1
Layout2
 70
     1
 71
     2
 10
0.0
 20
0.0
 11
0.0
 21
0.0
 12
0.0
 22
0.0
 32
0.0
 14
0.0
 24
0.0
 34
0.0
 15
0.0
 25
0.0
 35
0.0
146
0.0
 13
0.0
 23
0.0
 33
0.0
 16
1.0
 26
0.0
 36
0.0
 17
0.0
 27
1.0
 37
0.0
 76
     0
330
23
  0
LAYOUT
  5
22
102
{ACAD_REACTORS
330
1A
102
}
330
1A
100
AcDbPlotSettings
  1

  2
none_device
  4
Letter_(8.50_x_11.00_Inches)
  6

 40
6.35
 41
6.35
 42
6.350005
 43
6.350005
 44
215.9
 45
279.4
 46
0.0
 47
0.0
 48
0.0
 49
0.0
140
0.0
141
0.0
142
1.0
143
1.0
 70
  5808
 72
     0
 73
     0
 74
     0
  7

 75
     0
147
1.0
148
0.0
149
0.0
100
AcDbLayout
  1
Model
 70
     1
 71
     0
 10
0.0
 20
0.0
 11
12.0
 21
9.0
 12
0.0
 22
0.0
 32
0.0
 14
-35.0
 24
-299.0
 34
0.0
 15
153.933762
 25
0.0
 35
2.0
146
0.0
 13
0.0
 23
0.0
 33
0.0
 16
1.0
 26
0.0
 36
0.0
 17
0.0
 27
1.0
 37
0.0
 76
     0
330
1F
331
29
  0
MLINESTYLE
  5
18
102
{ACAD_REACTORS
330
17
102
}
330
17
100
AcDbMlineStyle
  2
Standard
 70
     0
  3

 62
   256
 51
90.0
 52
90.0
 71
     2
 49
0.5
 62
   256
  6
BYLAYER
 49
-0.5
 62
   256
  6
BYLAYER
  0
ACDBPLACEHOLDER
  5
F
102
{ACAD_REACTORS
330
E
102
}
330
E
  0
SCALE
  5
48
102
{ACAD_REACTORS
330
47
102
}
330
47
100
AcDbScale
 70
     0
300
1:1
140
1.0
141
1.0
290
     1
  0
SCALE
  5
49
102
{ACAD_REACTORS
330
47
102
}
330
47
100
AcDbScale
 70
     0
300
1:2
140
1.0
141
2.0
290
     0
  0
SCALE
  5
4A
102
{ACAD_REACTORS
330
47
102
}
330
47
100
AcDbScale
 70
     0
300
1:4
140
1.0
141
4.0
290
     0
  0
SCALE
  5
4B
102
{ACAD_REACTORS
330
47
102
}
330
47
100
AcDbScale
 70
     0
300
1:5
140
1.0
141
5.0
290
     0
  0
SCALE
  5
4C
102
{ACAD_REACTORS
330
47
102
}
330
47
100
AcDbScale
 70
     0
300
1:8
140
1.0
141
8.0
290
     0
  0
SCALE
  5
4D
102
{ACAD_REACTORS
330
47
102
}
330
47
100
AcDbScale
 70
     0
300
1:10
140
1.0
141
10.0
290
     0
  0
SCALE
  5
4E
102
{ACAD_REACTORS
330
47
102
}
330
47
100
AcDbScale
 70
     0
300
1:16
140
1.0
141
16.0
290
     0
  0
SCALE
  5
4F
102
{ACAD_REACTORS
330
47
102
}
330
47
100
AcDbScale
 70
     0
300
1:20
140
1.0
141
20.0
290
     0
  0
SCALE
  5
50
102
{ACAD_REACTORS
330
47
102
}
330
47
100
AcDbScale
 70
     0
300
1:30
140
1.0
141
30.0
290
     0
  0
SCALE
  5
51
102
{ACAD_REACTORS
330
47
102
}
330
47
100
AcDbScale
 70
     0
300
1:40
140
1.0
141
40.0
290
     0
  0
SCALE
  5
52
102
{ACAD_REACTORS
330
47
102
}
330
47
100
AcDbScale
 70
     0
300
1:50
140
1.0
141
50.0
290
     0
  0
SCALE
  5
53
102
{ACAD_REACTORS
330
47
102
}
330
47
100
AcDbScale
 70
     0
300
1:100
140
1.0
141
100.0
290
     0
  0
SCALE
  5
54
102
{ACAD_REACTORS
330
47
102
}
330
47
100
AcDbScale
 70
     0
300
2:1
140
2.0
141
1.0
290
     0
  0
SCALE
  5
55
102
{ACAD_REACTORS
330
47
102
}
330
47
100
AcDbScale
 70
     0
300
4:1
140
4.0
141
1.0
290
     0
  0
SCALE
  5
56
102
{ACAD_REACTORS
330
47
102
}
330
47
100
AcDbScale
 70
     0
300
8:1
140
8.0
141
1.0
290
     0
  0
SCALE
  5
57
102
{ACAD_REACTORS
330
47
102
}
330
47
100
AcDbScale
 70
     0
300
10:1
140
10.0
141
1.0
290
     0
  0
SCALE
  5
58
102
{ACAD_REACTORS
330
47
102
}
330
47
100
AcDbScale
 70
     0
300
100:1
140
100.0
141
1.0
290
     0
  0
SCALE
  5
59
102
{ACAD_REACTORS
330
47
102
}
330
47
100
AcDbScale
 70
     0
300
1/128" = 1'-0"
140
0.007812
141
12.0
290
     0
  0
SCALE
  5
5A
102
{ACAD_REACTORS
330
47
102
}
330
47
100
AcDbScale
 70
     0
300
1/64" = 1'-0"
140
0.015625
141
12.0
290
     0
  0
SCALE
  5
5B
102
{ACAD_REACTORS
330
47
102
}
330
47
100
AcDbScale
 70
     0
300
1/32" = 1'-0"
140
0.03125
141
12.0
290
     0
  0
SCALE
  5
5C
102
{ACAD_REACTORS
330
47
102
}
330
47
100
AcDbScale
 70
     0
300
1/16" = 1'-0"
140
0.0625
141
12.0
290
     0
  0
SCALE
  5
5D
102
{ACAD_REACTORS
330
47
102
}
330
47
100
AcDbScale
 70
     0
300
3/32" = 1'-0"
140
0.09375
141
12.0
290
     0
  0
SCALE
  5
5E
102
{ACAD_REACTORS
330
47
102
}
330
47
100
AcDbScale
 70
     0
300
1/8" = 1'-0"
140
0.125
141
12.0
290
     0
  0
SCALE
  5
5F
102
{ACAD_REACTORS
330
47
102
}
330
47
100
AcDbScale
 70
     0
300
3/16" = 1'-0"
140
0.1875
141
12.0
290
     0
  0
SCALE
  5
60
102
{ACAD_REACTORS
330
47
102
}
330
47
100
AcDbScale
 70
     0
300
1/4" = 1'-0"
140
0.25
141
12.0
290
     0
  0
SCALE
  5
61
102
{ACAD_REACTORS
330
47
102
}
330
47
100
AcDbScale
 70
     0
300
3/8" = 1'-0"
140
0.375
141
12.0
290
     0
  0
SCALE
  5
62
102
{ACAD_REACTORS
330
47
102
}
330
47
100
AcDbScale
 70
     0
300
1/2" = 1'-0"
140
0.5
141
12.0
290
     0
  0
SCALE
  5
63
102
{ACAD_REACTORS
330
47
102
}
330
47
100
AcDbScale
 70
     0
300
3/4" = 1'-0"
140
0.75
141
12.0
290
     0
  0
SCALE
  5
64
102
{ACAD_REACTORS
330
47
102
}
330
47
100
AcDbScale
 70
     0
300
1" = 1'-0"
140
1.0
141
12.0
290
     0
  0
SCALE
  5
65
102
{ACAD_REACTORS
330
47
102
}
330
47
100
AcDbScale
 70
     0
300
1-1/2" = 1'-0"
140
1.5
141
12.0
290
     0
  0
SCALE
  5
66
102
{ACAD_REACTORS
330
47
102
}
330
47
100
AcDbScale
 70
     0
300
3" = 1'-0"
140
3.0
141
12.0
290
     0
  0
SCALE
  5
67
102
{ACAD_REACTORS
330
47
102
}
330
47
100
AcDbScale
 70
     0
300
6" = 1'-0"
140
6.0
141
12.0
290
     0
  0
SCALE
  5
68
102
{ACAD_REACTORS
330
47
102
}
330
47
100
AcDbScale
 70
     0
300
1'-0" = 1'-0"
140
12.0
141
12.0
290
     0
  0
ENDSEC
  0
EOF
