  0
SECTION
  2
HEADER
  9
$ACADVER
  1
AC1015
  9
$ACADMAINTVER
 70
     6
  9
$DWGCODEPAGE
  3
ANSI_1252
  9
$INSBASE
 10
0.0
 20
0.0
 30
0.0
  9
$EXTMIN
 10
-6.0
 20
-514.599976
 30
0.0
  9
$EXTMAX
 10
660.490234
 20
0.0
 30
2.0
  9
$LIMMIN
 10
0.0
 20
0.0
  9
$LIMMAX
 10
12.0
 20
9.0
  9
$ORTHOMODE
 70
     0
  9
$REGENMODE
 70
     1
  9
$FILLMODE
 70
     1
  9
$QTEXTMODE
 70
     0
  9
$MIRRTEXT
 70
     1
  9
$LTSCALE
 40
1.0
  9
$ATTMODE
 70
     1
  9
$TEXTSIZE
 40
0.2
  9
$TRACEWID
 40
0.05
  9
$TEXTSTYLE
  7
Standard
  9
$CLAYER
  8
0
  9
$CELTYPE
  6
ByLayer
  9
$CECOLOR
 62
   256
  9
$CELTSCALE
 40
1.0
  9
$DISPSILH
 70
     0
  9
$DIMSCALE
 40
1.0
  9
$DIMASZ
 40
0.18
  9
$DIMEXO
 40
0.0625
  9
$DIMDLI
 40
0.38
  9
$DIMRND
 40
0.0
  9
$DIMDLE
 40
0.0
  9
$DIMEXE
 40
0.18
  9
$DIMTP
 40
0.0
  9
$DIMTM
 40
0.0
  9
$DIMTXT
 40
0.18
  9
$DIMCEN
 40
0.09
  9
$DIMTSZ
 40
0.0
  9
$DIMTOL
 70
     0
  9
$DIMLIM
 70
     0
  9
$DIMTIH
 70
     1
  9
$DIMTOH
 70
     1
  9
$DIMSE1
 70
     0
  9
$DIMSE2
 70
     0
  9
$DIMTAD
 70
     0
  9
$DIMZIN
 70
     0
  9
$DIMBLK
  1

  9
$DIMASO
 70
     1
  9
$DIMSHO
 70
     1
  9
$DIMPOST
  1

  9
$DIMAPOST
  1

  9
$DIMALT
 70
     0
  9
$DIMALTD
 70
     2
  9
$DIMALTF
 40
25.4
  9
$DIMLFAC
 40
1.0
  9
$DIMTOFL
 70
     0
  9
$DIMTVP
 40
0.0
  9
$DIMTIX
 70
     0
  9
$DIMSOXD
 70
     0
  9
$DIMSAH
 70
     0
  9
$DIMBLK1
  1

  9
$DIMBLK2
  1

  9
$DIMSTYLE
  2
Standard
  9
$DIMCLRD
 70
     0
  9
$DIMCLRE
 70
     0
  9
$DIMCLRT
 70
     0
  9
$DIMTFAC
 40
1.0
  9
$DIMGAP
 40
0.09
  9
$DIMJUST
 70
     0
  9
$DIMSD1
 70
     0
  9
$DIMSD2
 70
     0
  9
$DIMTOLJ
 70
     1
  9
$DIMTZIN
 70
     0
  9
$DIMALTZ
 70
     0
  9
$DIMALTTZ
 70
     0
  9
$DIMUPT
 70
     0
  9
$DIMDEC
 70
     4
  9
$DIMTDEC
 70
     4
  9
$DIMALTU
 70
     2
  9
$DIMALTTD
 70
     2
  9
$DIMTXSTY
  7
Standard
  9
$DIMAUNIT
 70
     0
  9
$DIMADEC
 70
     0
  9
$DIMALTRND
 40
0.0
  9
$DIMAZIN
 70
     0
  9
$DIMDSEP
 70
    46
  9
$DIMATFIT
 70
     3
  9
$DIMFRAC
 70
     0
  9
$DIMLDRBLK
  1

  9
$DIMLUNIT
 70
     2
  9
$DIMLWD
 70
    -2
  9
$DIMLWE
 70
    -2
  9
$DIMTMOVE
 70
     0
  9
$LUNITS
 70
     2
  9
$LUPREC
 70
     4
  9
$SKETCHINC
 40
0.1
  9
$FILLETRAD
 40
0.5
  9
$AUNITS
 70
     0
  9
$AUPREC
 70
     0
  9
$MENU
  1
.
  9
$ELEVATION
 40
0.0
  9
$PELEVATION
 40
0.0
  9
$THICKNESS
 40
0.0
  9
$LIMCHECK
 70
     0
  9
$CHAMFERA
 40
0.0
  9
$CHAMFERB
 40
0.0
  9
$CHAMFERC
 40
0.0
  9
$CHAMFERD
 40
0.0
  9
$SKPOLY
 70
     0
  9
$TDCREATE
 40
2447893.041666667
  9
$TDUCREATE
 40
0.0
  9
$TDUPDATE
 40
2460159.994479942
  9
$TDUUPDATE
 40
2460159.952813276
  9
$TDINDWG
 40
0.0
  9
$TDUSRTIMER
 40
0.0
  9
$USRTIMER
 70
     1
  9
$ANGBASE
 50
0.0
  9
$ANGDIR
 70
     0
  9
$PDMODE
 70
     0
  9
$PDSIZE
 40
0.0
  9
$PLINEWID
 40
0.0
  9
$SPLFRAME
 70
     0
  9
$SPLINETYPE
 70
     6
  9
$SPLINESEGS
 70
     8
  9
$HANDSEED
  5
10B
  9
$SURFTAB1
 70
     6
  9
$SURFTAB2
 70
     6
  9
$SURFTYPE
 70
     6
  9
$SURFU
 70
     6
  9
$SURFV
 70
     6
  9
$UCSBASE
  2

  9
$UCSNAME
  2

  9
$UCSORG
 10
0.0
 20
0.0
 30
0.0
  9
$UCSXDIR
 10
1.0
 20
0.0
 30
0.0
  9
$UCSYDIR
 10
0.0
 20
1.0
 30
0.0
  9
$UCSORTHOREF
  2

  9
$UCSORTHOVIEW
 70
     1
  9
$UCSORGTOP
 10
0.0
 20
0.0
 30
0.0
  9
$UCSORGBOTTOM
 10
0.0
 20
0.0
 30
0.0
  9
$UCSORGLEFT
 10
0.0
 20
0.0
 30
0.0
  9
$UCSORGRIGHT
 10
0.0
 20
0.0
 30
0.0
  9
$UCSORGFRONT
 10
0.0
 20
0.0
 30
0.0
  9
$UCSORGBACK
 10
0.0
 20
0.0
 30
0.0
  9
$PUCSBASE
  2

  9
$PUCSNAME
  2

  9
$PUCSORG
 10
0.0
 20
0.0
 30
0.0
  9
$PUCSXDIR
 10
1.0
 20
0.0
 30
0.0
  9
$PUCSYDIR
 10
0.0
 20
1.0
 30
0.0
  9
$PUCSORTHOREF
  2

  9
$PUCSORTHOVIEW
 70
     0
  9
$PUCSORGTOP
 10
0.0
 20
0.0
 30
0.0
  9
$PUCSORGBOTTOM
 10
0.0
 20
0.0
 30
0.0
  9
$PUCSORGLEFT
 10
0.0
 20
0.0
 30
0.0
  9
$PUCSORGRIGHT
 10
0.0
 20
0.0
 30
0.0
  9
$PUCSORGFRONT
 10
0.0
 20
0.0
 30
0.0
  9
$PUCSORGBACK
 10
0.0
 20
0.0
 30
0.0
  9
$USERI1
 70
     0
  9
$USERI2
 70
     0
  9
$USERI3
 70
     0
  9
$USERI4
 70
     0
  9
$USERI5
 70
     0
  9
$USERR1
 40
0.0
  9
$USERR2
 40
0.0
  9
$USERR3
 40
0.0
  9
$USERR4
 40
0.0
  9
$USERR5
 40
0.0
  9
$WORLDVIEW
 70
     1
  9
$SHADEDGE
 70
     3
  9
$SHADEDIF
 70
    70
  9
$TILEMODE
 70
     1
  9
$MAXACTVP
 70
    64
  9
$PINSBASE
 10
0.0
 20
0.0
 30
0.0
  9
$PLIMCHECK
 70
     0
  9
$PEXTMIN
 10
-6.0
 20
-514.599976
 30
0.0
  9
$PEXTMAX
 10
660.490234
 20
0.0
 30
2.0
  9
$PLIMMIN
 10
0.0
 20
0.0
  9
$PLIMMAX
 10
12.0
 20
9.0
  9
$UNITMODE
 70
     0
  9
$VISRETAIN
 70
     0
  9
$PLINEGEN
 70
     0
  9
$PSLTSCALE
 70
     1
  9
$TREEDEPTH
 70
  3020
  9
$CMLSTYLE
  2
Standard
  9
$CMLJUST
 70
     0
  9
$CMLSCALE
 40
1.0
  9
$PROXYGRAPHICS
 70
     1
  9
$MEASUREMENT
 70
     1
  9
$CELWEIGHT
370
    -1
  9
$ENDCAPS
280
     0
  9
$JOINSTYLE
280
     0
  9
$LWDISPLAY
290
     0
  9
$INSUNITS
 70
     0
  9
$HYPERLINKBASE
  1

  9
$STYLESHEET
  1

  9
$XEDIT
290
     1
  9
$CEPSNTYPE
380
     0
  9
$PSTYLEMODE
290
     0
  9
$FINGERPRINTGUID
  2
{0574BC82-71A5-453F-BF31-393E36A43F0A}
  9
$VERSIONGUID
  2
{FAEB1C32-E019-11D5-929B-00C0DF256EC4}
  9
$EXTNAMES
290
     1
  9
$PSVPSCALE
 40
0.0
  9
$OLESTARTUP
290
     0
  0
ENDSEC
  0
SECTION
  2
CLASSES
  0
CLASS
  1
ACDBDICTIONARYWDFLT
  2
AcDbDictionaryWithDefault
  3
ObjectDBX Classes
 90
        0
280
     0
281
     0
  0
CLASS
  1
VISUALSTYLE
  2
AcDbVisualStyle
  3
ObjectDBX Classes
 90
     4095
280
     0
281
     0
  0
CLASS
  1
MATERIAL
  2
AcDbMaterial
  3
ObjectDBX Classes
 90
     1153
280
     0
281
     0
  0
CLASS
  1
SCALE
  2
AcDbScale
  3
ObjectDBX Classes
 90
     1153
280
     0
281
     0
  0
CLASS
  1
TABLESTYLE
  2
AcDbTableStyle
  3
ObjectDBX Classes
 90
     4095
280
     0
281
     0
  0
CLASS
  1
MLEADERSTYLE
  2
AcDbMLeaderStyle
  3
ACDB_MLEADERSTYLE_CLASS
 90
     4095
280
     0
281
     0
  0
CLASS
  1
SUN
  2
AcDbSun
  3
SCENEOE
 90
     1153
280
     0
281
     0
  0
CLASS
  1
ACDBPLACEHOLDER
  2
AcDbPlaceHolder
  3
ObjectDBX Classes
 90
        0
280
     0
281
     0
  0
CLASS
  1
LAYOUT
  2
AcDbLayout
  3
ObjectDBX Classes
 90
        0
280
     0
281
     0
  0
ENDSEC
  0
SECTION
  2
TABLES
  0
TABLE
  2
VPORT
  5
8
330
0
100
AcDbSymbolTable
 70
     1
  0
VPORT
  5
29
330
8
100
AcDbSymbolTableRecord
100
AcDbViewportTableRecord
  2
*Active
 70
     0
 10
0.0
 20
0.0
 11
1.0
 21
1.0
 12
10.429907
 22
4.5
 13
0.0
 23
0.0
 14
0.5
 24
0.5
 15
0.5
 25
0.5
 16
0.0
 26
0.0
 36
1.0
 17
0.0
 27
0.0
 37
0.0
 40
9.0
 41
1.972973
 42
50.0
 43
0.0
 44
0.0
 50
0.0
 51
0.0
 71
     0
 72
   100
 73
     1
 74
     3
 75
     0
 76
     0
 77
     0
 78
     0
281
     0
 65
     1
110
0.0
120
0.0
130
0.0
111
1.0
121
0.0
131
0.0
112
0.0
122
1.0
132
0.0
 79
     0
146
0.0
  0
ENDTAB
  0
TABLE
  2
LTYPE
  5
5
330
0
100
AcDbSymbolTable
 70
     8
  0
LTYPE
  5
14
330
5
100
AcDbSymbolTableRecord
100
AcDbLinetypeTableRecord
  2
ByBlock
 70
     0
  3

 72
    65
 73
     0
 40
0.0
  0
LTYPE
  5
15
330
5
100
AcDbSymbolTableRecord
100
AcDbLinetypeTableRecord
  2
ByLayer
 70
     0
  3

 72
    65
 73
     0
 40
0.0
  0
LTYPE
  5
16
330
5
100
AcDbSymbolTableRecord
100
AcDbLinetypeTableRecord
  2
Continuous
 70
     0
  3
Solid line
 72
    65
 73
     0
 40
0.0
  0
LTYPE
  5
6E
330
5
100
AcDbSymbolTableRecord
100
AcDbLinetypeTableRecord
  2
CONTINOUS
 70
     0
  3
Solid line
 72
    65
 73
     0
 40
0.0
  0
LTYPE
  5
6F
330
5
100
AcDbSymbolTableRecord
100
AcDbLinetypeTableRecord
  2
DASHSPACE
 70
     0
  3
__    __    __    __    __   
 72
    65
 73
     2
 40
30.0
 49
12.0
 74
     0
 49
-18.0
 74
     0
  0
LTYPE
  5
70
330
5
100
AcDbSymbolTableRecord
100
AcDbLinetypeTableRecord
  2
DASHED
 70
     0
  3
__ __ __ __ __ __ __ __ __ __ __ __ __ __ __ __
 72
    65
 73
     2
 40
15.0
 49
12.0
 74
     0
 49
-3.0
 74
     0
  0
LTYPE
  5
71
330
5
100
AcDbSymbolTableRecord
100
AcDbLinetypeTableRecord
  2
DASHDOT
 70
     0
  3
 __ . __ . __ . __ . __ . __ . __ . 
 72
    65
 73
     4
 40
18.5
 49
12.0
 74
     0
 49
-3.0
 74
     0
 49
0.5
 74
     0
 49
-3.0
 74
     0
  0
LTYPE
  5
72
330
5
100
AcDbSymbolTableRecord
100
AcDbLinetypeTableRecord
  2
PHANTOM
 70
     0
  3
____________    ____    ____   _
 72
    65
 73
     6
 40
20.0
 49
10.0
 74
     0
 49
-2.0
 74
     0
 49
2.0
 74
     0
 49
-2.0
 74
     0
 49
2.0
 74
     0
 49
-2.0
 74
     0
  0
LTYPE
  5
73
330
5
100
AcDbSymbolTableRecord
100
AcDbLinetypeTableRecord
  2
DOT
 70
     0
  3
 . . . . . . . . . . . . . . . .
 72
    65
 73
     2
 40
3.5
 49
0.5
 74
     0
 49
-3.0
 74
     0
  0
LTYPE
  5
74
330
5
100
AcDbSymbolTableRecord
100
AcDbLinetypeTableRecord
  2
AXES
 70
     0
  3
________  __  ________  __  _____
 72
    65
 73
     4
 40
24.0
 49
15.0
 74
     0
 49
-3.0
 74
     0
 49
3.0
 74
     0
 49
-3.0
 74
     0
  0
ENDTAB
  0
TABLE
  2
LAYER
  5
2
330
0
100
AcDbSymbolTable
 70
     1
  0
LAYER
  5
10
330
2
100
AcDbSymbolTableRecord
100
AcDbLayerTableRecord
  2
0
 70
     0
 62
     7
  6
Continuous
370
    -3
390
F
  0
ENDTAB
  0
TABLE
  2
STYLE
  5
3
330
0
100
AcDbSymbolTable
 70
     1
  0
STYLE
  5
11
330
3
100
AcDbSymbolTableRecord
100
AcDbTextStyleTableRecord
  2
Standard
 70
     0
 40
0.0
 41
1.0
 50
0.0
 71
     0
 42
0.2
  3
txt
  4

  0
ENDTAB
  0
TABLE
  2
VIEW
  5
6
330
0
100
AcDbSymbolTable
 70
     0
  0
ENDTAB
  0
TABLE
  2
UCS
  5
7
330
0
100
AcDbSymbolTable
 70
     0
  0
ENDTAB
  0
TABLE
  2
APPID
  5
9
330
0
100
AcDbSymbolTable
 70
     1
  0
APPID
  5
12
330
9
100
AcDbSymbolTableRecord
100
AcDbRegAppTableRecord
  2
ACAD
 70
     0
  0
ENDTAB
  0
TABLE
  2
DIMSTYLE
  5
A
330
0
100
AcDbSymbolTable
 70
     1
100
AcDbDimStyleTable
  0
DIMSTYLE
105
27
330
A
100
AcDbSymbolTableRecord
100
AcDbDimStyleTableRecord
  2
Standard
 70
     0
178
     0
340
11
  0
ENDTAB
  0
TABLE
  2
BLOCK_RECORD
  5
1
330
0
100
AcDbSymbolTable
 70
     1
  0
BLOCK_RECORD
  5
1F
330
1
100
AcDbSymbolTableRecord
100
AcDbBlockTableRecord
  2
*Model_Space
340
22
  0
BLOCK_RECORD
  5
1B
330
1
100
AcDbSymbolTableRecord
100
AcDbBlockTableRecord
  2
*Paper_Space
340
1E
  0
BLOCK_RECORD
  5
23
330
1
100
AcDbSymbolTableRecord
100
AcDbBlockTableRecord
  2
*Paper_Space0
340
26
  0
ENDTAB
  0
ENDSEC
  0
SECTION
  2
BLOCKS
  0
BLOCK
  5
20
330
1F
100
AcDbEntity
  8
0
100
AcDbBlockBegin
  2
*Model_Space
 70
     0
 10
0.0
 20
0.0
 30
0.0
  3
*Model_Space
  1

  0
ENDBLK
  5
21
330
1F
100
AcDbEntity
  8
0
100
AcDbBlockEnd
  0
BLOCK
  5
1C
330
1B
100
AcDbEntity
 67
     1
  8
0
100
AcDbBlockBegin
  2
*Paper_Space
 70
     0
 10
0.0
 20
0.0
 30
0.0
  3
*Paper_Space
  1

  0
ENDBLK
  5
1D
330
1B
100
AcDbEntity
 67
     1
  8
0
100
AcDbBlockEnd
  0
BLOCK
  5
24
330
23
100
AcDbEntity
  8
0
100
AcDbBlockBegin
  2
*Paper_Space0
 70
     0
 10
0.0
 20
0.0
 30
0.0
  3
*Paper_Space0
  1

  0
ENDBLK
  5
25
330
23
100
AcDbEntity
  8
0
100
AcDbBlockEnd
  0
ENDSEC
  0
SECTION
  2
ENTITIES
  0
ARC
  5
75
330
1F
100
AcDbEntity
  8
0
 62
     7
370
    35
100
AcDbCircle
 10
0.0
 20
-6.0
 30
0.0
 40
6.000000000000028
100
AcDbArc
 50
90.0
 51
180.0
  0
LINE
  5
76
330
1F
100
AcDbEntity
  8
0
 62
     7
370
    35
100
AcDbLine
 10
-6.0
 20
-508.6
 30
0.0
 11
-6.0
 21
-6.0
 31
0.0
  0
ARC
  5
77
330
1F
100
AcDbEntity
  8
0
 62
     7
370
    35
100
AcDbCircle
 10
0.0
 20
-508.6
 30
0.0
 40
6.000000000000147
100
AcDbArc
 50
180.0
 51
270.0
  0
LINE
  5
78
330
1F
100
AcDbEntity
  8
0
 62
     7
370
    35
100
AcDbLine
 10
0.0
 20
-514.6
 30
0.0
 11
654.490258
 21
-514.6
 31
0.0
  0
ARC
  5
79
330
1F
100
AcDbEntity
  8
0
 62
     7
370
    35
100
AcDbCircle
 10
654.490258
 20
-508.6
 30
0.0
 40
5.999999999999928
100
AcDbArc
 50
270.0
 51
0.0
  0
LINE
  5
7A
330
1F
100
AcDbEntity
  8
0
 62
     7
370
    35
100
AcDbLine
 10
660.490258
 20
-287.45
 30
0.0
 11
660.490258
 21
-508.6
 31
0.0
  0
LINE
  5
7B
330
1F
100
AcDbEntity
  8
0
 62
     7
370
    35
100
AcDbLine
 10
660.490258
 20
-287.45
 30
0.0
 11
598.72349
 21
-287.45
 31
0.0
  0
LINE
  5
7C
330
1F
100
AcDbEntity
  8
0
 62
     7
370
    35
100
AcDbLine
 10
598.72349
 20
-229.15
 30
0.0
 11
598.72349
 21
-287.45
 31
0.0
  0
LINE
  5
7D
330
1F
100
AcDbEntity
  8
0
 62
     7
370
    35
100
AcDbLine
 10
598.72349
 20
-229.15
 30
0.0
 11
660.490258
 21
-229.15
 31
0.0
  0
LINE
  5
7E
330
1F
100
AcDbEntity
  8
0
 62
     7
370
    35
100
AcDbLine
 10
660.490258
 20
-6.0
 30
0.0
 11
660.490258
 21
-229.15
 31
0.0
  0
ARC
  5
7F
330
1F
100
AcDbEntity
  8
0
 62
     7
370
    35
100
AcDbCircle
 10
654.490258
 20
-6.0
 30
0.0
 40
5.999999999999994
100
AcDbArc
 50
360.0
 51
90.0
  0
LINE
  5
80
330
1F
100
AcDbEntity
  8
0
 62
     7
370
    35
100
AcDbLine
 10
654.490258
 20
0.0
 30
0.0
 11
0.0
 21
0.0
 31
0.0
  0
LINE
  5
81
330
1F
100
AcDbEntity
  8
0
 62
     7
370
    35
100
AcDbLine
 10
565.245129
 20
-169.3
 30
0.0
 11
565.245129
 21
-137.3
 31
0.0
  0
ARC
  5
82
330
1F
100
AcDbEntity
  8
0
 62
     7
370
    35
100
AcDbCircle
 10
560.245129
 20
-169.3
 30
0.0
 40
5.0
100
AcDbArc
 50
270.0
 51
0.0
  0
LINE
  5
83
330
1F
100
AcDbEntity
  8
0
 62
     7
370
    35
100
AcDbLine
 10
560.245129
 20
-174.3
 30
0.0
 11
101.245129
 21
-174.3
 31
0.0
  0
ARC
  5
84
330
1F
100
AcDbEntity
  8
0
 62
     7
370
    35
100
AcDbCircle
 10
101.245129
 20
-169.3
 30
0.0
 40
5.000000000000051
100
AcDbArc
 50
180.0
 51
270.0
  0
LINE
  5
85
330
1F
100
AcDbEntity
  8
0
 62
     7
370
    35
100
AcDbLine
 10
96.245129
 20
-137.3
 30
0.0
 11
96.245129
 21
-169.3
 31
0.0
  0
ARC
  5
86
330
1F
100
AcDbEntity
  8
0
 62
     7
370
    35
100
AcDbCircle
 10
101.245129
 20
-137.3
 30
0.0
 40
5.0
100
AcDbArc
 50
90.0
 51
180.0
  0
LINE
  5
87
330
1F
100
AcDbEntity
  8
0
 62
     7
370
    35
100
AcDbLine
 10
101.245129
 20
-132.3
 30
0.0
 11
560.245129
 21
-132.3
 31
0.0
  0
ARC
  5
88
330
1F
100
AcDbEntity
  8
0
 62
     7
370
    35
100
AcDbCircle
 10
560.245129
 20
-137.3
 30
0.0
 40
4.99999999999998
100
AcDbArc
 50
360.0
 51
90.0
  0
CIRCLE
  5
89
330
1F
100
AcDbEntity
  8
0
 62
     7
370
    35
100
AcDbCircle
 10
211.245129
 20
-502.6
 30
0.0
 40
2.599999999999994
  0
CIRCLE
  5
8A
330
1F
100
AcDbEntity
  8
0
 62
     7
370
    35
100
AcDbCircle
 10
311.245129
 20
-12.0
 30
0.0
 40
2.600000000000009
  0
CIRCLE
  5
8B
330
1F
100
AcDbEntity
  8
0
 62
     7
370
    35
100
AcDbCircle
 10
411.245129
 20
-12.0
 30
0.0
 40
2.600000000000023
  0
CIRCLE
  5
8C
330
1F
100
AcDbEntity
  8
0
 62
     7
370
    35
100
AcDbCircle
 10
511.245129
 20
-12.0
 30
0.0
 40
2.600000000000023
  0
CIRCLE
  5
8D
330
1F
100
AcDbEntity
  8
0
 62
     7
370
    35
100
AcDbCircle
 10
411.245129
 20
-502.6
 30
0.0
 40
2.600000000000023
  0
ARC
  5
8E
330
1F
100
AcDbEntity
  8
0
 62
     7
370
    35
100
AcDbCircle
 10
618.490258
 20
-58.0
 30
0.0
 40
5.000000000000121
100
AcDbArc
 50
90.0
 51
180.0
  0
LINE
  5
8F
330
1F
100
AcDbEntity
  8
0
 62
     7
370
    35
100
AcDbLine
 10
618.490258
 20
-53.0
 30
0.0
 11
638.490258
 21
-53.0
 31
0.0
  0
ARC
  5
90
330
1F
100
AcDbEntity
  8
0
 62
     7
370
    35
100
AcDbCircle
 10
638.490258
 20
-58.0
 30
0.0
 40
4.999999999999905
100
AcDbArc
 50
360.0
 51
90.0
  0
LINE
  5
91
330
1F
100
AcDbEntity
  8
0
 62
     7
370
    35
100
AcDbLine
 10
643.490258
 20
-58.0
 30
0.0
 11
643.490258
 21
-118.0
 31
0.0
  0
ARC
  5
92
330
1F
100
AcDbEntity
  8
0
 62
     7
370
    35
100
AcDbCircle
 10
638.490258
 20
-118.0
 30
0.0
 40
4.999999999999909
100
AcDbArc
 50
270.0
 51
0.0
  0
LINE
  5
93
330
1F
100
AcDbEntity
  8
0
 62
     7
370
    35
100
AcDbLine
 10
618.490258
 20
-123.0
 30
0.0
 11
638.490258
 21
-123.0
 31
0.0
  0
ARC
  5
94
330
1F
100
AcDbEntity
  8
0
 62
     7
370
    35
100
AcDbCircle
 10
618.490258
 20
-118.0
 30
0.0
 40
4.999999999999909
100
AcDbArc
 50
180.0
 51
270.0
  0
LINE
  5
95
330
1F
100
AcDbEntity
  8
0
 62
     7
370
    35
100
AcDbLine
 10
613.490258
 20
-58.0
 30
0.0
 11
613.490258
 21
-118.0
 31
0.0
  0
CIRCLE
  5
96
330
1F
100
AcDbEntity
  8
0
 62
     7
370
    35
100
AcDbCircle
 10
615.490258
 20
-15.0
 30
0.0
 40
2.75
  0
CIRCLE
  5
97
330
1F
100
AcDbEntity
  8
0
 62
     7
370
    35
100
AcDbCircle
 10
644.490258
 20
-15.0
 30
0.0
 40
2.75
  0
CIRCLE
  5
98
330
1F
100
AcDbEntity
  8
0
 62
     7
370
    35
100
AcDbCircle
 10
645.490258
 20
-153.3
 30
0.0
 40
2.600000000000009
  0
CIRCLE
  5
99
330
1F
100
AcDbEntity
  8
0
 62
     7
370
    35
100
AcDbCircle
 10
511.245129
 20
-502.6
 30
0.0
 40
2.600000000000023
  0
LINE
  5
9A
330
1F
100
AcDbEntity
  8
0
 62
     7
370
    35
100
AcDbLine
 10
560.245129
 20
-342.3
 30
0.0
 11
101.245129
 21
-342.3
 31
0.0
  0
ARC
  5
9B
330
1F
100
AcDbEntity
  8
0
 62
     7
370
    35
100
AcDbCircle
 10
560.245129
 20
-347.3
 30
0.0
 40
4.99999999999996
100
AcDbArc
 50
360.0
 51
90.0
  0
LINE
  5
9C
330
1F
100
AcDbEntity
  8
0
 62
     7
370
    35
100
AcDbLine
 10
565.245129
 20
-347.3
 30
0.0
 11
565.245129
 21
-379.3
 31
0.0
  0
ARC
  5
9D
330
1F
100
AcDbEntity
  8
0
 62
     7
370
    35
100
AcDbCircle
 10
560.245129
 20
-379.3
 30
0.0
 40
4.99999999999996
100
AcDbArc
 50
270.0
 51
0.0
  0
LINE
  5
9E
330
1F
100
AcDbEntity
  8
0
 62
     7
370
    35
100
AcDbLine
 10
101.245129
 20
-384.3
 30
0.0
 11
560.245129
 21
-384.3
 31
0.0
  0
ARC
  5
9F
330
1F
100
AcDbEntity
  8
0
 62
     7
370
    35
100
AcDbCircle
 10
101.245129
 20
-379.3
 30
0.0
 40
4.99999999999994
100
AcDbArc
 50
180.0
 51
270.0
  0
LINE
  5
A0
330
1F
100
AcDbEntity
  8
0
 62
     7
370
    35
100
AcDbLine
 10
96.245129
 20
-379.3
 30
0.0
 11
96.245129
 21
-347.3
 31
0.0
  0
ARC
  5
A1
330
1F
100
AcDbEntity
  8
0
 62
     7
370
    35
100
AcDbCircle
 10
101.245129
 20
-347.3
 30
0.0
 40
5.00000000000001
100
AcDbArc
 50
90.0
 51
180.0
  0
CIRCLE
  5
A2
330
1F
100
AcDbEntity
  8
0
 62
     7
370
    35
100
AcDbCircle
 10
111.245129
 20
-502.6
 30
0.0
 40
2.599999999999997
  0
ARC
  5
A3
330
1F
100
AcDbEntity
  8
0
 62
     7
370
    35
100
AcDbCircle
 10
618.490258
 20
-456.6
 30
0.0
 40
4.999999999999879
100
AcDbArc
 50
180.0
 51
270.0
  0
LINE
  5
A4
330
1F
100
AcDbEntity
  8
0
 62
     7
370
    35
100
AcDbLine
 10
613.490258
 20
-396.6
 30
0.0
 11
613.490258
 21
-456.6
 31
0.0
  0
ARC
  5
A5
330
1F
100
AcDbEntity
  8
0
 62
     7
370
    35
100
AcDbCircle
 10
618.490258
 20
-396.6
 30
0.0
 40
5.000000000000121
100
AcDbArc
 50
90.0
 51
180.0
  0
LINE
  5
A6
330
1F
100
AcDbEntity
  8
0
 62
     7
370
    35
100
AcDbLine
 10
618.490258
 20
-391.6
 30
0.0
 11
638.490258
 21
-391.6
 31
0.0
  0
ARC
  5
A7
330
1F
100
AcDbEntity
  8
0
 62
     7
370
    35
100
AcDbCircle
 10
638.490258
 20
-396.6
 30
0.0
 40
4.999999999999879
100
AcDbArc
 50
360.0
 51
90.0
  0
LINE
  5
A8
330
1F
100
AcDbEntity
  8
0
 62
     7
370
    35
100
AcDbLine
 10
643.490258
 20
-396.6
 30
0.0
 11
643.490258
 21
-456.6
 31
0.0
  0
ARC
  5
A9
330
1F
100
AcDbEntity
  8
0
 62
     7
370
    35
100
AcDbCircle
 10
638.490258
 20
-456.6
 30
0.0
 40
4.999999999999879
100
AcDbArc
 50
270.0
 51
0.0
  0
LINE
  5
AA
330
1F
100
AcDbEntity
  8
0
 62
     7
370
    35
100
AcDbLine
 10
618.490258
 20
-461.6
 30
0.0
 11
638.490258
 21
-461.6
 31
0.0
  0
CIRCLE
  5
AB
330
1F
100
AcDbEntity
  8
0
 62
     7
370
    35
100
AcDbCircle
 10
615.490258
 20
-499.6
 30
0.0
 40
2.75
  0
CIRCLE
  5
AC
330
1F
100
AcDbEntity
  8
0
 62
     7
370
    35
100
AcDbCircle
 10
644.490258
 20
-499.6
 30
0.0
 40
2.75
  0
CIRCLE
  5
AD
330
1F
100
AcDbEntity
  8
0
 62
     7
370
    35
100
AcDbCircle
 10
645.490258
 20
-363.3
 30
0.0
 40
2.600000000000009
  0
CIRCLE
  5
AE
330
1F
100
AcDbEntity
  8
0
 62
     7
370
    35
100
AcDbCircle
 10
111.245129
 20
-12.0
 30
0.0
 40
2.600000000000011
  0
CIRCLE
  5
AF
330
1F
100
AcDbEntity
  8
0
 62
     7
370
    35
100
AcDbCircle
 10
311.245129
 20
-502.6
 30
0.0
 40
2.599999999999994
  0
LINE
  5
B0
330
1F
100
AcDbEntity
  8
0
 62
     7
 48
0.00356
370
    35
100
AcDbLine
 10
31.805211
 20
-265.491024
 30
0.0
 11
31.902775
 21
-265.594723
 31
0.0
  0
LINE
  5
B1
330
1F
100
AcDbEntity
  8
0
 62
     7
 48
0.003569
370
    35
100
AcDbLine
 10
31.671055
 20
-265.442257
 30
0.0
 11
31.805211
 21
-265.491024
 31
0.0
  0
LINE
  5
B2
330
1F
100
AcDbEntity
  8
0
 62
     7
 48
0.006218
370
    35
100
AcDbLine
 10
31.424138
 20
-265.471981
 30
0.0
 11
31.671055
 21
-265.442257
 31
0.0
  0
LINE
  5
B3
330
1F
100
AcDbEntity
  8
0
 62
     7
 48
0.495182
370
    35
100
AcDbLine
 10
13.017827
 20
-272.788815
 30
0.0
 11
31.424138
 21
-265.471981
 31
0.0
  0
LINE
  5
B4
330
1F
100
AcDbEntity
  8
0
 62
     7
 48
0.164819
370
    35
100
AcDbLine
 10
13.017827
 20
-266.196041
 30
0.0
 11
13.017827
 21
-272.788815
 31
0.0
  0
LINE
  5
B5
330
1F
100
AcDbEntity
  8
0
 62
     7
370
    35
100
AcDbLine
 10
13.017827
 20
-266.196041
 30
0.0
 11
31.957646
 21
-258.688717
 31
0.0
  0
LINE
  5
B6
330
1F
100
AcDbEntity
  8
0
 62
     7
 48
0.109561
370
    35
100
AcDbLine
 10
31.957646
 20
-254.306271
 30
0.0
 11
31.957646
 21
-258.688717
 31
0.0
  0
LINE
  5
B7
330
1F
100
AcDbEntity
  8
0
 62
     7
 48
0.00416
370
    35
100
AcDbLine
 10
31.933262
 20
-254.141659
 30
0.0
 11
31.957646
 21
-254.306271
 31
0.0
  0
LINE
  5
B8
330
1F
100
AcDbEntity
  8
0
 62
     7
 48
0.005489
370
    35
100
AcDbLine
 10
31.805211
 20
-253.963314
 30
0.0
 11
31.933262
 21
-254.141659
 31
0.0
  0
LINE
  5
B9
330
1F
100
AcDbEntity
  8
0
 62
     7
 48
0.003624
370
    35
100
AcDbLine
 10
31.671055
 20
-253.908382
 30
0.0
 11
31.805211
 21
-253.963314
 31
0.0
  0
LINE
  5
BA
330
1F
100
AcDbEntity
  8
0
 62
     7
 48
0.003052
370
    35
100
AcDbLine
 10
31.549229
 20
-253.916439
 30
0.0
 11
31.671055
 21
-253.908382
 31
0.0
  0
LINE
  5
BB
330
1F
100
AcDbEntity
  8
0
 62
     7
 48
0.00334
370
    35
100
AcDbLine
 10
31.424138
 20
-253.963314
 30
0.0
 11
31.549229
 21
-253.916439
 31
0.0
  0
LINE
  5
BC
330
1F
100
AcDbEntity
  8
0
 62
     7
 48
0.495181
370
    35
100
AcDbLine
 10
13.017827
 20
-261.280086
 30
0.0
 11
31.424138
 21
-253.963314
 31
0.0
  0
LINE
  5
BD
330
1F
100
AcDbEntity
  8
0
 62
     7
 48
0.164818
370
    35
100
AcDbLine
 10
13.017827
 20
-254.687374
 30
0.0
 11
13.017827
 21
-261.280086
 31
0.0
  0
LINE
  5
BE
330
1F
100
AcDbEntity
  8
0
 62
     7
370
    35
100
AcDbLine
 10
13.017827
 20
-254.687374
 30
0.0
 11
31.843312
 21
-247.218142
 31
0.0
  0
ARC
  5
BF
330
1F
100
AcDbEntity
  8
0
 62
     7
370
    35
100
AcDbCircle
 10
33.597294
 20
-250.960995
 30
0.0
 40
4.133688742119378
100
AcDbArc
 50
111.085227
 51
115.108716
  0
ARC
  5
C0
330
1F
100
AcDbEntity
  8
0
 62
     7
370
    35
100
AcDbCircle
 10
34.338658
 20
-252.568294
 30
0.0
 40
5.901344565273162
100
AcDbArc
 50
109.025374
 51
112.187182
  0
LINE
  5
C1
330
1F
100
AcDbEntity
  8
0
 62
     7
 48
0.021484
370
    35
100
AcDbLine
 10
32.41494
 20
-246.989441
 30
0.0
 11
33.228856
 21
-246.71368
 31
0.0
  0
LINE
  5
C2
330
1F
100
AcDbEntity
  8
0
 62
     7
 48
0.020634
370
    35
100
AcDbLine
 10
33.228856
 20
-246.71368
 30
0.0
 11
34.037602
 21
-246.548824
 31
0.0
  0
LINE
  5
C3
330
1F
100
AcDbEntity
  8
0
 62
     7
 48
0.01984
370
    35
100
AcDbLine
 10
34.037602
 20
-246.548824
 30
0.0
 11
34.830327
 21
-246.51141
 31
0.0
  0
LINE
  5
C4
330
1F
100
AcDbEntity
  8
0
 62
     7
 48
0.016184
370
    35
100
AcDbLine
 10
34.830327
 20
-246.51141
 30
0.0
 11
35.473149
 21
-246.587765
 31
0.0
  0
LINE
  5
C5
330
1F
100
AcDbEntity
  8
0
 62
     7
 48
0.015981
370
    35
100
AcDbLine
 10
35.473149
 20
-246.587765
 30
0.0
 11
36.086888
 21
-246.766537
 31
0.0
  0
LINE
  5
C6
330
1F
100
AcDbEntity
  8
0
 62
     7
 48
0.016037
370
    35
100
AcDbLine
 10
36.086888
 20
-246.766537
 30
0.0
 11
36.664006
 21
-247.046627
 31
0.0
  0
LINE
  5
C7
330
1F
100
AcDbEntity
  8
0
 62
     7
 48
0.005872
370
    35
100
AcDbLine
 10
36.664006
 20
-247.046627
 30
0.0
 11
36.862492
 21
-247.172237
 31
0.0
  0
LINE
  5
C8
330
1F
100
AcDbEntity
  8
0
 62
     7
 48
0.015065
370
    35
100
AcDbLine
 10
36.862492
 20
-247.172237
 30
0.0
 11
37.331242
 21
-247.550899
 31
0.0
  0
LINE
  5
C9
330
1F
100
AcDbEntity
  8
0
 62
     7
 48
0.014865
370
    35
100
AcDbLine
 10
37.331242
 20
-247.550899
 30
0.0
 11
37.720402
 21
-248.000484
 31
0.0
  0
LINE
  5
CA
330
1F
100
AcDbEntity
  8
0
 62
     7
 48
0.014959
370
    35
100
AcDbLine
 10
37.720402
 20
-248.000484
 30
0.0
 11
38.024388
 21
-248.515865
 31
0.0
  0
LINE
  5
CB
330
1F
100
AcDbEntity
  8
0
 62
     7
 48
0.016905
370
    35
100
AcDbLine
 10
38.024388
 20
-248.515865
 30
0.0
 11
38.259404
 21
-249.149898
 31
0.0
  0
LINE
  5
CC
330
1F
100
AcDbEntity
  8
0
 62
     7
 48
0.017569
370
    35
100
AcDbLine
 10
38.259404
 20
-249.149898
 30
0.0
 11
38.393681
 21
-249.839718
 31
0.0
  0
LINE
  5
CD
330
1F
100
AcDbEntity
  8
0
 62
     7
 48
0.018329
370
    35
100
AcDbLine
 10
38.393681
 20
-249.839718
 30
0.0
 11
38.436039
 21
-250.571651
 31
0.0
  0
LINE
  5
CE
330
1F
100
AcDbEntity
  8
0
 62
     7
370
    35
100
AcDbLine
 10
38.436039
 20
-250.571651
 30
0.0
 11
38.436039
 21
-278.31451
 31
0.0
  0
LINE
  5
CF
330
1F
100
AcDbEntity
  8
0
 62
     7
 48
0.00662
370
    35
100
AcDbLine
 10
38.18217
 20
-278.23927
 30
0.0
 11
38.436039
 21
-278.31451
 31
0.0
  0
ARC
  5
D0
330
1F
100
AcDbEntity
  8
0
 62
     7
370
    35
100
AcDbCircle
 10
10.841355
 20
-395.159765
 30
0.0
 40
120.0746531221247
100
AcDbArc
 50
76.838391
 51
78.448863
  0
ARC
  5
D1
330
1F
100
AcDbEntity
  8
0
 62
     7
370
    35
100
AcDbCircle
 10
58.442792
 20
-159.775938
 30
0.0
 40
120.0746531279498
100
AcDbArc
 50
257.201318
 51
258.685777
  0
LINE
  5
D2
330
1F
100
AcDbEntity
  8
0
 62
     7
370
    35
100
AcDbLine
 10
13.017827
 20
-284.4118
 30
0.0
 11
31.843088
 21
-276.866486
 31
0.0
  0
LINE
  5
D3
330
1F
100
AcDbEntity
  8
0
 62
     7
 48
0.166724
370
    35
100
AcDbLine
 10
13.017827
 20
-277.742855
 30
0.0
 11
13.017827
 21
-284.4118
 31
0.0
  0
LINE
  5
D4
330
1F
100
AcDbEntity
  8
0
 62
     7
370
    35
100
AcDbLine
 10
13.017827
 20
-277.742855
 30
0.0
 11
31.843327
 21
-270.273617
 31
0.0
  0
LINE
  5
D5
330
1F
100
AcDbEntity
  8
0
 62
     7
 48
0.001125
370
    35
100
AcDbLine
 10
31.843327
 20
-270.273617
 30
0.0
 11
31.884465
 21
-270.255367
 31
0.0
  0
LINE
  5
D6
330
1F
100
AcDbEntity
  8
0
 62
     7
 48
0.00194
370
    35
100
AcDbLine
 10
31.884465
 20
-270.255367
 30
0.0
 11
31.939335
 21
-270.200497
 31
0.0
  0
LINE
  5
D7
330
1F
100
AcDbEntity
  8
0
 62
     7
 48
0.002034
370
    35
100
AcDbLine
 10
31.939335
 20
-270.200497
 30
0.0
 11
31.957646
 21
-270.121212
 31
0.0
  0
LINE
  5
D8
330
1F
100
AcDbEntity
  8
0
 62
     7
 48
0.106703
370
    35
100
AcDbLine
 10
31.957646
 20
-265.853085
 30
0.0
 11
31.957646
 21
-270.121212
 31
0.0
  0
LINE
  5
D9
330
1F
100
AcDbEntity
  8
0
 62
     7
 48
0.003479
370
    35
100
AcDbLine
 10
31.945164
 20
-265.714474
 30
0.0
 11
31.957646
 21
-265.853085
 31
0.0
  0
LINE
  5
DA
330
1F
100
AcDbEntity
  8
0
 62
     7
 48
0.003176
370
    35
100
AcDbLine
 10
31.902775
 20
-265.594723
 30
0.0
 11
31.945164
 21
-265.714474
 31
0.0
  0
ARC
  5
DB
330
1F
100
AcDbEntity
  8
0
 62
     7
370
    35
100
AcDbCircle
 10
172.179918
 20
-575.797527
 30
0.0
 40
381.9516535696924
100
AcDbArc
 50
111.028969
 51
111.765702
  0
ARC
  5
DC
330
1F
100
AcDbEntity
  8
0
 62
     7
370
    35
100
AcDbCircle
 10
-94.211181
 20
77.953947
 30
0.0
 40
324.0118386330948
100
AcDbArc
 50
291.773008
 51
292.64648
  0
LINE
  5
DD
330
1F
100
AcDbEntity
  8
0
 62
     7
 48
0.011281
370
    35
100
AcDbLine
 10
25.974654
 20
-222.943106
 30
0.0
 11
25.57288
 21
-223.148556
 31
0.0
  0
LINE
  5
DE
330
1F
100
AcDbEntity
  8
0
 62
     7
 48
0.011412
370
    35
100
AcDbLine
 10
25.57288
 20
-223.148556
 30
0.0
 11
25.186467
 21
-223.391598
 31
0.0
  0
LINE
  5
DF
330
1F
100
AcDbEntity
  8
0
 62
     7
 48
0.012766
370
    35
100
AcDbLine
 10
25.186467
 20
-223.391598
 30
0.0
 11
24.779637
 21
-223.700191
 31
0.0
  0
LINE
  5
E0
330
1F
100
AcDbEntity
  8
0
 62
     7
 48
0.013003
370
    35
100
AcDbLine
 10
24.779637
 20
-223.700191
 30
0.0
 11
24.393478
 21
-224.048625
 31
0.0
  0
ARC
  5
E1
330
1F
100
AcDbEntity
  8
0
 62
     7
370
    35
100
AcDbCircle
 10
28.435614
 20
-228.239674
 30
0.0
 40
5.82269311109
100
AcDbArc
 50
133.963809
 51
153.788359
  0
ARC
  5
E2
330
1F
100
AcDbEntity
  8
0
 62
     7
370
    35
100
AcDbCircle
 10
26.597803
 20
-227.445814
 30
0.0
 40
3.824523357856792
100
AcDbArc
 50
152.297374
 51
179.340441
  0
LINE
  5
E3
330
1F
100
AcDbEntity
  8
0
 62
     7
 48
0.275333
370
    35
100
AcDbLine
 10
22.773533
 20
-227.401789
 30
0.0
 11
22.773533
 21
-238.415096
 31
0.0
  0
LINE
  5
E4
330
1F
100
AcDbEntity
  8
0
 62
     7
 48
0.262539
370
    35
100
AcDbLine
 10
22.773533
 20
-238.415096
 30
0.0
 11
13.017827
 21
-242.30212
 31
0.0
  0
LINE
  5
E5
330
1F
100
AcDbEntity
  8
0
 62
     7
 48
0.164819
370
    35
100
AcDbLine
 10
13.017827
 20
-242.30212
 30
0.0
 11
13.017827
 21
-248.894894
 31
0.0
  0
LINE
  5
E6
330
1F
100
AcDbEntity
  8
0
 62
     7
 48
0.42424
370
    35
100
AcDbLine
 10
13.017827
 20
-248.894894
 30
0.0
 11
28.794652
 21
-242.645138
 31
0.0
  0
LINE
  5
E7
330
1F
100
AcDbEntity
  8
0
 62
     7
 48
0.342023
370
    35
100
AcDbLine
 10
28.794652
 20
-242.645138
 30
0.0
 11
28.794372
 21
-228.964218
 31
0.0
  0
ARC
  5
E8
330
1F
100
AcDbEntity
  8
0
 62
     7
370
    35
100
AcDbCircle
 10
29.485738
 20
-228.975274
 30
0.0
 40
0.6914544921622351
100
AcDbArc
 50
152.807064
 51
179.083815
  0
ARC
  5
E9
330
1F
100
AcDbEntity
  8
0
 62
     7
370
    35
100
AcDbCircle
 10
29.847574
 20
-229.157763
 30
0.0
 40
1.096697274354342
100
AcDbArc
 50
134.368893
 51
152.965659
  0
ARC
  5
EA
330
1F
100
AcDbEntity
  8
0
 62
     7
370
    35
100
AcDbCircle
 10
30.261042
 20
-229.514866
 30
0.0
 40
1.641741722100207
100
AcDbArc
 50
124.628358
 51
135.969449
  0
LINE
  5
EB
330
1F
100
AcDbEntity
  8
0
 62
     7
 48
0.008505
370
    35
100
AcDbLine
 10
29.328121
 20
-228.16395
 30
0.0
 11
29.650059
 21
-228.053951
 31
0.0
  0
LINE
  5
EC
330
1F
100
AcDbEntity
  8
0
 62
     7
 48
0.020169
370
    35
100
AcDbLine
 10
29.650059
 20
-228.053951
 30
0.0
 11
30.395207
 21
-227.744747
 31
0.0
  0
LINE
  5
ED
330
1F
100
AcDbEntity
  8
0
 62
     7
 48
0.019363
370
    35
100
AcDbLine
 10
30.395207
 20
-227.744747
 30
0.0
 11
31.10822
 21
-227.442257
 31
0.0
  0
LINE
  5
EE
330
1F
100
AcDbEntity
  8
0
 62
     7
 48
0.00842
370
    35
100
AcDbLine
 10
31.10822
 20
-227.442257
 30
0.0
 11
31.424138
 21
-227.325558
 31
0.0
  0
LINE
  5
EF
330
1F
100
AcDbEntity
  8
0
 62
     7
 48
0.006199
370
    35
100
AcDbLine
 10
31.424138
 20
-227.325558
 30
0.0
 11
31.671055
 21
-227.302731
 31
0.0
  0
LINE
  5
F0
330
1F
100
AcDbEntity
  8
0
 62
     7
 48
0.003682
370
    35
100
AcDbLine
 10
31.671055
 20
-227.302731
 30
0.0
 11
31.804981
 21
-227.364011
 31
0.0
  0
ARC
  5
F1
330
1F
100
AcDbEntity
  8
0
 62
     7
370
    35
100
AcDbCircle
 10
31.594555
 20
-227.660032
 30
0.0
 40
0.3631906945547701
100
AcDbArc
 50
358.656059
 51
54.592991
  0
LINE
  5
F2
330
1F
100
AcDbEntity
  8
0
 62
     7
 48
0.343928
370
    35
100
AcDbLine
 10
31.957646
 20
-227.66855
 30
0.0
 11
31.957646
 21
-241.425655
 31
0.0
  0
LINE
  5
F3
330
1F
100
AcDbEntity
  8
0
 62
     7
 48
0.060898
370
    35
100
AcDbLine
 10
31.957646
 20
-241.425655
 30
0.0
 11
34.333836
 21
-241.961849
 31
0.0
  0
LINE
  5
F4
330
1F
100
AcDbEntity
  8
0
 62
     7
 48
0.056122
370
    35
100
AcDbLine
 10
34.333836
 20
-241.961849
 30
0.0
 11
36.52924
 21
-242.430599
 31
0.0
  0
LINE
  5
F5
330
1F
100
AcDbEntity
  8
0
 62
     7
 48
0.048545
370
    35
100
AcDbLine
 10
36.52924
 20
-242.430599
 30
0.0
 11
38.436039
 21
-242.797543
 31
0.0
  0
LINE
  5
F6
330
1F
100
AcDbEntity
  8
0
 62
     7
370
    35
100
AcDbLine
 10
38.436039
 20
-242.797543
 30
0.0
 11
38.436039
 21
-221.228268
 31
0.0
  0
LINE
  5
F7
330
1F
100
AcDbEntity
  8
0
 62
     7
 48
0.013047
370
    35
100
AcDbLine
 10
38.436039
 20
-221.228268
 30
0.0
 11
38.394291
 21
-220.708065
 31
0.0
  0
LINE
  5
F8
330
1F
100
AcDbEntity
  8
0
 62
     7
 48
0.012219
370
    35
100
AcDbLine
 10
38.394291
 20
-220.708065
 30
0.0
 11
38.262639
 21
-220.237362
 31
0.0
  0
LINE
  5
F9
330
1F
100
AcDbEntity
  8
0
 62
     7
 48
0.011682
370
    35
100
AcDbLine
 10
38.262639
 20
-220.237362
 30
0.0
 11
38.0351
 21
-219.82922
 31
0.0
  0
LINE
  5
FA
330
1F
100
AcDbEntity
  8
0
 62
     7
 48
0.009467
370
    35
100
AcDbLine
 10
38.0351
 20
-219.82922
 30
0.0
 11
37.779118
 21
-219.550167
 31
0.0
  0
LINE
  5
FB
330
1F
100
AcDbEntity
  8
0
 62
     7
 48
0.009708
370
    35
100
AcDbLine
 10
37.779118
 20
-219.550167
 30
0.0
 11
37.464299
 21
-219.322811
 31
0.0
  0
LINE
  5
FC
330
1F
100
AcDbEntity
  8
0
 62
     7
 48
0.012032
370
    35
100
AcDbLine
 10
37.464299
 20
-219.322811
 30
0.0
 11
37.024632
 21
-219.127071
 31
0.0
  0
LINE
  5
FD
330
1F
100
AcDbEntity
  8
0
 62
     7
 48
0.012105
370
    35
100
AcDbLine
 10
37.024632
 20
-219.127071
 30
0.0
 11
36.549229
 21
-219.035152
 31
0.0
  0
LINE
  5
FE
330
1F
100
AcDbEntity
  8
0
 62
     7
 48
0.012566
370
    35
100
AcDbLine
 10
36.549229
 20
-219.035152
 30
0.0
 11
36.046696
 21
-219.044918
 31
0.0
  0
LINE
  5
FF
330
1F
100
AcDbEntity
  8
0
 62
     7
 48
0.011678
370
    35
100
AcDbLine
 10
36.046696
 20
-219.044918
 30
0.0
 11
35.587773
 21
-219.132015
 31
0.0
  0
LINE
  5
100
330
1F
100
AcDbEntity
  8
0
 62
     7
 48
0.012288
370
    35
100
AcDbLine
 10
35.587773
 20
-219.132015
 30
0.0
 11
35.120414
 21
-219.284192
 31
0.0
  0
CIRCLE
  5
101
330
1F
100
AcDbEntity
  8
0
 62
     7
370
    35
100
AcDbCircle
 10
29.0
 20
-60.0
 30
0.0
 40
11.0
  0
CIRCLE
  5
102
330
1F
100
AcDbEntity
  8
0
 62
     7
370
    35
100
AcDbCircle
 10
42.0
 20
-15.0
 30
0.0
 40
2.75
  0
CIRCLE
  5
103
330
1F
100
AcDbEntity
  8
0
 62
     7
370
    35
100
AcDbCircle
 10
13.0
 20
-15.0
 30
0.0
 40
2.75
  0
CIRCLE
  5
104
330
1F
100
AcDbEntity
  8
0
 62
     7
370
    35
100
AcDbCircle
 10
42.0
 20
-499.6
 30
0.0
 40
2.75
  0
CIRCLE
  5
105
330
1F
100
AcDbEntity
  8
0
 62
     7
370
    35
100
AcDbCircle
 10
13.0
 20
-499.6
 30
0.0
 40
2.75
  0
CIRCLE
  5
106
330
1F
100
AcDbEntity
  8
0
 62
     7
370
    35
100
AcDbCircle
 10
12.0
 20
-153.3
 30
0.0
 40
2.599999999999994
  0
CIRCLE
  5
107
330
1F
100
AcDbEntity
  8
0
 62
     7
370
    35
100
AcDbCircle
 10
12.0
 20
-363.3
 30
0.0
 40
2.599999999999994
  0
CIRCLE
  5
108
330
1F
100
AcDbEntity
  8
0
 62
     7
370
    35
100
AcDbCircle
 10
211.245129
 20
-12.0
 30
0.0
 40
2.600000000000009
  0
LINE
  5
109
330
1F
100
AcDbEntity
  8
0
  6
AXES
 62
     1
370
    13
100
AcDbLine
 10
61.122564
 20
0.0
 30
0.0
 11
61.122564
 21
-514.6
 31
0.0
  0
LINE
  5
10A
330
1F
100
AcDbEntity
  8
0
  6
AXES
 62
     1
370
    13
100
AcDbLine
 10
596.367693
 20
-514.6
 30
0.0
 11
596.367693
 21
0.0
 31
0.0
  0
ENDSEC
  0
SECTION
  2
OBJECTS
  0
DICTIONARY
  5
C
330
0
100
AcDbDictionary
281
     1
  3
ACAD_GROUP
350
D
  3
ACAD_LAYOUT
350
1A
  3
ACAD_MLINESTYLE
350
17
  3
ACAD_PLOTSETTINGS
350
19
  3
ACAD_PLOTSTYLENAME
350
E
  3
ACAD_SCALELIST
350
47
  0
DICTIONARY
  5
D
102
{ACAD_REACTORS
330
C
102
}
330
C
100
AcDbDictionary
281
     1
  0
DICTIONARY
  5
1A
102
{ACAD_REACTORS
330
C
102
}
330
C
100
AcDbDictionary
281
     1
  3
Layout1
350
1E
  3
Layout2
350
26
  3
Model
350
22
  0
DICTIONARY
  5
17
102
{ACAD_REACTORS
330
C
102
}
330
C
100
AcDbDictionary
281
     1
  3
Standard
350
18
  0
DICTIONARY
  5
19
102
{ACAD_REACTORS
330
C
102
}
330
C
100
AcDbDictionary
281
     1
  0
ACDBDICTIONARYWDFLT
  5
E
102
{ACAD_REACTORS
330
C
102
}
330
C
100
AcDbDictionary
281
     1
  3
Normal
350
F
100
AcDbDictionaryWithDefault
340
F
  0
DICTIONARY
  5
47
102
{ACAD_REACTORS
330
C
102
}
330
C
100
AcDbDictionary
281
     1
  3
A0
350
48
  3
A1
350
49
  3
A2
350
4A
  3
A3
350
4B
  3
A4
350
4C
  3
A5
350
4D
  3
A6
350
4E
  3
A7
350
4F
  3
A8
350
50
  3
A9
350
51
  3
B0
350
52
  3
B1
350
53
  3
B2
350
54
  3
B3
350
55
  3
B4
350
56
  3
B5
350
57
  3
B6
350
58
  3
B7
350
59
  3
B8
350
5A
  3
B9
350
5B
  3
C0
350
5C
  3
C1
350
5D
  3
C2
350
5E
  3
C3
350
5F
  3
C4
350
60
  3
C5
350
61
  3
C6
350
62
  3
C7
350
63
  3
C8
350
64
  3
C9
350
65
  3
D0
350
66
  3
D1
350
67
  3
D2
350
68
  0
LAYOUT
  5
1E
102
{ACAD_REACTORS
330
1A
102
}
330
1A
100
AcDbPlotSettings
  1

  2
none_device
  4

  6

 40
0.0
 41
0.0
 42
0.0
 43
0.0
 44
0.0
 45
0.0
 46
0.0
 47
0.0
 48
0.0
 49
0.0
140
0.0
141
0.0
142
1.0
143
1.0
 70
  4784
 72
     0
 73
     0
 74
     5
  7

 75
    16
147
1.0
148
0.0
149
0.0
100
AcDbLayout
  1
Layout1
 70
     1
 71
     1
 10
0.0
 20
0.0
 11
12.0
 21
9.0
 12
0.0
 22
0.0
 32
0.0
 14
-6.0
 24
-514.599976
 34
0.0
 15
660.490234
 25
0.0
 35
2.0
146
0.0
 13
0.0
 23
0.0
 33
0.0
 16
1.0
 26
0.0
 36
0.0
 17
0.0
 27
1.0
 37
0.0
 76
     0
330
1B
  0
LAYOUT
  5
26
102
{ACAD_REACTORS
330
1A
102
}
330
1A
100
AcDbPlotSettings
  1

  2
none_device
  4

  6

 40
0.0
 41
0.0
 42
0.0
 43
0.0
 44
0.0
 45
0.0
 46
0.0
 47
0.0
 48
0.0
 49
0.0
140
0.0
141
0.0
142
1.0
143
1.0
 70
  4784
 72
     0
 73
     0
 74
     5
  7

 75
    16
147
1.0
148
0.0
149
0.0
100
AcDbLayout
  1
Layout2
 70
     1
 71
     2
 10
0.0
 20
0.0
 11
0.0
 21
0.0
 12
0.0
 22
0.0
 32
0.0
 14
0.0
 24
0.0
 34
0.0
 15
0.0
 25
0.0
 35
0.0
146
0.0
 13
0.0
 23
0.0
 33
0.0
 16
1.0
 26
0.0
 36
0.0
 17
0.0
 27
1.0
 37
0.0
 76
     0
330
23
  0
LAYOUT
  5
22
102
{ACAD_REACTORS
330
1A
102
}
330
1A
100
AcDbPlotSettings
  1

  2
none_device
  4
Letter_(8.50_x_11.00_Inches)
  6

 40
6.35
 41
6.35
 42
6.350005
 43
6.350005
 44
215.9
 45
279.4
 46
0.0
 47
0.0
 48
0.0
 49
0.0
140
0.0
141
0.0
142
1.0
143
1.0
 70
  5808
 72
     0
 73
     0
 74
     0
  7

 75
     0
147
1.0
148
0.0
149
0.0
100
AcDbLayout
  1
Model
 70
     1
 71
     0
 10
0.0
 20
0.0
 11
12.0
 21
9.0
 12
0.0
 22
0.0
 32
0.0
 14
-6.0
 24
-514.599976
 34
0.0
 15
660.490234
 25
0.0
 35
2.0
146
0.0
 13
0.0
 23
0.0
 33
0.0
 16
1.0
 26
0.0
 36
0.0
 17
0.0
 27
1.0
 37
0.0
 76
     0
330
1F
331
29
  0
MLINESTYLE
  5
18
102
{ACAD_REACTORS
330
17
102
}
330
17
100
AcDbMlineStyle
  2
Standard
 70
     0
  3

 62
   256
 51
90.0
 52
90.0
 71
     2
 49
0.5
 62
   256
  6
BYLAYER
 49
-0.5
 62
   256
  6
BYLAYER
  0
ACDBPLACEHOLDER
  5
F
102
{ACAD_REACTORS
330
E
102
}
330
E
  0
SCALE
  5
48
102
{ACAD_REACTORS
330
47
102
}
330
47
100
AcDbScale
 70
     0
300
1:1
140
1.0
141
1.0
290
     1
  0
SCALE
  5
49
102
{ACAD_REACTORS
330
47
102
}
330
47
100
AcDbScale
 70
     0
300
1:2
140
1.0
141
2.0
290
     0
  0
SCALE
  5
4A
102
{ACAD_REACTORS
330
47
102
}
330
47
100
AcDbScale
 70
     0
300
1:4
140
1.0
141
4.0
290
     0
  0
SCALE
  5
4B
102
{ACAD_REACTORS
330
47
102
}
330
47
100
AcDbScale
 70
     0
300
1:5
140
1.0
141
5.0
290
     0
  0
SCALE
  5
4C
102
{ACAD_REACTORS
330
47
102
}
330
47
100
AcDbScale
 70
     0
300
1:8
140
1.0
141
8.0
290
     0
  0
SCALE
  5
4D
102
{ACAD_REACTORS
330
47
102
}
330
47
100
AcDbScale
 70
     0
300
1:10
140
1.0
141
10.0
290
     0
  0
SCALE
  5
4E
102
{ACAD_REACTORS
330
47
102
}
330
47
100
AcDbScale
 70
     0
300
1:16
140
1.0
141
16.0
290
     0
  0
SCALE
  5
4F
102
{ACAD_REACTORS
330
47
102
}
330
47
100
AcDbScale
 70
     0
300
1:20
140
1.0
141
20.0
290
     0
  0
SCALE
  5
50
102
{ACAD_REACTORS
330
47
102
}
330
47
100
AcDbScale
 70
     0
300
1:30
140
1.0
141
30.0
290
     0
  0
SCALE
  5
51
102
{ACAD_REACTORS
330
47
102
}
330
47
100
AcDbScale
 70
     0
300
1:40
140
1.0
141
40.0
290
     0
  0
SCALE
  5
52
102
{ACAD_REACTORS
330
47
102
}
330
47
100
AcDbScale
 70
     0
300
1:50
140
1.0
141
50.0
290
     0
  0
SCALE
  5
53
102
{ACAD_REACTORS
330
47
102
}
330
47
100
AcDbScale
 70
     0
300
1:100
140
1.0
141
100.0
290
     0
  0
SCALE
  5
54
102
{ACAD_REACTORS
330
47
102
}
330
47
100
AcDbScale
 70
     0
300
2:1
140
2.0
141
1.0
290
     0
  0
SCALE
  5
55
102
{ACAD_REACTORS
330
47
102
}
330
47
100
AcDbScale
 70
     0
300
4:1
140
4.0
141
1.0
290
     0
  0
SCALE
  5
56
102
{ACAD_REACTORS
330
47
102
}
330
47
100
AcDbScale
 70
     0
300
8:1
140
8.0
141
1.0
290
     0
  0
SCALE
  5
57
102
{ACAD_REACTORS
330
47
102
}
330
47
100
AcDbScale
 70
     0
300
10:1
140
10.0
141
1.0
290
     0
  0
SCALE
  5
58
102
{ACAD_REACTORS
330
47
102
}
330
47
100
AcDbScale
 70
     0
300
100:1
140
100.0
141
1.0
290
     0
  0
SCALE
  5
59
102
{ACAD_REACTORS
330
47
102
}
330
47
100
AcDbScale
 70
     0
300
1/128" = 1'-0"
140
0.007812
141
12.0
290
     0
  0
SCALE
  5
5A
102
{ACAD_REACTORS
330
47
102
}
330
47
100
AcDbScale
 70
     0
300
1/64" = 1'-0"
140
0.015625
141
12.0
290
     0
  0
SCALE
  5
5B
102
{ACAD_REACTORS
330
47
102
}
330
47
100
AcDbScale
 70
     0
300
1/32" = 1'-0"
140
0.03125
141
12.0
290
     0
  0
SCALE
  5
5C
102
{ACAD_REACTORS
330
47
102
}
330
47
100
AcDbScale
 70
     0
300
1/16" = 1'-0"
140
0.0625
141
12.0
290
     0
  0
SCALE
  5
5D
102
{ACAD_REACTORS
330
47
102
}
330
47
100
AcDbScale
 70
     0
300
3/32" = 1'-0"
140
0.09375
141
12.0
290
     0
  0
SCALE
  5
5E
102
{ACAD_REACTORS
330
47
102
}
330
47
100
AcDbScale
 70
     0
300
1/8" = 1'-0"
140
0.125
141
12.0
290
     0
  0
SCALE
  5
5F
102
{ACAD_REACTORS
330
47
102
}
330
47
100
AcDbScale
 70
     0
300
3/16" = 1'-0"
140
0.1875
141
12.0
290
     0
  0
SCALE
  5
60
102
{ACAD_REACTORS
330
47
102
}
330
47
100
AcDbScale
 70
     0
300
1/4" = 1'-0"
140
0.25
141
12.0
290
     0
  0
SCALE
  5
61
102
{ACAD_REACTORS
330
47
102
}
330
47
100
AcDbScale
 70
     0
300
3/8" = 1'-0"
140
0.375
141
12.0
290
     0
  0
SCALE
  5
62
102
{ACAD_REACTORS
330
47
102
}
330
47
100
AcDbScale
 70
     0
300
1/2" = 1'-0"
140
0.5
141
12.0
290
     0
  0
SCALE
  5
63
102
{ACAD_REACTORS
330
47
102
}
330
47
100
AcDbScale
 70
     0
300
3/4" = 1'-0"
140
0.75
141
12.0
290
     0
  0
SCALE
  5
64
102
{ACAD_REACTORS
330
47
102
}
330
47
100
AcDbScale
 70
     0
300
1" = 1'-0"
140
1.0
141
12.0
290
     0
  0
SCALE
  5
65
102
{ACAD_REACTORS
330
47
102
}
330
47
100
AcDbScale
 70
     0
300
1-1/2" = 1'-0"
140
1.5
141
12.0
290
     0
  0
SCALE
  5
66
102
{ACAD_REACTORS
330
47
102
}
330
47
100
AcDbScale
 70
     0
300
3" = 1'-0"
140
3.0
141
12.0
290
     0
  0
SCALE
  5
67
102
{ACAD_REACTORS
330
47
102
}
330
47
100
AcDbScale
 70
     0
300
6" = 1'-0"
140
6.0
141
12.0
290
     0
  0
SCALE
  5
68
102
{ACAD_REACTORS
330
47
102
}
330
47
100
AcDbScale
 70
     0
300
1'-0" = 1'-0"
140
12.0
141
12.0
290
     0
  0
ENDSEC
  0
EOF
